<svg width="286" height="175" viewBox="0 0 286 175" fill="none" xmlns="http://www.w3.org/2000/svg">
<g clip-path="url(#clip0)">
<path d="M188.516 90.7418C187.755 83.9008 241.828 81.6204 244.874 55.0166C247.92 28.4128 194.609 -1.99162 179.377 4.08926C164.145 10.1701 148.152 -1.99162 138.251 0.288712C128.351 2.56904 116.927 11.6904 96.3638 16.251C75.8009 20.8117 80.3704 22.3319 66.6618 32.9734C52.9532 43.615 45.3373 67.1784 30.8671 70.2188C16.3968 73.2592 14.1121 98.3428 3.44981 96.0625C-7.21245 93.7822 9.54253 99.103 17.1584 109.744C24.7743 120.386 33.1518 121.146 40.0061 129.507C46.8605 137.869 81.132 154.591 90.2711 163.712C99.4102 172.834 117.688 176.634 139.013 174.354C149.546 173.229 171 168.273 186.993 171.313C200.245 173.837 247.159 156.871 250.967 131.028C254.775 105.184 234.973 99.103 215.933 100.623C201.654 101.763 188.707 92.452 188.516 90.7418Z" fill="#314E28"/>
<path d="M282.664 97.583C282.664 97.583 255.681 88.8417 241.538 88.8645C227.396 88.8874 187.694 91.0537 187.694 91.0537L187.694 86.6982C187.694 86.6982 232.94 84.4179 242.33 83.9238C251.721 83.4298 286 92.1482 286 92.1482L282.664 97.583Z" fill="#314E28"/>
<path d="M117.689 44.3752C122.258 51.9763 122.258 61.8577 122.258 61.8577C119.526 61.4612 116.902 60.5158 114.546 59.0787C112.19 57.6416 110.15 55.7426 108.55 53.4965C103.219 45.8954 103.219 33.7337 103.219 33.7337C103.219 33.7337 113.119 36.7741 117.689 44.3752Z" fill="#618058"/>
<path d="M99.4104 63.3777C99.4104 63.3777 102.457 70.9788 84.9402 64.898C67.4236 58.8171 52.9534 49.6958 65.1389 49.6958C77.3243 49.6958 81.1322 45.1351 88.7481 49.6958C96.364 54.2564 99.4104 63.3777 99.4104 63.3777Z" fill="#618058"/>
<path d="M140.536 32.2134C138.251 40.5746 129.874 42.0948 127.589 36.0139C125.304 29.9331 123.781 20.0516 127.589 19.2915C131.397 18.5314 142.821 23.8522 140.536 32.2134Z" fill="#618058"/>
<path d="M217.457 46.6556C215.172 55.0167 206.795 56.537 204.51 50.4561C202.225 44.3752 200.702 34.4938 204.51 33.7337C208.318 32.9736 219.742 38.2944 217.457 46.6556Z" fill="#618058"/>
<path d="M188.989 38.4388C182.135 49.0804 173.498 47.9478 174.862 38.7125C176.225 29.4771 180.452 15.3163 184.404 15.7343C188.357 16.1524 195.912 27.8201 188.989 38.4388Z" fill="#618058"/>
<path d="M178.586 145.964C174.671 133.886 165.204 132.677 163.712 141.95C162.219 151.224 162.188 166.023 166.522 166.677C170.855 167.33 182.508 158.034 178.586 145.964Z" fill="#618058"/>
<path d="M145.418 154.066C146.553 143.858 145.129 136.059 140.849 142.368C136.569 148.677 131.58 159.547 134.604 161.493C137.627 163.439 144.291 164.275 145.418 154.066Z" fill="#618058"/>
<path d="M216.924 139.229C212.354 130.009 207.023 124.194 206.795 131.795C206.566 139.396 208.226 151.254 211.821 151.269C215.416 151.284 221.463 148.442 216.924 139.229Z" fill="#618058"/>
<path d="M196.361 144.71C192.134 135.345 186.932 129.355 186.46 136.949C185.988 144.542 187.222 156.446 190.839 156.582C194.457 156.719 200.595 154.074 196.361 144.71Z" fill="#618058"/>
<path d="M127.902 141.145C129.036 130.936 127.612 123.138 123.332 129.447C119.052 135.756 114.064 146.625 117.087 148.571C120.111 150.517 126.774 151.353 127.902 141.145Z" fill="#618058"/>
<path d="M105.472 132.563C110.042 123.358 111.344 115.537 105.191 120.021C99.0371 124.506 90.6139 133.027 92.7996 135.885C94.9854 138.743 100.918 141.776 105.472 132.563Z" fill="#618058"/>
<path d="M86.319 121.253C91.1398 112.185 92.6935 104.409 86.4103 108.711C80.1272 113.013 71.4527 121.275 73.5547 124.202C75.6567 127.128 81.4981 130.328 86.319 121.253Z" fill="#618058"/>
<path d="M53.479 78.6028C62.5648 83.4143 70.3559 84.9649 66.0453 78.694C61.7347 72.4231 53.4257 63.7655 50.5316 65.8634C47.6376 67.9613 44.3856 73.7913 53.479 78.6028Z" fill="#618058"/>
<path d="M57.0737 107.852C66.7078 104.256 73.0671 99.4906 65.4512 98.5252C57.8353 97.5599 45.9087 98.0312 45.5432 101.566C45.1776 105.1 47.4319 111.455 57.0737 107.852Z" fill="#618058"/>
<path d="M164.176 32.7608C160.597 44.839 153.103 46.1388 152.318 36.9186C151.534 27.6985 156.888 12.4507 160.338 12.4507C164.146 12.4507 167.756 20.6979 164.176 32.7608Z" fill="#618058"/>
<path d="M33.9138 90.7421L86.4635 93.0224L49.9072 125.707L92.5562 93.0224C92.5562 93.0224 116.927 93.0224 117.689 93.7825C118.45 94.5426 68.1853 149.271 68.1853 149.271C68.1853 149.271 121.497 95.3027 123.781 93.7825C126.066 92.2623 135.205 93.0224 136.728 94.5426C138.252 96.0629 95.6026 160.672 95.6026 160.672C95.6026 160.672 141.298 96.0629 142.821 94.5426C144.344 93.0224 153.483 92.2623 154.245 93.7825C155.007 95.3027 121.497 169.793 121.497 169.793L158.815 93.7825C158.815 93.7825 161.099 93.0224 162.622 93.7825C164.146 94.5426 150.437 162.192 150.437 162.192L160.719 120.219C160.719 120.219 165.669 96.0629 167.192 94.5426C168.715 93.0224 175.57 99.8634 175.57 99.8634L183.947 151.551C183.947 151.551 176.331 102.904 177.854 101.384C179.377 99.8634 188.517 105.184 190.04 107.464C191.563 109.745 211.364 156.111 211.364 156.111C211.364 156.111 193.086 109.745 193.848 108.985C194.609 108.225 206.795 115.066 209.841 117.346C212.887 119.626 227.358 146.99 227.358 146.99C227.358 146.99 214.411 120.386 212.887 118.106C211.364 115.826 240.305 130.268 240.305 130.268C240.305 130.268 169.477 90.7421 169.477 89.2219C169.477 87.7017 191.563 77.8202 191.563 77.8202L234.212 50.4563C234.212 50.4563 170.238 84.6612 168.715 83.9011C167.192 83.141 174.046 15.4913 174.046 15.4913C174.046 15.4913 165.669 83.9011 164.146 85.4213C162.622 86.9415 159.576 86.1814 159.576 86.1814L145.106 13.2109C145.106 13.2109 156.53 86.1814 155.007 86.9415C153.483 87.7017 145.868 87.7017 145.868 87.7017L120.735 30.6935C120.735 30.6935 142.821 85.4213 141.298 87.7017C139.775 89.982 127.589 88.4618 126.066 87.7017C124.543 86.9415 94.0794 36.0142 94.0794 36.0142C94.0794 36.0142 123.02 86.9415 120.735 88.4618C118.45 89.982 94.0794 88.4618 94.0794 88.4618L59.0462 56.5372L86.4635 89.2219L33.9138 90.7421Z" fill="#212E1D"/>
</g>
<defs>
<clipPath id="clip0">
<rect width="175" height="286" fill="white" transform="matrix(1.19249e-08 -1 -1 -1.19249e-08 286 175)"/>
</clipPath>
</defs>
</svg>
