<svg width="760" height="639" viewBox="0 0 760 639" fill="none" xmlns="http://www.w3.org/2000/svg">
<g clip-path="url(#clip0)">
<path d="M289.774 368.89C284.553 354.088 171.46 402.91 138.84 351.288C106.22 299.667 185.348 184.475 222.597 181.891C259.846 179.308 280.57 138.506 303.124 133.392C325.678 128.279 358.136 135.707 404.805 124.726C451.474 113.746 443.615 121.389 482.264 129.679C520.912 137.968 559.884 178.824 592.558 170.75C625.231 162.676 654.783 211.929 674.376 196.695C693.97 181.462 664.902 208.968 659.843 238.358C654.783 267.748 638.365 277.599 632.605 301.552C626.846 325.506 573.179 393.76 563.49 421.535C553.801 449.31 520.104 475.202 474.135 491.619C451.431 499.731 402.543 510.782 372.776 532.851C348.117 551.146 235.138 562.725 201.711 513.419C168.284 464.112 202.841 432.031 243.374 416.313C273.773 404.525 291.079 372.591 289.774 368.89Z" fill="#314E28"/>
<path d="M103.583 476.099C103.583 476.099 150.223 431.447 179.234 417.5C208.245 403.553 291.768 368.717 291.768 368.717L287.45 359.772C287.45 359.772 192.45 399.86 172.712 408.137C152.975 416.414 91.3574 468.238 91.3574 468.238L103.583 476.099Z" fill="#314E28"/>
<path d="M388.98 203.585C387.15 223.716 396.946 244.01 396.946 244.01C402.154 240.491 406.595 235.954 409.999 230.671C413.404 225.388 415.702 219.47 416.755 213.274C420.146 192.388 408.089 167.412 408.089 167.412C408.089 167.412 390.81 183.453 388.98 203.585Z" fill="#618058"/>
<path d="M445.284 224.524C445.284 224.524 446.576 243.148 476.45 213.328C506.325 183.507 526.941 150.457 501.965 162.514C476.989 174.571 464.662 168.973 453.574 185.875C442.485 202.777 445.284 224.524 445.284 224.524Z" fill="#618058"/>
<path d="M330.092 201.216C343.064 216.127 361.743 210.959 360.397 196.21C359.051 181.461 352.377 159.661 343.818 161.868C335.259 164.075 317.119 186.306 330.092 201.216Z" fill="#618058"/>
<path d="M186.747 306.988C199.72 321.898 218.398 316.731 217.053 301.982C215.707 287.233 209.032 265.432 200.474 267.639C191.915 269.846 173.775 292.077 186.747 306.988Z" fill="#618058"/>
<path d="M236.951 261.944C261.551 277.016 278.13 266.145 266.18 248.527C254.229 230.91 231.526 206.01 223.839 210.78C216.152 215.55 212.234 246.987 236.951 261.944Z" fill="#618058"/>
<path d="M364.878 472.472C360.927 443.794 379.132 431.944 391.386 449.512C403.639 467.079 418.374 497.442 410.14 503.072C401.906 508.703 368.806 501.142 364.878 472.472Z" fill="#618058"/>
<path d="M440.894 456.293C428.447 436.452 423.634 419.026 438.662 427.748C453.69 436.469 474.691 453.855 470.423 460.843C466.155 467.831 453.325 476.142 440.894 456.293Z" fill="#618058"/>
<path d="M279.62 496.577C279.845 473.12 285.007 455.903 293.011 471.287C301.015 486.671 309.368 512.666 302.015 516.254C294.663 519.842 279.45 519.987 279.62 496.577Z" fill="#618058"/>
<path d="M327.201 487.485C326.58 464.071 331.304 446.623 339.8 461.75C348.296 476.877 357.568 502.544 350.289 506.404C343.01 510.265 327.806 510.906 327.201 487.485Z" fill="#618058"/>
<path d="M463.986 412.423C451.539 392.582 446.727 375.157 461.754 383.878C476.782 392.599 497.783 409.986 493.515 416.974C489.247 423.962 476.417 432.273 463.986 412.423Z" fill="#618058"/>
<path d="M501.45 372.606C482.958 358.224 472.534 343.45 489.593 346.571C506.652 349.692 532.365 358.856 530.718 366.888C529.072 374.92 519.918 387.019 501.45 372.606Z" fill="#618058"/>
<path d="M529.496 330.426C510.624 316.573 499.731 302.141 516.874 304.759C534.018 307.377 559.99 315.762 558.582 323.852C557.175 331.942 548.375 344.294 529.496 330.426Z" fill="#618058"/>
<path d="M554.523 210.342C540.671 229.214 526.239 240.107 528.857 222.964C531.475 205.82 539.923 179.818 547.934 181.263C555.946 182.708 568.392 191.463 554.523 210.342Z" fill="#618058"/>
<path d="M576.154 273.967C552.842 276.116 535.083 272.621 549.736 263.103C564.389 253.584 589.302 242.751 593.555 249.648C597.809 256.545 599.488 271.826 576.154 273.967Z" fill="#618058"/>
<path d="M282.181 225.731C301.492 246.994 318.141 242.248 310.608 222.537C303.075 202.825 276.984 176.809 269.912 180.223C262.107 183.991 262.884 204.5 282.181 225.731Z" fill="#618058"/>
<path d="M606.66 215.912L501.211 272.592L608.544 303.544L488.723 278.621C488.723 278.621 438.77 302.736 437.963 305.051C437.155 307.365 594.441 370.022 594.441 370.022C594.441 370.022 431.665 311.941 425.475 311.079C419.285 310.218 401.306 320.822 399.691 325.451C398.076 330.081 549.548 420.566 549.548 420.566C549.548 420.566 391.832 333.095 387.203 331.48C382.574 329.865 363.088 337.347 363.034 341.223C362.98 345.098 505.517 464.92 505.517 464.92L353.668 345.744C353.668 345.744 348.231 346.444 345.863 349.512C343.494 352.581 438.662 477.946 438.662 477.946L375.975 401.921C375.975 401.921 341.88 357.21 337.25 355.595C332.621 353.98 325.354 374.812 325.354 374.812L359.427 489.25C359.427 489.25 326.808 381.809 322.178 380.194C317.549 378.579 304.092 398.55 303.231 404.74C302.37 410.93 307.752 525.746 307.752 525.746C307.752 525.746 299.248 412.437 296.933 411.63C294.618 410.822 276.424 436.929 272.441 444.626C268.458 452.324 265.928 522.839 265.928 522.839C265.928 522.839 266.089 455.392 266.951 449.202C267.812 443.012 222.811 501.307 222.811 501.307C222.811 501.307 328.799 350.051 327.292 346.929C325.785 343.807 270.719 345.367 270.719 345.367L156.173 331.372C156.173 331.372 321.21 338.316 323.578 335.248C325.947 332.18 244.828 200.031 244.828 200.031C244.828 200.031 329.822 332.233 334.451 333.848C339.081 335.463 344.571 330.888 344.571 330.888L301.886 166.712C301.886 166.712 350.815 327.873 354.691 327.927C358.566 327.981 374.177 320.445 374.177 320.445L369.171 178.5C369.171 178.5 378.16 312.748 383.543 315.924C388.925 319.1 412.395 303.92 414.763 300.852C417.131 297.784 429.082 163.052 429.082 163.052C429.082 163.052 420.253 296.277 426.444 297.138C432.634 297.999 481.079 270.762 481.079 270.762L521.235 170.534L497.443 264.787L606.66 215.912Z" fill="#212E1D"/>
</g>
<defs>
<clipPath id="clip0">
<rect width="399.08" height="650.943" fill="white" transform="translate(173.499 638.389) rotate(-115.769)"/>
</clipPath>
</defs>
</svg>
