<svg width="287" height="176" viewBox="0 0 287 176" fill="none" xmlns="http://www.w3.org/2000/svg">
<g clip-path="url(#clip0)">
<path d="M97.9838 91.242C98.7454 84.401 44.6725 82.1207 41.6261 55.5169C38.5797 28.913 91.8911 -1.49133 107.123 4.58955C122.355 10.6704 138.348 -1.49133 148.249 0.788999C158.149 3.06933 169.573 12.1906 190.136 16.7513C210.699 21.312 206.13 22.8322 219.838 33.4737C233.547 44.1152 241.163 67.6786 255.633 70.7191C270.103 73.7595 272.388 98.8431 283.05 96.5628C293.713 94.2825 276.958 99.6032 269.342 110.245C261.726 120.886 253.348 121.646 246.494 130.008C239.64 138.369 205.368 155.091 196.229 164.213C187.09 173.334 168.812 177.134 147.487 174.854C136.954 173.729 115.5 168.773 99.507 171.814C86.2553 174.337 39.3413 157.372 35.5334 131.528C31.7254 105.684 51.5268 99.6032 70.5665 101.123C84.8464 102.264 97.7934 92.9523 97.9838 91.242Z" fill="#314E28"/>
<path d="M3.83577 98.083C3.83577 98.083 30.8189 89.3418 44.9616 89.3646C59.1044 89.3874 98.8061 91.5537 98.8061 91.5537L98.8061 87.1982C98.8061 87.1982 53.56 84.9179 44.1696 84.4238C34.7792 83.9298 0.5 92.6482 0.5 92.6482L3.83577 98.083Z" fill="#314E28"/>
<path d="M168.811 44.8752C164.242 52.4762 164.242 62.3577 164.242 62.3577C166.974 61.9612 169.598 61.0158 171.954 59.5787C174.31 58.1416 176.35 56.2426 177.95 53.9965C183.281 46.3954 183.281 34.2336 183.281 34.2336C183.281 34.2336 173.381 37.2741 168.811 44.8752Z" fill="#618058"/>
<path d="M187.09 63.8778C187.09 63.8778 184.043 71.4788 201.56 65.398C219.076 59.3171 233.547 50.1958 221.361 50.1958C209.176 50.1958 205.368 45.6351 197.752 50.1958C190.136 54.7564 187.09 63.8778 187.09 63.8778Z" fill="#618058"/>
<path d="M145.964 32.7134C148.249 41.0746 156.626 42.5948 158.911 36.514C161.196 30.4331 162.719 20.5516 158.911 19.7915C155.103 19.0314 143.679 24.3522 145.964 32.7134Z" fill="#618058"/>
<path d="M69.043 47.1556C71.3277 55.5167 79.7052 57.037 81.99 50.9561C84.2748 44.8752 85.798 34.9938 81.99 34.2337C78.1821 33.4736 66.7582 38.7944 69.043 47.1556Z" fill="#618058"/>
<path d="M97.511 38.9388C104.365 49.5804 113.002 48.4478 111.638 39.2125C110.275 29.9771 106.048 15.8163 102.096 16.2344C98.1431 16.6524 90.5881 28.3201 97.511 38.9388Z" fill="#618058"/>
<path d="M107.914 146.464C111.829 134.386 121.296 133.177 122.788 142.45C124.281 151.724 124.312 166.523 119.978 167.177C115.645 167.83 103.992 158.534 107.914 146.464Z" fill="#618058"/>
<path d="M141.082 154.566C139.947 144.358 141.371 136.559 145.651 142.868C149.931 149.177 154.92 160.047 151.896 161.993C148.873 163.939 142.209 164.775 141.082 154.566Z" fill="#618058"/>
<path d="M69.5762 139.729C74.1457 130.509 79.4768 124.694 79.7053 132.295C79.9338 139.896 78.2735 151.754 74.6788 151.769C71.0841 151.784 65.0371 148.942 69.5762 139.729Z" fill="#618058"/>
<path d="M90.1392 145.21C94.366 135.845 99.5677 129.855 100.04 137.449C100.512 145.042 99.2783 156.946 95.6607 157.082C92.0432 157.219 85.9048 154.574 90.1392 145.21Z" fill="#618058"/>
<path d="M158.598 141.645C157.464 131.436 158.888 123.638 163.168 129.947C167.448 136.256 172.436 147.125 169.413 149.071C166.389 151.017 159.726 151.853 158.598 141.645Z" fill="#618058"/>
<path d="M181.028 133.063C176.458 123.858 175.156 116.037 181.309 120.521C187.463 125.006 195.886 133.527 193.7 136.385C191.515 139.243 185.582 142.276 181.028 133.063Z" fill="#618058"/>
<path d="M200.182 121.753C195.361 112.685 193.807 104.909 200.09 109.211C206.373 113.513 215.048 121.775 212.946 124.702C210.844 127.628 205.002 130.828 200.182 121.753Z" fill="#618058"/>
<path d="M233.021 79.1028C223.935 83.9143 216.144 85.4649 220.455 79.194C224.765 72.9231 233.074 64.2655 235.968 66.3634C238.862 68.4613 242.114 74.2913 233.021 79.1028Z" fill="#618058"/>
<path d="M229.426 108.352C219.792 104.756 213.433 99.9906 221.049 99.0252C228.665 98.0599 240.591 98.5312 240.957 102.066C241.322 105.6 239.068 111.955 229.426 108.352Z" fill="#618058"/>
<path d="M122.324 33.2608C125.903 45.339 133.397 46.6388 134.182 37.4186C134.966 28.1985 129.612 12.9507 126.162 12.9507C122.354 12.9507 118.744 21.1979 122.324 33.2608Z" fill="#618058"/>
<path d="M252.586 91.2421L200.037 93.5224L236.593 126.207L193.944 93.5224C193.944 93.5224 169.573 93.5224 168.811 94.2825C168.05 95.0426 218.315 149.771 218.315 149.771C218.315 149.771 165.003 95.8028 162.719 94.2825C160.434 92.7623 151.295 93.5224 149.772 95.0426C148.248 96.5629 190.897 161.172 190.897 161.172C190.897 161.172 145.202 96.5629 143.679 95.0426C142.156 93.5224 133.017 92.7623 132.255 94.2825C131.493 95.8028 165.003 170.293 165.003 170.293L127.685 94.2825C127.685 94.2825 125.401 93.5224 123.878 94.2825C122.354 95.0426 136.063 162.692 136.063 162.692L125.781 120.719C125.781 120.719 120.831 96.5629 119.308 95.0426C117.785 93.5224 110.93 100.363 110.93 100.363L102.553 152.051C102.553 152.051 110.169 103.404 108.646 101.884C107.123 100.363 97.9835 105.684 96.4603 107.964C94.9371 110.245 75.1357 156.611 75.1357 156.611C75.1357 156.611 93.4139 110.245 92.6523 109.485C91.8907 108.725 79.7053 115.566 76.6589 117.846C73.6126 120.126 59.1424 147.49 59.1424 147.49C59.1424 147.49 72.0894 120.886 73.6126 118.606C75.1357 116.326 46.1953 130.768 46.1953 130.768C46.1953 130.768 117.023 91.2421 117.023 89.7219C117.023 88.2017 94.9371 78.3202 94.9371 78.3202L52.288 50.9563C52.288 50.9563 116.262 85.1612 117.785 84.4011C119.308 83.641 112.454 15.9913 112.454 15.9913C112.454 15.9913 120.831 84.4011 122.354 85.9213C123.878 87.4416 126.924 86.6814 126.924 86.6814L141.394 13.711C141.394 13.711 129.97 86.6814 131.493 87.4416C133.017 88.2017 140.633 88.2017 140.633 88.2017L165.765 31.1935C165.765 31.1935 143.679 85.9213 145.202 88.2017C146.725 90.482 158.911 88.9618 160.434 88.2017C161.957 87.4416 192.421 36.5142 192.421 36.5142C192.421 36.5142 163.48 87.4416 165.765 88.9618C168.05 90.482 192.421 88.9618 192.421 88.9618L227.454 57.0372L200.037 89.7219L252.586 91.2421Z" fill="#212E1D"/>
</g>
<defs>
<clipPath id="clip0">
<rect width="175" height="286" fill="white" transform="translate(0.5 175.5) rotate(-90)"/>
</clipPath>
</defs>
</svg>
