<svg width="97" height="77" viewBox="0 0 97 77" fill="none" xmlns="http://www.w3.org/2000/svg">
<path fill-rule="evenodd" clip-rule="evenodd" d="M73.0206 38.4002C73.008 39.6643 71.9092 40.8147 70.5831 40.84C69.175 40.8463 67.7605 40.8463 66.3523 40.84C64.9757 40.8147 63.738 39.6201 63.6875 38.2042V38.141V16.9727H64.982C64.982 24.0393 64.9062 31.1123 64.982 38.1789C65.0073 38.8932 65.6387 39.5316 66.3649 39.5442C67.7668 39.5506 69.175 39.5695 70.5768 39.5442C71.1767 39.5253 71.7135 39.0196 71.7198 38.3622V23.2808H73.0143C73.0206 28.3185 73.0838 33.3625 73.0206 38.4002Z" fill="#D8E7FF"/>
<path fill-rule="evenodd" clip-rule="evenodd" d="M85.5111 9.56466C86.6161 9.58362 87.5949 10.5254 87.6202 11.6758V38.8553H86.3257C86.3257 29.7912 86.6793 20.7272 86.3257 11.6695C86.3067 11.2397 85.9341 10.8731 85.5111 10.8604C83.7619 10.8288 82.0127 10.8035 80.2699 10.8604C79.8468 10.8794 79.4805 11.2397 79.4553 11.6758C79.4553 11.6821 79.4553 11.6884 79.4553 11.6948V20.5502H78.1608C78.1608 17.5858 78.1039 14.6213 78.1608 11.6568C78.1608 11.5178 78.1671 11.5051 78.1734 11.4419C78.2997 10.4369 79.2216 9.59626 80.2509 9.56466C82.0001 9.53305 83.7556 9.55202 85.5111 9.56466Z" fill="#D8E7FF"/>
<path fill-rule="evenodd" clip-rule="evenodd" d="M48.4817 19.0838C48.9364 21.8333 51.6517 23.8939 54.4112 24.3616L54.4554 24.3679C54.4554 23.4388 54.4554 22.5096 54.4554 21.5805C54.4554 20.8093 54.7775 19.7095 53.906 19.5515C52.1253 19.2607 50.3382 19.0901 48.5196 19.0711C48.5196 19.0774 48.4754 19.0585 48.4817 19.0838ZM48.147 17.7753C50.1425 17.7817 52.1379 17.9397 54.1018 18.2747C55.0048 18.4264 55.7373 19.2607 55.7499 20.1899C55.7562 21.7891 55.7562 23.3756 55.7499 24.9684C55.7499 25.4362 55.3458 25.7775 54.7269 25.7143C54.4807 25.689 54.2091 25.6511 53.9629 25.6068C50.6161 24.9684 47.364 22.4275 47.124 18.6539C47.0925 18.1483 47.4335 17.769 48.147 17.7753Z" fill="#D8E7FF"/>
<path fill-rule="evenodd" clip-rule="evenodd" d="M32.0951 32.3448C33.1244 32.3638 34.0463 33.2424 34.0779 34.3042V38.9058C34.0526 39.9045 33.1938 40.821 32.1393 40.8463L15.7527 40.84V39.5442C21.2022 39.5442 26.6581 39.5442 32.1077 39.5505C32.4487 39.5505 32.7644 39.2724 32.7771 38.8995C32.8213 37.3762 32.815 35.8528 32.7771 34.3358C32.7581 33.9566 32.4298 33.6532 32.0635 33.6532H18.4743V32.3574C23.0146 32.3448 27.5548 32.3132 32.0951 32.3448Z" fill="#D8E7FF"/>
<path fill-rule="evenodd" clip-rule="evenodd" d="M43.5121 19.4566C41.8387 19.7347 40.1842 20.1519 38.574 20.7145C38.7129 25.9165 41.2956 31.0111 45.3623 34.3737C48.9301 37.3255 53.464 39.0195 58.0864 39.4999C58.32 39.5252 58.5663 39.5821 58.7683 39.4809C59.2356 39.2344 59.0462 38.4254 59.0399 37.7554C59.0399 37.0474 59.0588 36.3395 59.0336 35.6379C59.0083 35.2713 58.4147 35.2713 57.9159 35.1891C51.7464 34.1715 46.0316 29.867 44.1814 23.7864C43.752 22.3832 43.5878 20.9104 43.5815 19.444C43.5626 19.444 43.5373 19.4503 43.5121 19.4566ZM43.8657 18.0977C45.116 18.1356 44.7497 20.4364 45.1665 22.3832C46.4421 28.3247 51.999 32.9642 58.32 33.9313C58.7115 33.9945 59.122 34.0071 59.4693 34.1967C60.8269 34.9236 60.4291 37.2939 60.347 39.1143C60.2902 40.132 59.2925 40.9094 58.2442 40.8146C51.5696 40.1762 45.0023 37.079 41.0177 31.6495C38.6687 28.4511 37.3426 24.5386 37.2731 20.5438C37.2668 20.1203 37.2858 19.7853 37.9362 19.5514C39.7422 18.9067 41.5987 18.4327 43.4931 18.1356C43.6194 18.1229 43.6762 18.0977 43.8657 18.0977Z" fill="#D8E7FF"/>
<path d="M94.1369 45.7323H3.07907V47.0281H94.1369V45.7323Z" fill="#D8E7FF"/>
<path d="M94.1369 48.3301H3.07907V49.6258H94.1369V48.3301Z" fill="#D8E7FF"/>
<path fill-rule="evenodd" clip-rule="evenodd" d="M30.9332 54.101C31.5836 54.1769 31.8046 55.3652 30.8827 55.3968H21.1454C20.817 55.3842 20.7918 55.3083 20.6971 55.2135C20.3308 54.8595 20.5771 54.12 21.1454 54.0947H30.8827C30.9016 54.101 30.9206 54.101 30.9332 54.101Z" fill="#D8E7FF"/>
<path fill-rule="evenodd" clip-rule="evenodd" d="M26.0772 54.2274C26.595 54.3033 26.6581 54.9417 26.6581 55.5232C26.6455 58.5888 26.6455 61.6607 26.6645 64.72C26.6645 64.9222 26.6708 64.9538 26.6834 65.0676C26.7465 65.5606 26.9486 66.041 27.3022 66.3887C27.7506 66.8185 28.3884 67.0081 29.0009 67.0207C29.0009 67.0207 29.3356 67.0713 29.4934 67.2609C29.8281 67.6718 29.4997 68.3544 28.7862 68.3165C26.9676 68.2154 25.3889 66.6921 25.3636 64.7453C25.3447 61.5912 25.3384 58.4434 25.3573 55.2893L25.3636 54.8216C25.4141 54.4613 25.7109 54.2085 26.0772 54.2274Z" fill="#D8E7FF"/>
<path fill-rule="evenodd" clip-rule="evenodd" d="M60.4733 54.0315C60.9911 54.1073 61.0543 54.752 61.0543 55.3272C61.0353 58.4624 61.0416 61.6164 61.0606 64.7136C61.0732 65.3836 61.3005 66.0726 61.8436 66.4961C62.2667 66.8311 62.8097 66.9891 63.3465 67.0081C63.3465 67.0081 63.8264 67.0334 63.9906 67.3936C64.1927 67.8361 63.7948 68.3354 63.1949 68.3038C61.3826 68.2027 59.8103 66.692 59.7724 64.7326C59.7534 61.4521 59.7408 58.159 59.7724 54.8658C59.7597 54.8658 59.8039 53.9936 60.4733 54.0315Z" fill="#D8E7FF"/>
<path fill-rule="evenodd" clip-rule="evenodd" d="M42.6975 54.0504C43.0258 54.0947 43.2721 54.3665 43.291 54.6951V65.9904C43.2721 67.185 42.2491 68.2722 41.0051 68.3165C40.1463 68.3354 39.2812 68.3165 38.4161 68.3101C38.1319 68.3038 38.0814 68.2975 37.9299 68.2849C35.5745 68.0636 33.579 66.0663 33.5601 63.4747C33.5601 60.6367 33.5285 57.7923 33.5601 54.948V54.6888C33.5854 54.2716 33.7685 54.1832 33.939 54.1073C34.3368 53.9303 34.8357 54.1642 34.8546 54.7078C34.8167 57.647 34.8294 60.624 34.8546 63.5379C34.8546 63.5885 34.8546 63.6328 34.8609 63.6833C34.9114 64.701 35.3282 65.6997 36.1618 66.3128C37.4499 67.2546 39.2117 67.0586 40.9735 67.0207C41.504 67.0017 41.9713 66.5719 41.9965 65.9904V54.6951C41.9902 54.6951 42.1607 54.0251 42.6975 54.0504Z" fill="#D8E7FF"/>
<path fill-rule="evenodd" clip-rule="evenodd" d="M50.1677 54.0251C51.5001 54.0378 52.8199 54.5434 53.8176 55.4599C56.8171 58.2158 56.634 63.1524 56.6213 66.2432C56.6213 67.3178 55.6741 68.3101 54.5438 68.3165H52.0369C51.4875 68.2912 51.437 68.0131 51.3991 67.7792C51.3296 67.3999 51.5696 67.0396 52.0369 67.0144C52.8831 67.0144 53.7229 67.0396 54.5691 67.0144C55.712 66.9638 55.3268 64.5682 55.3016 63.2408C55.2195 60.0868 54.5186 56.3891 51.2854 55.4726C50.9065 55.3651 50.5087 55.3146 50.1109 55.3146H48.1597V67.6591C48.1597 67.6591 48.1155 68.0004 47.926 68.1584C47.5598 68.4682 46.8904 68.2912 46.8588 67.6591V54.6698C46.8715 54.3159 47.1493 54.0378 47.5092 54.0188C48.4059 54.0251 49.2837 54.0188 50.1677 54.0251Z" fill="#D8E7FF"/>
<path fill-rule="evenodd" clip-rule="evenodd" d="M67.8299 55.3145C67.5521 55.3209 67.3121 55.5484 67.2995 55.8265C67.2616 59.3851 67.2616 62.9374 67.2995 66.496C67.3121 66.7678 67.5395 67.0017 67.811 67.008C69.7433 67.0333 71.6693 67.0333 73.6016 67.008C73.8731 66.9954 74.1004 66.7678 74.1131 66.496C74.151 62.9374 74.151 59.3851 74.1131 55.8265C74.1004 55.5547 73.8668 55.3209 73.6016 55.3145C71.6819 55.2893 69.7559 55.3145 67.8299 55.3145ZM73.5953 54.0188C74.5551 54.0314 75.4013 54.8784 75.4139 55.8392C75.4328 59.3978 75.4518 62.9627 75.4139 66.5213C75.3886 67.4568 74.5993 68.2975 73.5953 68.3101C71.6567 68.3227 69.7244 68.3354 67.7857 68.3101C66.8512 68.2848 66.0113 67.4884 65.9987 66.4897C65.9797 62.9248 65.9608 59.3662 65.9987 55.8012C66.0239 54.8658 66.8133 54.0251 67.8173 54.0125C69.7433 54.0061 71.6693 54.0061 73.5953 54.0188Z" fill="#D8E7FF"/>
<path fill-rule="evenodd" clip-rule="evenodd" d="M4.29149 72.8106H92.9182V4.19196H4.29149V72.8106ZM93.0003 2.89619C93.4108 2.90883 93.8907 3.30072 93.8907 3.30072C93.9538 3.37025 93.897 3.26912 94.0233 3.4777C94.0233 3.4777 94.2064 3.76846 94.219 4.13507V72.8738C94.2064 73.2341 94.0107 73.5564 94.0107 73.5564C93.8465 73.784 93.796 73.8093 93.7139 73.8725C93.5118 74.0242 93.2592 74.1063 93.0003 74.119C63.416 74.5046 33.8253 74.119 4.24097 74.119C3.68528 74.1127 3.16748 73.7145 3.03487 73.1709C3.03487 73.1709 3.00329 73.0255 2.99698 72.8927V4.12243C3.00329 3.85695 2.97172 3.96441 3.07907 3.69261C3.25588 3.23751 3.71054 2.91515 4.2094 2.89619C33.8064 2.53591 63.4033 2.52326 93.0003 2.89619Z" fill="#D8E7FF"/>
<path fill-rule="evenodd" clip-rule="evenodd" d="M4.01457 1.44194C2.70742 1.44826 1.52658 2.60497 1.50763 3.91338C1.22347 26.9717 1.22347 50.0299 1.50763 73.0882C1.52658 74.3713 2.63165 75.5344 3.97668 75.5597C33.7252 75.743 63.48 75.743 93.2285 75.5597C94.5167 75.5344 95.6471 74.4409 95.6976 73.1135V3.90706C95.666 2.62393 94.5673 1.46091 93.2285 1.43562C63.4927 1.25232 33.7568 1.44194 4.01457 1.44194ZM93.2475 0.139858C95.1672 0.177783 96.8974 1.80223 96.9921 3.74904C96.9921 3.7996 96.9984 3.84385 96.9984 3.89441V73.1009C96.9479 75.0666 95.2682 76.8175 93.2475 76.8554C63.4863 77.0387 33.7252 77.0387 3.96405 76.8554C2.00018 76.8175 0.23838 75.073 0.213121 73.1009C-0.0710403 50.0363 -0.0710403 26.959 0.213121 3.89441C0.23838 1.95393 1.91809 0.177783 3.96405 0.139858C33.7252 -0.0434455 63.4863 -0.0497663 93.2475 0.139858Z" fill="#D8E7FF"/>
<path d="M33.5538 35.9287H17.4008V37.2245H33.5538V35.9287Z" fill="#D8E7FF"/>
<path d="M68.9855 19.6147H67.691V40.2458H68.9855V19.6147Z" fill="#D8E7FF"/>
<path d="M83.5914 10.2852H82.2969V26.1883H83.5914V10.2852Z" fill="#D8E7FF"/>
<path fill-rule="evenodd" clip-rule="evenodd" d="M48.6522 10.0956C52.22 10.1146 55.7815 10.576 59.2293 11.4925L60.0123 11.7074L59.6714 12.9589L58.8883 12.744C52.1063 10.9363 44.9076 10.9299 38.1067 12.7314L37.3236 12.94L36.989 11.6884L37.772 11.4798C41.3335 10.538 44.9455 10.083 48.6522 10.0956Z" fill="#D8E7FF"/>
<path fill-rule="evenodd" clip-rule="evenodd" d="M65.1714 13.61C75.5528 18.3127 83.9261 28.1099 84.0145 40.012V40.7958H82.72V40.0183C82.6821 34.8795 80.9582 29.7912 77.9903 25.5689C74.6624 20.8347 69.9012 17.1812 64.641 14.7983L63.9211 14.4759L64.4516 13.2939C64.6915 13.3951 64.9315 13.5025 65.1714 13.61Z" fill="#D8E7FF"/>
<path fill-rule="evenodd" clip-rule="evenodd" d="M41.7313 19.7475C41.8071 24.6651 44.1246 29.4626 48.1218 32.6419C51.3296 35.1955 55.3584 36.6556 59.4693 36.8389L60.227 36.8705L60.1765 38.1663L59.4124 38.1347C52.5168 37.8313 45.7032 34.0262 42.4322 27.8191C41.1377 25.3604 40.4557 22.5918 40.4305 19.8233V18.9827H41.725V19.7475H41.7313Z" fill="#D8E7FF"/>
<path fill-rule="evenodd" clip-rule="evenodd" d="M31.3563 10.8478C24.7511 10.8478 18.1522 10.6392 11.5534 10.8478C11.1366 10.8667 10.7641 11.2333 10.7577 11.6568C10.7135 13.2876 10.7072 14.912 10.7577 16.5428C10.7767 16.8525 11.0545 17.1117 11.3639 17.118H20.9118V18.4138C17.7228 18.4138 14.5276 18.4327 11.3387 18.4138C10.3789 18.3948 9.50743 17.5857 9.46323 16.606C9.46323 16.5807 9.46323 16.5618 9.46323 16.5365V11.6505C9.4948 10.538 10.4673 9.55832 11.5913 9.552H31.3689V10.8478H31.3563Z" fill="#D8E7FF"/>
<path d="M26.1656 13.2687H9.52637V14.5644H26.1656V13.2687Z" fill="#D8E7FF"/>
<path fill-rule="evenodd" clip-rule="evenodd" d="M33.2759 14.3685L32.5497 14.6845C24.2712 18.3758 17.0851 25.3224 14.9002 34.4686C14.4645 36.2827 14.2498 38.1473 14.2308 40.0183V40.7957L12.9363 40.7894V40.0056C13.0437 28.881 20.7476 18.793 31.2363 13.8565C31.5015 13.7301 31.7604 13.61 32.0256 13.4962L32.7518 13.1738C32.9286 13.5784 33.0991 13.9766 33.2759 14.3685Z" fill="#D8E7FF"/>
<path fill-rule="evenodd" clip-rule="evenodd" d="M18.6511 54.0568C19.0994 54.1136 19.0994 54.2527 19.1815 54.4297C19.371 54.8279 19.1184 55.3272 18.5943 55.3525C16.9777 55.3525 15.3611 55.3399 13.7446 55.3525C12.4564 55.3778 11.3071 56.5156 11.2819 57.8176C11.2755 58.6077 11.2503 59.3915 11.2819 60.1816C11.2945 60.3523 11.4397 60.4977 11.6102 60.5103C13.6877 60.5862 15.7653 60.5103 17.8428 60.5103C18.6258 60.5229 19.3394 61.1677 19.3962 61.9578C19.3962 61.9767 19.3962 62.0147 19.4025 62.0336C19.4278 63.8982 19.693 65.9083 18.6069 67.1724C17.9881 67.8867 17.0598 68.3102 16.1126 68.3165H10.783C10.4609 68.3038 10.4167 68.2217 10.322 68.1269C9.95577 67.7603 10.1768 67.046 10.783 67.0207C12.57 67.0207 14.3508 67.0334 16.1379 67.0207C17.1608 67.0018 18.0891 66.1421 18.1144 65.0423C18.1207 64.0499 18.1522 63.0513 18.1144 62.0589C18.108 61.9262 17.9881 61.8124 17.8554 61.8061C15.7842 61.7808 13.7067 61.8061 11.6355 61.8061C10.7893 61.7934 10.0315 61.1108 9.99365 60.2006C9.97471 58.5382 9.82947 56.781 10.764 55.5548C11.465 54.6256 12.6016 54.0631 13.7825 54.0568H18.6006C18.6132 54.0568 18.6322 54.0568 18.6511 54.0568Z" fill="#D8E7FF"/>
<path fill-rule="evenodd" clip-rule="evenodd" d="M87.1908 54.0568C87.4434 54.0884 87.5255 54.1579 87.6328 54.2843C87.9422 54.6509 87.7654 55.3209 87.134 55.3525C85.5174 55.3525 83.9008 55.3399 82.2843 55.3525C80.9961 55.3778 79.8468 56.5156 79.8215 57.8176C79.8152 58.6077 79.79 59.3915 79.8215 60.1816C79.8342 60.3586 79.9857 60.504 80.1562 60.5103C82.2274 60.5356 84.305 60.5103 86.3825 60.5103C87.1655 60.5229 87.8791 61.1677 87.9359 61.9578C87.9359 61.9767 87.9359 62.0147 87.9422 62.0336C87.9675 64.1005 88.2074 66.3254 86.7677 67.5454C86.1804 68.0384 85.4164 68.3165 84.646 68.3228H79.3164C78.9501 68.3038 78.9185 68.209 78.8175 68.0889C78.5018 67.7097 78.7291 67.046 79.3164 67.0207C81.1034 67.0207 82.8842 67.0334 84.6712 67.0207C85.7005 67.0018 86.6351 66.0979 86.6477 65.0486C86.6603 64.0563 86.6919 63.0576 86.6477 62.0652C86.6414 61.9325 86.5277 61.8187 86.3888 61.8124C84.3176 61.7871 82.2401 61.8124 80.1688 61.8124C79.3164 61.7997 78.5649 61.0918 78.527 60.2069C78.5018 58.2411 78.4134 56.1489 79.9162 54.9164C80.5856 54.3665 81.4444 54.0631 82.3158 54.0568H87.134C87.1529 54.0568 87.1718 54.0568 87.1908 54.0568Z" fill="#D8E7FF"/>
<path fill-rule="evenodd" clip-rule="evenodd" d="M48.4943 20.4238C50.8245 20.4365 53.1546 20.7146 55.4089 21.2708L55.0995 22.5287C54.9985 22.5034 54.8974 22.4781 54.7964 22.4591C52.6936 21.9661 50.5403 21.7259 48.3807 21.7259V20.4301C48.4186 20.4238 48.4565 20.4238 48.4943 20.4238Z" fill="#D8E7FF"/>
<path fill-rule="evenodd" clip-rule="evenodd" d="M31.3121 9.54565C32.4234 9.56462 33.4085 10.5254 33.4275 11.6821L32.133 11.701C32.133 11.6758 32.133 11.6505 32.133 11.6252C32.1014 11.2017 31.7225 10.8477 31.2994 10.8414L31.2931 9.54565C31.2931 9.54565 31.2994 9.54565 31.3121 9.54565Z" fill="#D8E7FF"/>
<path fill-rule="evenodd" clip-rule="evenodd" d="M48.3554 8.52165C45.2549 8.54062 42.1544 8.86298 39.117 9.52666C38.574 9.64676 38.0751 10.026 38.0625 10.5443C38.0372 11.8401 38.0625 13.1358 38.0625 14.4379V14.6971C44.6361 12.725 51.7464 12.6871 58.3074 14.5075C58.4589 14.5517 58.6168 14.5959 58.7683 14.6402C58.9262 14.6844 59.0525 14.6023 59.0525 14.6023C59.0525 13.1611 59.0841 11.7137 59.0525 10.2852C59.0525 9.58355 57.8022 9.50138 56.7666 9.29911C53.9944 8.76184 51.1844 8.51533 48.3554 8.52165ZM48.6838 7.21957C52.1127 7.23853 55.5479 7.63042 58.882 8.4142C59.7029 8.61647 60.3281 9.39392 60.347 10.2409C60.3723 11.701 60.3596 13.1611 60.347 14.6149C60.3281 15.4745 59.4124 16.1698 58.5663 15.9296C52.0053 13.9639 44.8066 13.9639 38.1509 16.0181C37.4626 16.233 36.7932 16.1256 36.7616 15.5314C36.7364 13.8691 36.749 12.2067 36.7616 10.538C36.7806 9.41289 37.6899 8.50901 38.8392 8.25618C42.066 7.55457 45.3433 7.21325 48.6838 7.21957ZM32.0572 11.7326C21.5369 16.1066 12.5258 24.8925 10.8777 37.1422C10.8525 37.3319 10.8272 37.5278 10.8083 37.7238C10.7893 37.8691 10.7767 38.0145 10.764 38.1599C10.7451 38.3306 10.7325 38.5012 10.7198 38.6719C10.6883 39.0891 10.884 39.5441 11.3324 39.5505L16.5609 39.5378C17.0661 30.4928 22.9261 22.2504 31.0405 17.6742C31.5457 17.3897 32.1267 17.2001 32.133 16.5554V11.7073C32.1014 11.7073 32.0761 11.72 32.0572 11.7326ZM81.7538 39.5315C82.4421 39.5315 83.1367 39.5315 83.8251 39.5378C84.507 39.5378 85.1953 39.5694 85.8773 39.5378C86.313 39.5125 86.313 38.7793 86.2878 38.4949C86.2751 38.3558 86.2625 38.2168 86.2499 38.084C85.1259 26.8773 76.5631 16.8714 65.9797 12.1561C65.7524 12.055 65.5251 11.8906 65.3041 11.8906C65.1272 11.897 64.9883 12.0487 64.982 12.232V17.1179C65.0767 17.1685 65.1651 17.2128 65.2598 17.2633C73.0901 21.4477 79.3542 28.8746 80.3646 38.2168C80.5098 38.9057 81.0276 39.5125 81.7538 39.5315ZM79.0638 38.3179H79.0574C78.0345 29.6837 71.9219 21.966 63.6875 17.9144C63.6875 16.0055 63.6749 14.1029 63.6875 12.194C63.7064 11.3407 64.4768 10.5886 65.3293 10.5949C66.0302 10.6075 66.6807 11.0373 67.3563 11.3597C77.8071 16.3026 86.2941 26.0176 87.5255 37.8123C87.557 38.103 87.5823 38.3874 87.6012 38.6782C87.6833 39.7464 86.9571 40.821 85.871 40.8399C84.4502 40.8462 83.0294 40.8399 81.6086 40.8336L81.6149 40.821C80.3583 40.7261 79.2848 39.6958 79.0638 38.3179ZM32.3161 10.2283L32.4929 10.4053C32.5624 10.6644 32.455 10.8098 32.9918 11.4166C33.1244 11.6568 33.2759 11.5999 33.4275 11.6568V16.5554C33.4149 18.085 31.5583 18.7993 30.0112 19.8043C22.9135 24.4185 17.8428 32.2183 17.8239 40.821C15.6579 40.8273 13.4857 40.8462 11.3197 40.8399C10.202 40.821 9.33693 39.7401 9.42533 38.5581C10.4294 26.0366 20.0656 15.0194 32.3161 10.2283Z" fill="#D8E7FF"/>
</svg>
