<svg width="105" height="89" viewBox="0 0 105 89" fill="none" xmlns="http://www.w3.org/2000/svg">
<g filter="url(#filter0_f)">
<path d="M98.1369 51.7323H7.07907V53.0281H98.1369V51.7323Z" fill="#6AB4C5"/>
<path d="M98.1369 54.3301H7.07907V55.6258H98.1369V54.3301Z" fill="#6AB4C5"/>
<path fill-rule="evenodd" clip-rule="evenodd" d="M8.29149 78.8106H96.9182V10.192H8.29149V78.8106ZM97.0003 8.89619C97.4108 8.90883 97.8907 9.30072 97.8907 9.30072C97.9538 9.37025 97.897 9.26912 98.0233 9.4777C98.0233 9.4777 98.2064 9.76846 98.219 10.1351V78.8738C98.2064 79.2341 98.0107 79.5564 98.0107 79.5564C97.8465 79.784 97.796 79.8093 97.7139 79.8725C97.5118 80.0242 97.2592 80.1063 97.0003 80.119C67.416 80.5046 37.8253 80.119 8.24097 80.119C7.68528 80.1127 7.16748 79.7145 7.03487 79.1709C7.03487 79.1709 7.00329 79.0255 6.99698 78.8927V10.1224C7.00329 9.85695 6.97172 9.96441 7.07907 9.69261C7.25588 9.23751 7.71054 8.91515 8.2094 8.89619C37.8064 8.53591 67.4033 8.52326 97.0003 8.89619Z" fill="#6AB4C5"/>
<path fill-rule="evenodd" clip-rule="evenodd" d="M8.01457 7.44194C6.70742 7.44826 5.52658 8.60497 5.50763 9.91338C5.22347 32.9717 5.22347 56.0299 5.50763 79.0882C5.52658 80.3713 6.63165 81.5344 7.97668 81.5597C37.7252 81.743 67.48 81.743 97.2285 81.5597C98.5167 81.5344 99.6471 80.4409 99.6976 79.1135V9.90706C99.666 8.62393 98.5673 7.46091 97.2285 7.43562C67.4927 7.25232 37.7568 7.44194 8.01457 7.44194ZM97.2475 6.13986C99.1672 6.17778 100.897 7.80223 100.992 9.74904C100.992 9.7996 100.998 9.84385 100.998 9.89441V79.1009C100.948 81.0666 99.2682 82.8175 97.2475 82.8554C67.4863 83.0387 37.7252 83.0387 7.96405 82.8554C6.00018 82.8175 4.23838 81.073 4.21312 79.1009C3.92896 56.0363 3.92896 32.959 4.21312 9.89441C4.23838 7.95393 5.91809 6.17778 7.96405 6.13986C37.7252 5.95655 67.4863 5.95023 97.2475 6.13986Z" fill="#6AB4C5"/>
<path fill-rule="evenodd" clip-rule="evenodd" d="M77.0206 44.4002C77.008 45.6643 75.9092 46.8147 74.5831 46.84C73.175 46.8463 71.7605 46.8463 70.3523 46.84C68.9757 46.8147 67.738 45.6201 67.6875 44.2042V44.141V22.9727H68.982C68.982 30.0393 68.9062 37.1123 68.982 44.1789C69.0073 44.8932 69.6387 45.5316 70.3649 45.5442C71.7668 45.5506 73.175 45.5695 74.5768 45.5442C75.1767 45.5253 75.7135 45.0196 75.7198 44.3622V29.2808H77.0143C77.0206 34.3185 77.0838 39.3625 77.0206 44.4002Z" fill="#6AB4C5"/>
<path fill-rule="evenodd" clip-rule="evenodd" d="M89.5111 15.5647C90.6161 15.5836 91.5949 16.5254 91.6202 17.6758V44.8553H90.3257C90.3257 35.7912 90.6793 26.7272 90.3257 17.6695C90.3067 17.2397 89.9341 16.8731 89.5111 16.8604C87.7619 16.8288 86.0127 16.8035 84.2699 16.8604C83.8468 16.8794 83.4805 17.2397 83.4553 17.6758C83.4553 17.6821 83.4553 17.6884 83.4553 17.6948V26.5502H82.1608C82.1608 23.5858 82.1039 20.6213 82.1608 17.6568C82.1608 17.5178 82.1671 17.5051 82.1734 17.4419C82.2997 16.4369 83.2216 15.5963 84.2509 15.5647C86.0001 15.5331 87.7556 15.552 89.5111 15.5647Z" fill="#6AB4C5"/>
<path fill-rule="evenodd" clip-rule="evenodd" d="M52.4817 25.0838C52.9364 27.8333 55.6517 29.8939 58.4112 30.3616L58.4554 30.3679C58.4554 29.4388 58.4554 28.5096 58.4554 27.5805C58.4554 26.8093 58.7775 25.7095 57.906 25.5515C56.1253 25.2607 54.3382 25.0901 52.5196 25.0711C52.5196 25.0774 52.4754 25.0585 52.4817 25.0838ZM52.147 23.7753C54.1425 23.7817 56.1379 23.9397 58.1018 24.2747C59.0048 24.4264 59.7373 25.2607 59.7499 26.1899C59.7562 27.7891 59.7562 29.3756 59.7499 30.9684C59.7499 31.4362 59.3458 31.7775 58.7269 31.7143C58.4807 31.689 58.2091 31.6511 57.9629 31.6068C54.6161 30.9684 51.364 28.4275 51.124 24.6539C51.0925 24.1483 51.4335 23.769 52.147 23.7753Z" fill="#6AB4C5"/>
<path fill-rule="evenodd" clip-rule="evenodd" d="M36.0951 38.3448C37.1244 38.3638 38.0463 39.2424 38.0779 40.3042V44.9058C38.0526 45.9045 37.1938 46.821 36.1393 46.8463L19.7527 46.84V45.5442C25.2022 45.5442 30.6581 45.5442 36.1077 45.5505C36.4487 45.5505 36.7644 45.2724 36.7771 44.8995C36.8213 43.3762 36.815 41.8528 36.7771 40.3358C36.7581 39.9566 36.4298 39.6532 36.0635 39.6532H22.4743V38.3574C27.0146 38.3448 31.5548 38.3132 36.0951 38.3448Z" fill="#6AB4C5"/>
<path d="M37.5538 41.9287H21.4008V43.2245H37.5538V41.9287Z" fill="#6AB4C5"/>
<path d="M72.9855 25.6147H71.691V46.2458H72.9855V25.6147Z" fill="#6AB4C5"/>
<path d="M87.5914 16.2852H86.2969V32.1883H87.5914V16.2852Z" fill="#6AB4C5"/>
<path fill-rule="evenodd" clip-rule="evenodd" d="M52.6522 16.0956C56.22 16.1146 59.7815 16.576 63.2293 17.4925L64.0123 17.7074L63.6714 18.9589L62.8883 18.744C56.1063 16.9363 48.9076 16.9299 42.1067 18.7314L41.3236 18.94L40.989 17.6884L41.772 17.4798C45.3335 16.538 48.9455 16.083 52.6522 16.0956Z" fill="#6AB4C5"/>
<path fill-rule="evenodd" clip-rule="evenodd" d="M69.1714 19.61C79.5528 24.3127 87.9261 34.1099 88.0145 46.012V46.7958H86.72V46.0183C86.6821 40.8795 84.9582 35.7912 81.9903 31.5689C78.6624 26.8347 73.9012 23.1812 68.641 20.7983L67.9211 20.4759L68.4516 19.2939C68.6915 19.3951 68.9315 19.5025 69.1714 19.61Z" fill="#6AB4C5"/>
<path fill-rule="evenodd" clip-rule="evenodd" d="M45.7313 25.7475C45.8071 30.6651 48.1246 35.4626 52.1218 38.6419C55.3296 41.1955 59.3584 42.6556 63.4693 42.8389L64.227 42.8705L64.1765 44.1663L63.4124 44.1347C56.5168 43.8313 49.7032 40.0262 46.4322 33.8191C45.1377 31.3604 44.4557 28.5918 44.4305 25.8233V24.9827H45.725V25.7475H45.7313Z" fill="#6AB4C5"/>
<path fill-rule="evenodd" clip-rule="evenodd" d="M35.3563 16.8478C28.7511 16.8478 22.1522 16.6392 15.5534 16.8478C15.1366 16.8667 14.7641 17.2333 14.7577 17.6568C14.7135 19.2876 14.7072 20.912 14.7577 22.5428C14.7767 22.8525 15.0545 23.1117 15.3639 23.118H24.9118V24.4138C21.7228 24.4138 18.5276 24.4327 15.3387 24.4138C14.3789 24.3948 13.5074 23.5857 13.4632 22.606C13.4632 22.5807 13.4632 22.5618 13.4632 22.5365V17.6505C13.4948 16.538 14.4673 15.5583 15.5913 15.552H35.3689V16.8478H35.3563Z" fill="#6AB4C5"/>
<path d="M30.1656 19.2687H13.5264V20.5644H30.1656V19.2687Z" fill="#6AB4C5"/>
<path fill-rule="evenodd" clip-rule="evenodd" d="M37.2759 20.3685L36.5497 20.6845C28.2712 24.3758 21.0851 31.3224 18.9002 40.4686C18.4645 42.2827 18.2498 44.1473 18.2308 46.0183V46.7957L16.9363 46.7894V46.0056C17.0437 34.881 24.7476 24.793 35.2363 19.8565C35.5015 19.7301 35.7604 19.61 36.0256 19.4962L36.7518 19.1738C36.9286 19.5784 37.0991 19.9766 37.2759 20.3685Z" fill="#6AB4C5"/>
<path fill-rule="evenodd" clip-rule="evenodd" d="M52.4943 26.4238C54.8245 26.4365 57.1546 26.7146 59.4089 27.2708L59.0995 28.5287C58.9985 28.5034 58.8974 28.4781 58.7964 28.4591C56.6936 27.9661 54.5403 27.7259 52.3807 27.7259V26.4301C52.4186 26.4238 52.4565 26.4238 52.4943 26.4238Z" fill="#6AB4C5"/>
<path fill-rule="evenodd" clip-rule="evenodd" d="M35.3121 15.5457C36.4234 15.5646 37.4085 16.5254 37.4275 17.6821L36.133 17.701C36.133 17.6758 36.133 17.6505 36.133 17.6252C36.1014 17.2017 35.7225 16.8477 35.2994 16.8414L35.2931 15.5457C35.2931 15.5457 35.2994 15.5457 35.3121 15.5457Z" fill="#6AB4C5"/>
<path fill-rule="evenodd" clip-rule="evenodd" d="M52.3554 14.5217C49.2549 14.5406 46.1544 14.863 43.117 15.5267C42.574 15.6468 42.0751 16.026 42.0625 16.5443C42.0372 17.8401 42.0625 19.1358 42.0625 20.4379V20.6971C48.6361 18.725 55.7464 18.6871 62.3074 20.5075C62.4589 20.5517 62.6168 20.5959 62.7683 20.6402C62.9262 20.6844 63.0525 20.6023 63.0525 20.6023C63.0525 19.1611 63.0841 17.7137 63.0525 16.2852C63.0525 15.5835 61.8022 15.5014 60.7666 15.2991C57.9944 14.7618 55.1844 14.5153 52.3554 14.5217ZM52.6838 13.2196C56.1127 13.2385 59.5479 13.6304 62.882 14.4142C63.7029 14.6165 64.3281 15.3939 64.347 16.2409C64.3723 17.701 64.3596 19.1611 64.347 20.6149C64.3281 21.4745 63.4124 22.1698 62.5663 21.9296C56.0053 19.9639 48.8066 19.9639 42.1509 22.0181C41.4626 22.233 40.7932 22.1256 40.7616 21.5314C40.7364 19.8691 40.749 18.2067 40.7616 16.538C40.7806 15.4129 41.6899 14.509 42.8392 14.2562C46.066 13.5546 49.3433 13.2132 52.6838 13.2196ZM36.0572 17.7326C25.5369 22.1066 16.5258 30.8925 14.8777 43.1422C14.8525 43.3319 14.8272 43.5278 14.8083 43.7238C14.7893 43.8691 14.7767 44.0145 14.764 44.1599C14.7451 44.3306 14.7325 44.5012 14.7198 44.6719C14.6883 45.0891 14.884 45.5441 15.3324 45.5505L20.5609 45.5378C21.0661 36.4928 26.9261 28.2504 35.0405 23.6742C35.5457 23.3897 36.1267 23.2001 36.133 22.5554V17.7073C36.1014 17.7073 36.0761 17.72 36.0572 17.7326ZM85.7538 45.5315C86.4421 45.5315 87.1367 45.5315 87.8251 45.5378C88.507 45.5378 89.1953 45.5694 89.8773 45.5378C90.313 45.5125 90.313 44.7793 90.2878 44.4949C90.2751 44.3558 90.2625 44.2168 90.2499 44.084C89.1259 32.8773 80.5631 22.8714 69.9797 18.1561C69.7524 18.055 69.5251 17.8906 69.3041 17.8906C69.1272 17.897 68.9883 18.0487 68.982 18.232V23.1179C69.0767 23.1685 69.1651 23.2128 69.2598 23.2633C77.0901 27.4477 83.3542 34.8746 84.3646 44.2168C84.5098 44.9057 85.0276 45.5125 85.7538 45.5315ZM83.0638 44.3179H83.0574C82.0345 35.6837 75.9219 27.966 67.6875 23.9144C67.6875 22.0055 67.6749 20.1029 67.6875 18.194C67.7064 17.3407 68.4768 16.5886 69.3293 16.5949C70.0302 16.6075 70.6807 17.0373 71.3563 17.3597C81.8071 22.3026 90.2941 32.0176 91.5255 43.8123C91.557 44.103 91.5823 44.3874 91.6012 44.6782C91.6833 45.7464 90.9571 46.821 89.871 46.8399C88.4502 46.8462 87.0294 46.8399 85.6086 46.8336L85.6149 46.821C84.3583 46.7261 83.2848 45.6958 83.0638 44.3179ZM36.3161 16.2283L36.4929 16.4053C36.5624 16.6644 36.455 16.8098 36.9918 17.4166C37.1244 17.6568 37.2759 17.5999 37.4275 17.6568V22.5554C37.4149 24.085 35.5583 24.7993 34.0112 25.8043C26.9135 30.4185 21.8428 38.2183 21.8239 46.821C19.6579 46.8273 17.4857 46.8462 15.3197 46.8399C14.202 46.821 13.3369 45.7401 13.4253 44.5581C14.4294 32.0366 24.0656 21.0194 36.3161 16.2283Z" fill="#6AB4C5"/>
<path fill-rule="evenodd" clip-rule="evenodd" d="M47.5121 25.4566C45.8387 25.7347 44.1842 26.1519 42.574 26.7145C42.7129 31.9165 45.2956 37.0111 49.3623 40.3737C52.9301 43.3255 57.464 45.0195 62.0864 45.4999C62.32 45.5252 62.5663 45.5821 62.7683 45.4809C63.2356 45.2344 63.0462 44.4254 63.0399 43.7554C63.0399 43.0474 63.0588 42.3395 63.0336 41.6379C63.0083 41.2713 62.4147 41.2713 61.9159 41.1891C55.7464 40.1715 50.0316 35.867 48.1814 29.7864C47.752 28.3832 47.5878 26.9104 47.5815 25.444C47.5626 25.444 47.5373 25.4503 47.5121 25.4566ZM47.8657 24.0977C49.116 24.1356 48.7497 26.4364 49.1665 28.3832C50.4421 34.3247 55.999 38.9642 62.32 39.9313C62.7115 39.9945 63.122 40.0071 63.4693 40.1967C64.8269 40.9236 64.4291 43.2939 64.347 45.1143C64.2902 46.132 63.2925 46.9094 62.2442 46.8146C55.5696 46.1762 49.0023 43.079 45.0177 37.6495C42.6687 34.4511 41.3426 30.5386 41.2731 26.5438C41.2668 26.1203 41.2858 25.7853 41.9362 25.5514C43.7422 24.9067 45.5987 24.4327 47.4931 24.1356C47.6194 24.1229 47.6762 24.0977 47.8657 24.0977Z" fill="#6AB4C5"/>
<path fill-rule="evenodd" clip-rule="evenodd" d="M34.9332 60.101C35.5836 60.1769 35.8046 61.3652 34.8827 61.3968H25.1454C24.817 61.3842 24.7918 61.3083 24.6971 61.2135C24.3308 60.8595 24.5771 60.12 25.1454 60.0947H34.8827C34.9016 60.101 34.9206 60.101 34.9332 60.101Z" fill="#6AB4C5"/>
<path fill-rule="evenodd" clip-rule="evenodd" d="M30.0772 60.2274C30.595 60.3033 30.6581 60.9417 30.6581 61.5232C30.6455 64.5888 30.6455 67.6607 30.6645 70.72C30.6645 70.9222 30.6708 70.9538 30.6834 71.0676C30.7465 71.5606 30.9486 72.041 31.3022 72.3887C31.7506 72.8185 32.3884 73.0081 33.0009 73.0207C33.0009 73.0207 33.3356 73.0713 33.4934 73.2609C33.8281 73.6718 33.4997 74.3544 32.7862 74.3165C30.9676 74.2154 29.3889 72.6921 29.3636 70.7453C29.3447 67.5912 29.3384 64.4434 29.3573 61.2893L29.3636 60.8216C29.4141 60.4613 29.7109 60.2085 30.0772 60.2274Z" fill="#6AB4C5"/>
<path fill-rule="evenodd" clip-rule="evenodd" d="M64.4733 60.0315C64.9911 60.1073 65.0543 60.752 65.0543 61.3272C65.0353 64.4624 65.0416 67.6164 65.0606 70.7136C65.0732 71.3836 65.3005 72.0726 65.8436 72.4961C66.2667 72.8311 66.8097 72.9891 67.3465 73.0081C67.3465 73.0081 67.8264 73.0334 67.9906 73.3936C68.1927 73.8361 67.7948 74.3354 67.1949 74.3038C65.3826 74.2027 63.8103 72.692 63.7724 70.7326C63.7534 67.4521 63.7408 64.159 63.7724 60.8658C63.7597 60.8658 63.8039 59.9936 64.4733 60.0315Z" fill="#6AB4C5"/>
<path fill-rule="evenodd" clip-rule="evenodd" d="M46.6975 60.0504C47.0258 60.0947 47.2721 60.3665 47.291 60.6951V71.9904C47.2721 73.185 46.2491 74.2722 45.0051 74.3165C44.1463 74.3354 43.2812 74.3165 42.4161 74.3101C42.1319 74.3038 42.0814 74.2975 41.9299 74.2849C39.5745 74.0636 37.579 72.0663 37.5601 69.4747C37.5601 66.6367 37.5285 63.7923 37.5601 60.948V60.6888C37.5854 60.2716 37.7685 60.1832 37.939 60.1073C38.3368 59.9303 38.8357 60.1642 38.8546 60.7078C38.8167 63.647 38.8294 66.624 38.8546 69.5379C38.8546 69.5885 38.8546 69.6328 38.8609 69.6833C38.9114 70.701 39.3282 71.6997 40.1618 72.3128C41.4499 73.2546 43.2117 73.0586 44.9735 73.0207C45.504 73.0017 45.9713 72.5719 45.9965 71.9904V60.6951C45.9902 60.6951 46.1607 60.0251 46.6975 60.0504Z" fill="#6AB4C5"/>
<path fill-rule="evenodd" clip-rule="evenodd" d="M54.1677 60.0251C55.5001 60.0378 56.8199 60.5434 57.8176 61.4599C60.8171 64.2158 60.634 69.1524 60.6213 72.2432C60.6213 73.3178 59.6741 74.3101 58.5438 74.3165H56.0369C55.4875 74.2912 55.437 74.0131 55.3991 73.7792C55.3296 73.3999 55.5696 73.0396 56.0369 73.0144C56.8831 73.0144 57.7229 73.0396 58.5691 73.0144C59.712 72.9638 59.3268 70.5682 59.3016 69.2408C59.2195 66.0868 58.5186 62.3891 55.2854 61.4726C54.9065 61.3651 54.5087 61.3146 54.1109 61.3146H52.1597V73.6591C52.1597 73.6591 52.1155 74.0004 51.926 74.1584C51.5598 74.4682 50.8904 74.2912 50.8588 73.6591V60.6698C50.8715 60.3159 51.1493 60.0378 51.5092 60.0188C52.4059 60.0251 53.2837 60.0188 54.1677 60.0251Z" fill="#6AB4C5"/>
<path fill-rule="evenodd" clip-rule="evenodd" d="M71.8299 61.3145C71.5521 61.3209 71.3121 61.5484 71.2995 61.8265C71.2616 65.3851 71.2616 68.9374 71.2995 72.496C71.3121 72.7678 71.5395 73.0017 71.811 73.008C73.7433 73.0333 75.6693 73.0333 77.6016 73.008C77.8731 72.9954 78.1004 72.7678 78.1131 72.496C78.151 68.9374 78.151 65.3851 78.1131 61.8265C78.1004 61.5547 77.8668 61.3209 77.6016 61.3145C75.6819 61.2893 73.7559 61.3145 71.8299 61.3145ZM77.5953 60.0188C78.5551 60.0314 79.4013 60.8784 79.4139 61.8392C79.4328 65.3978 79.4518 68.9627 79.4139 72.5213C79.3886 73.4568 78.5993 74.2975 77.5953 74.3101C75.6567 74.3227 73.7244 74.3354 71.7857 74.3101C70.8512 74.2848 70.0113 73.4884 69.9987 72.4897C69.9797 68.9248 69.9608 65.3662 69.9987 61.8012C70.0239 60.8658 70.8133 60.0251 71.8173 60.0125C73.7433 60.0061 75.6693 60.0061 77.5953 60.0188Z" fill="#6AB4C5"/>
<path fill-rule="evenodd" clip-rule="evenodd" d="M22.6511 60.0568C23.0994 60.1136 23.0994 60.2527 23.1815 60.4297C23.371 60.8279 23.1184 61.3272 22.5943 61.3525C20.9777 61.3525 19.3611 61.3399 17.7446 61.3525C16.4564 61.3778 15.3071 62.5156 15.2819 63.8176C15.2755 64.6077 15.2503 65.3915 15.2819 66.1816C15.2945 66.3523 15.4397 66.4977 15.6102 66.5103C17.6877 66.5862 19.7653 66.5103 21.8428 66.5103C22.6258 66.5229 23.3394 67.1677 23.3962 67.9578C23.3962 67.9767 23.3962 68.0147 23.4025 68.0336C23.4278 69.8982 23.693 71.9083 22.6069 73.1724C21.9881 73.8867 21.0598 74.3102 20.1126 74.3165H14.783C14.4609 74.3038 14.4167 74.2217 14.322 74.1269C13.9558 73.7603 14.1768 73.046 14.783 73.0207C16.57 73.0207 18.3508 73.0334 20.1379 73.0207C21.1608 73.0018 22.0891 72.1421 22.1144 71.0423C22.1207 70.0499 22.1522 69.0513 22.1144 68.0589C22.108 67.9262 21.9881 67.8124 21.8554 67.8061C19.7842 67.7808 17.7067 67.8061 15.6355 67.8061C14.7893 67.7934 14.0315 67.1108 13.9937 66.2006C13.9747 64.5382 13.8295 62.781 14.764 61.5548C15.465 60.6256 16.6016 60.0631 17.7825 60.0568H22.6006C22.6132 60.0568 22.6322 60.0568 22.6511 60.0568Z" fill="#6AB4C5"/>
<path fill-rule="evenodd" clip-rule="evenodd" d="M91.1908 60.0568C91.4434 60.0884 91.5255 60.1579 91.6328 60.2843C91.9422 60.6509 91.7654 61.3209 91.134 61.3525C89.5174 61.3525 87.9008 61.3399 86.2843 61.3525C84.9961 61.3778 83.8468 62.5156 83.8215 63.8176C83.8152 64.6077 83.79 65.3915 83.8215 66.1816C83.8342 66.3586 83.9857 66.504 84.1562 66.5103C86.2274 66.5356 88.305 66.5103 90.3825 66.5103C91.1655 66.5229 91.8791 67.1677 91.9359 67.9578C91.9359 67.9767 91.9359 68.0147 91.9422 68.0336C91.9675 70.1005 92.2074 72.3254 90.7677 73.5454C90.1804 74.0384 89.4164 74.3165 88.646 74.3228H83.3164C82.9501 74.3038 82.9185 74.209 82.8175 74.0889C82.5018 73.7097 82.7291 73.046 83.3164 73.0207C85.1034 73.0207 86.8842 73.0334 88.6712 73.0207C89.7005 73.0018 90.6351 72.0979 90.6477 71.0486C90.6603 70.0563 90.6919 69.0576 90.6477 68.0652C90.6414 67.9325 90.5277 67.8187 90.3888 67.8124C88.3176 67.7871 86.2401 67.8124 84.1688 67.8124C83.3164 67.7997 82.5649 67.0918 82.527 66.2069C82.5018 64.2411 82.4134 62.1489 83.9162 60.9164C84.5856 60.3665 85.4444 60.0631 86.3158 60.0568H91.134C91.1529 60.0568 91.1718 60.0568 91.1908 60.0568Z" fill="#6AB4C5"/>
</g>
<g filter="url(#filter1_f)">
<path d="M98.1369 51.7323H7.07907V53.0281H98.1369V51.7323Z" fill="#8DD8E9"/>
<path d="M98.1369 54.3301H7.07907V55.6258H98.1369V54.3301Z" fill="#8DD8E9"/>
<path fill-rule="evenodd" clip-rule="evenodd" d="M8.29149 78.8106H96.9182V10.192H8.29149V78.8106ZM97.0003 8.89619C97.4108 8.90883 97.8907 9.30072 97.8907 9.30072C97.9538 9.37025 97.897 9.26912 98.0233 9.4777C98.0233 9.4777 98.2064 9.76846 98.219 10.1351V78.8738C98.2064 79.2341 98.0107 79.5564 98.0107 79.5564C97.8465 79.784 97.796 79.8093 97.7139 79.8725C97.5118 80.0242 97.2592 80.1063 97.0003 80.119C67.416 80.5046 37.8253 80.119 8.24097 80.119C7.68528 80.1127 7.16748 79.7145 7.03487 79.1709C7.03487 79.1709 7.00329 79.0255 6.99698 78.8927V10.1224C7.00329 9.85695 6.97172 9.96441 7.07907 9.69261C7.25588 9.23751 7.71054 8.91515 8.2094 8.89619C37.8064 8.53591 67.4033 8.52326 97.0003 8.89619Z" fill="#8DD8E9"/>
<path fill-rule="evenodd" clip-rule="evenodd" d="M8.01457 7.44194C6.70742 7.44826 5.52658 8.60497 5.50763 9.91338C5.22347 32.9717 5.22347 56.0299 5.50763 79.0882C5.52658 80.3713 6.63165 81.5344 7.97668 81.5597C37.7252 81.743 67.48 81.743 97.2285 81.5597C98.5167 81.5344 99.6471 80.4409 99.6976 79.1135V9.90706C99.666 8.62393 98.5673 7.46091 97.2285 7.43562C67.4927 7.25232 37.7568 7.44194 8.01457 7.44194ZM97.2475 6.13986C99.1672 6.17778 100.897 7.80223 100.992 9.74904C100.992 9.7996 100.998 9.84385 100.998 9.89441V79.1009C100.948 81.0666 99.2682 82.8175 97.2475 82.8554C67.4863 83.0387 37.7252 83.0387 7.96405 82.8554C6.00018 82.8175 4.23838 81.073 4.21312 79.1009C3.92896 56.0363 3.92896 32.959 4.21312 9.89441C4.23838 7.95393 5.91809 6.17778 7.96405 6.13986C37.7252 5.95655 67.4863 5.95023 97.2475 6.13986Z" fill="#8DD8E9"/>
<path fill-rule="evenodd" clip-rule="evenodd" d="M77.0206 44.4002C77.008 45.6643 75.9092 46.8147 74.5831 46.84C73.175 46.8463 71.7605 46.8463 70.3523 46.84C68.9757 46.8147 67.738 45.6201 67.6875 44.2042V44.141V22.9727H68.982C68.982 30.0393 68.9062 37.1123 68.982 44.1789C69.0073 44.8932 69.6387 45.5316 70.3649 45.5442C71.7668 45.5506 73.175 45.5695 74.5768 45.5442C75.1767 45.5253 75.7135 45.0196 75.7198 44.3622V29.2808H77.0143C77.0206 34.3185 77.0838 39.3625 77.0206 44.4002Z" fill="#8DD8E9"/>
<path fill-rule="evenodd" clip-rule="evenodd" d="M89.5111 15.5647C90.6161 15.5836 91.5949 16.5254 91.6202 17.6758V44.8553H90.3257C90.3257 35.7912 90.6793 26.7272 90.3257 17.6695C90.3067 17.2397 89.9341 16.8731 89.5111 16.8604C87.7619 16.8288 86.0127 16.8035 84.2699 16.8604C83.8468 16.8794 83.4805 17.2397 83.4553 17.6758C83.4553 17.6821 83.4553 17.6884 83.4553 17.6948V26.5502H82.1608C82.1608 23.5858 82.1039 20.6213 82.1608 17.6568C82.1608 17.5178 82.1671 17.5051 82.1734 17.4419C82.2997 16.4369 83.2216 15.5963 84.2509 15.5647C86.0001 15.5331 87.7556 15.552 89.5111 15.5647Z" fill="#8DD8E9"/>
<path fill-rule="evenodd" clip-rule="evenodd" d="M52.4817 25.0838C52.9364 27.8333 55.6517 29.8939 58.4112 30.3616L58.4554 30.3679C58.4554 29.4388 58.4554 28.5096 58.4554 27.5805C58.4554 26.8093 58.7775 25.7095 57.906 25.5515C56.1253 25.2607 54.3382 25.0901 52.5196 25.0711C52.5196 25.0774 52.4754 25.0585 52.4817 25.0838ZM52.147 23.7753C54.1425 23.7817 56.1379 23.9397 58.1018 24.2747C59.0048 24.4264 59.7373 25.2607 59.7499 26.1899C59.7562 27.7891 59.7562 29.3756 59.7499 30.9684C59.7499 31.4362 59.3458 31.7775 58.7269 31.7143C58.4807 31.689 58.2091 31.6511 57.9629 31.6068C54.6161 30.9684 51.364 28.4275 51.124 24.6539C51.0925 24.1483 51.4335 23.769 52.147 23.7753Z" fill="#8DD8E9"/>
<path fill-rule="evenodd" clip-rule="evenodd" d="M36.0951 38.3448C37.1244 38.3638 38.0463 39.2424 38.0779 40.3042V44.9058C38.0526 45.9045 37.1938 46.821 36.1393 46.8463L19.7527 46.84V45.5442C25.2022 45.5442 30.6581 45.5442 36.1077 45.5505C36.4487 45.5505 36.7644 45.2724 36.7771 44.8995C36.8213 43.3762 36.815 41.8528 36.7771 40.3358C36.7581 39.9566 36.4298 39.6532 36.0635 39.6532H22.4743V38.3574C27.0146 38.3448 31.5548 38.3132 36.0951 38.3448Z" fill="#8DD8E9"/>
<path d="M37.5538 41.9287H21.4008V43.2245H37.5538V41.9287Z" fill="#8DD8E9"/>
<path d="M72.9855 25.6147H71.691V46.2458H72.9855V25.6147Z" fill="#8DD8E9"/>
<path d="M87.5914 16.2852H86.2969V32.1883H87.5914V16.2852Z" fill="#8DD8E9"/>
<path fill-rule="evenodd" clip-rule="evenodd" d="M52.6522 16.0956C56.22 16.1146 59.7815 16.576 63.2293 17.4925L64.0123 17.7074L63.6714 18.9589L62.8883 18.744C56.1063 16.9363 48.9076 16.9299 42.1067 18.7314L41.3236 18.94L40.989 17.6884L41.772 17.4798C45.3335 16.538 48.9455 16.083 52.6522 16.0956Z" fill="#8DD8E9"/>
<path fill-rule="evenodd" clip-rule="evenodd" d="M69.1714 19.61C79.5528 24.3127 87.9261 34.1099 88.0145 46.012V46.7958H86.72V46.0183C86.6821 40.8795 84.9582 35.7912 81.9903 31.5689C78.6624 26.8347 73.9012 23.1812 68.641 20.7983L67.9211 20.4759L68.4516 19.2939C68.6915 19.3951 68.9315 19.5025 69.1714 19.61Z" fill="#8DD8E9"/>
<path fill-rule="evenodd" clip-rule="evenodd" d="M45.7313 25.7475C45.8071 30.6651 48.1246 35.4626 52.1218 38.6419C55.3296 41.1955 59.3584 42.6556 63.4693 42.8389L64.227 42.8705L64.1765 44.1663L63.4124 44.1347C56.5168 43.8313 49.7032 40.0262 46.4322 33.8191C45.1377 31.3604 44.4557 28.5918 44.4305 25.8233V24.9827H45.725V25.7475H45.7313Z" fill="#8DD8E9"/>
<path fill-rule="evenodd" clip-rule="evenodd" d="M35.3563 16.8478C28.7511 16.8478 22.1522 16.6392 15.5534 16.8478C15.1366 16.8667 14.7641 17.2333 14.7577 17.6568C14.7135 19.2876 14.7072 20.912 14.7577 22.5428C14.7767 22.8525 15.0545 23.1117 15.3639 23.118H24.9118V24.4138C21.7228 24.4138 18.5276 24.4327 15.3387 24.4138C14.3789 24.3948 13.5074 23.5857 13.4632 22.606C13.4632 22.5807 13.4632 22.5618 13.4632 22.5365V17.6505C13.4948 16.538 14.4673 15.5583 15.5913 15.552H35.3689V16.8478H35.3563Z" fill="#8DD8E9"/>
<path d="M30.1656 19.2687H13.5264V20.5644H30.1656V19.2687Z" fill="#8DD8E9"/>
<path fill-rule="evenodd" clip-rule="evenodd" d="M37.2759 20.3685L36.5497 20.6845C28.2712 24.3758 21.0851 31.3224 18.9002 40.4686C18.4645 42.2827 18.2498 44.1473 18.2308 46.0183V46.7957L16.9363 46.7894V46.0056C17.0437 34.881 24.7476 24.793 35.2363 19.8565C35.5015 19.7301 35.7604 19.61 36.0256 19.4962L36.7518 19.1738C36.9286 19.5784 37.0991 19.9766 37.2759 20.3685Z" fill="#8DD8E9"/>
<path fill-rule="evenodd" clip-rule="evenodd" d="M52.4943 26.4238C54.8245 26.4365 57.1546 26.7146 59.4089 27.2708L59.0995 28.5287C58.9985 28.5034 58.8974 28.4781 58.7964 28.4591C56.6936 27.9661 54.5403 27.7259 52.3807 27.7259V26.4301C52.4186 26.4238 52.4565 26.4238 52.4943 26.4238Z" fill="#8DD8E9"/>
<path fill-rule="evenodd" clip-rule="evenodd" d="M35.3121 15.5457C36.4234 15.5646 37.4085 16.5254 37.4275 17.6821L36.133 17.701C36.133 17.6758 36.133 17.6505 36.133 17.6252C36.1014 17.2017 35.7225 16.8477 35.2994 16.8414L35.2931 15.5457C35.2931 15.5457 35.2994 15.5457 35.3121 15.5457Z" fill="#8DD8E9"/>
<path fill-rule="evenodd" clip-rule="evenodd" d="M52.3554 14.5217C49.2549 14.5406 46.1544 14.863 43.117 15.5267C42.574 15.6468 42.0751 16.026 42.0625 16.5443C42.0372 17.8401 42.0625 19.1358 42.0625 20.4379V20.6971C48.6361 18.725 55.7464 18.6871 62.3074 20.5075C62.4589 20.5517 62.6168 20.5959 62.7683 20.6402C62.9262 20.6844 63.0525 20.6023 63.0525 20.6023C63.0525 19.1611 63.0841 17.7137 63.0525 16.2852C63.0525 15.5835 61.8022 15.5014 60.7666 15.2991C57.9944 14.7618 55.1844 14.5153 52.3554 14.5217ZM52.6838 13.2196C56.1127 13.2385 59.5479 13.6304 62.882 14.4142C63.7029 14.6165 64.3281 15.3939 64.347 16.2409C64.3723 17.701 64.3596 19.1611 64.347 20.6149C64.3281 21.4745 63.4124 22.1698 62.5663 21.9296C56.0053 19.9639 48.8066 19.9639 42.1509 22.0181C41.4626 22.233 40.7932 22.1256 40.7616 21.5314C40.7364 19.8691 40.749 18.2067 40.7616 16.538C40.7806 15.4129 41.6899 14.509 42.8392 14.2562C46.066 13.5546 49.3433 13.2132 52.6838 13.2196ZM36.0572 17.7326C25.5369 22.1066 16.5258 30.8925 14.8777 43.1422C14.8525 43.3319 14.8272 43.5278 14.8083 43.7238C14.7893 43.8691 14.7767 44.0145 14.764 44.1599C14.7451 44.3306 14.7325 44.5012 14.7198 44.6719C14.6883 45.0891 14.884 45.5441 15.3324 45.5505L20.5609 45.5378C21.0661 36.4928 26.9261 28.2504 35.0405 23.6742C35.5457 23.3897 36.1267 23.2001 36.133 22.5554V17.7073C36.1014 17.7073 36.0761 17.72 36.0572 17.7326ZM85.7538 45.5315C86.4421 45.5315 87.1367 45.5315 87.825 45.5378C88.507 45.5378 89.1953 45.5694 89.8773 45.5378C90.313 45.5125 90.313 44.7793 90.2878 44.4949C90.2751 44.3558 90.2625 44.2168 90.2499 44.084C89.1259 32.8773 80.5631 22.8714 69.9797 18.1561C69.7524 18.055 69.5251 17.8906 69.3041 17.8906C69.1272 17.897 68.9883 18.0487 68.982 18.232V23.1179C69.0767 23.1685 69.1651 23.2128 69.2598 23.2633C77.0901 27.4477 83.3542 34.8746 84.3646 44.2168C84.5098 44.9057 85.0276 45.5125 85.7538 45.5315ZM83.0638 44.3179H83.0575C82.0345 35.6837 75.9219 27.966 67.6875 23.9144C67.6875 22.0055 67.6749 20.1029 67.6875 18.194C67.7064 17.3407 68.4768 16.5886 69.3293 16.5949C70.0302 16.6075 70.6807 17.0373 71.3563 17.3597C81.8071 22.3026 90.2941 32.0176 91.5255 43.8122C91.557 44.103 91.5823 44.3874 91.6012 44.6782C91.6833 45.7464 90.9571 46.821 89.871 46.8399C88.4502 46.8462 87.0294 46.8399 85.6086 46.8336L85.6149 46.821C84.3583 46.7261 83.2848 45.6958 83.0638 44.3179ZM36.3161 16.2283L36.4929 16.4053C36.5624 16.6644 36.455 16.8098 36.9918 17.4166C37.1244 17.6568 37.2759 17.5999 37.4275 17.6568V22.5554C37.4149 24.085 35.5583 24.7993 34.0112 25.8043C26.9135 30.4185 21.8428 38.2183 21.8239 46.821C19.6579 46.8273 17.4857 46.8462 15.3197 46.8399C14.202 46.821 13.3369 45.7401 13.4253 44.5581C14.4294 32.0366 24.0656 21.0194 36.3161 16.2283Z" fill="#8DD8E9"/>
<path fill-rule="evenodd" clip-rule="evenodd" d="M47.5121 25.4566C45.8387 25.7347 44.1842 26.1519 42.574 26.7145C42.7129 31.9165 45.2956 37.0111 49.3623 40.3737C52.9301 43.3255 57.464 45.0195 62.0864 45.4999C62.32 45.5252 62.5663 45.5821 62.7683 45.4809C63.2356 45.2344 63.0462 44.4254 63.0399 43.7554C63.0399 43.0474 63.0588 42.3395 63.0336 41.6379C63.0083 41.2713 62.4147 41.2713 61.9159 41.1891C55.7464 40.1715 50.0316 35.867 48.1814 29.7864C47.752 28.3832 47.5878 26.9104 47.5815 25.444C47.5626 25.444 47.5373 25.4503 47.5121 25.4566ZM47.8657 24.0977C49.116 24.1356 48.7497 26.4364 49.1665 28.3832C50.4421 34.3247 55.999 38.9642 62.32 39.9313C62.7115 39.9945 63.122 40.0071 63.4693 40.1967C64.8269 40.9236 64.4291 43.2939 64.347 45.1143C64.2902 46.132 63.2925 46.9094 62.2442 46.8146C55.5696 46.1762 49.0023 43.079 45.0177 37.6495C42.6687 34.4511 41.3426 30.5386 41.2731 26.5438C41.2668 26.1203 41.2858 25.7853 41.9362 25.5514C43.7422 24.9067 45.5987 24.4327 47.4931 24.1356C47.6194 24.1229 47.6762 24.0977 47.8657 24.0977Z" fill="#8DD8E9"/>
<path fill-rule="evenodd" clip-rule="evenodd" d="M34.9332 60.101C35.5836 60.1769 35.8046 61.3652 34.8827 61.3968H25.1454C24.817 61.3842 24.7918 61.3083 24.6971 61.2135C24.3308 60.8595 24.5771 60.12 25.1454 60.0947H34.8827C34.9016 60.101 34.9206 60.101 34.9332 60.101Z" fill="#8DD8E9"/>
<path fill-rule="evenodd" clip-rule="evenodd" d="M30.0772 60.2274C30.595 60.3033 30.6581 60.9417 30.6581 61.5232C30.6455 64.5888 30.6455 67.6607 30.6645 70.72C30.6645 70.9222 30.6708 70.9538 30.6834 71.0676C30.7465 71.5606 30.9486 72.041 31.3022 72.3887C31.7506 72.8185 32.3884 73.0081 33.0009 73.0207C33.0009 73.0207 33.3356 73.0713 33.4934 73.2609C33.8281 73.6718 33.4997 74.3544 32.7862 74.3165C30.9676 74.2154 29.3889 72.6921 29.3636 70.7453C29.3447 67.5912 29.3384 64.4434 29.3573 61.2893L29.3636 60.8216C29.4141 60.4613 29.7109 60.2085 30.0772 60.2274Z" fill="#8DD8E9"/>
<path fill-rule="evenodd" clip-rule="evenodd" d="M64.4733 60.0315C64.9911 60.1073 65.0543 60.752 65.0543 61.3272C65.0353 64.4624 65.0416 67.6164 65.0606 70.7136C65.0732 71.3836 65.3005 72.0726 65.8436 72.4961C66.2667 72.8311 66.8097 72.9891 67.3465 73.0081C67.3465 73.0081 67.8264 73.0334 67.9906 73.3936C68.1927 73.8361 67.7948 74.3354 67.1949 74.3038C65.3826 74.2027 63.8103 72.692 63.7724 70.7326C63.7534 67.4521 63.7408 64.159 63.7724 60.8658C63.7597 60.8658 63.8039 59.9936 64.4733 60.0315Z" fill="#8DD8E9"/>
<path fill-rule="evenodd" clip-rule="evenodd" d="M46.6975 60.0504C47.0258 60.0947 47.2721 60.3665 47.291 60.6951V71.9904C47.2721 73.185 46.2491 74.2722 45.0051 74.3165C44.1463 74.3354 43.2812 74.3165 42.4161 74.3101C42.1319 74.3038 42.0814 74.2975 41.9299 74.2849C39.5745 74.0636 37.579 72.0663 37.5601 69.4747C37.5601 66.6367 37.5285 63.7923 37.5601 60.948V60.6888C37.5854 60.2716 37.7685 60.1832 37.939 60.1073C38.3368 59.9303 38.8357 60.1642 38.8546 60.7078C38.8167 63.647 38.8294 66.624 38.8546 69.5379C38.8546 69.5885 38.8546 69.6328 38.8609 69.6833C38.9114 70.701 39.3282 71.6997 40.1618 72.3128C41.4499 73.2546 43.2117 73.0586 44.9735 73.0207C45.504 73.0017 45.9713 72.5719 45.9965 71.9904V60.6951C45.9902 60.6951 46.1607 60.0251 46.6975 60.0504Z" fill="#8DD8E9"/>
<path fill-rule="evenodd" clip-rule="evenodd" d="M54.1677 60.0251C55.5001 60.0378 56.8199 60.5434 57.8176 61.4599C60.8171 64.2158 60.634 69.1524 60.6213 72.2432C60.6213 73.3178 59.6741 74.3101 58.5438 74.3165H56.0369C55.4875 74.2912 55.437 74.0131 55.3991 73.7792C55.3296 73.3999 55.5696 73.0396 56.0369 73.0144C56.8831 73.0144 57.7229 73.0396 58.5691 73.0144C59.712 72.9638 59.3268 70.5682 59.3016 69.2408C59.2195 66.0868 58.5186 62.3891 55.2854 61.4726C54.9065 61.3651 54.5087 61.3146 54.1109 61.3146H52.1597V73.6591C52.1597 73.6591 52.1155 74.0004 51.926 74.1584C51.5598 74.4682 50.8904 74.2912 50.8588 73.6591V60.6698C50.8715 60.3159 51.1493 60.0378 51.5092 60.0188C52.4059 60.0251 53.2837 60.0188 54.1677 60.0251Z" fill="#8DD8E9"/>
<path fill-rule="evenodd" clip-rule="evenodd" d="M71.8299 61.3145C71.5521 61.3209 71.3121 61.5484 71.2995 61.8265C71.2616 65.3851 71.2616 68.9374 71.2995 72.496C71.3121 72.7678 71.5395 73.0017 71.811 73.008C73.7433 73.0333 75.6693 73.0333 77.6016 73.008C77.8731 72.9954 78.1004 72.7678 78.1131 72.496C78.151 68.9374 78.151 65.3851 78.1131 61.8265C78.1004 61.5547 77.8668 61.3209 77.6016 61.3145C75.6819 61.2893 73.7559 61.3145 71.8299 61.3145ZM77.5953 60.0188C78.5551 60.0314 79.4013 60.8784 79.4139 61.8392C79.4328 65.3978 79.4518 68.9627 79.4139 72.5213C79.3886 73.4568 78.5993 74.2975 77.5953 74.3101C75.6567 74.3227 73.7244 74.3354 71.7857 74.3101C70.8512 74.2848 70.0113 73.4884 69.9987 72.4897C69.9797 68.9248 69.9608 65.3662 69.9987 61.8012C70.0239 60.8658 70.8133 60.0251 71.8173 60.0125C73.7433 60.0061 75.6693 60.0061 77.5953 60.0188Z" fill="#8DD8E9"/>
<path fill-rule="evenodd" clip-rule="evenodd" d="M22.6511 60.0568C23.0994 60.1136 23.0994 60.2527 23.1815 60.4297C23.371 60.8279 23.1184 61.3272 22.5943 61.3525C20.9777 61.3525 19.3611 61.3399 17.7446 61.3525C16.4564 61.3778 15.3071 62.5156 15.2819 63.8176C15.2755 64.6077 15.2503 65.3915 15.2819 66.1816C15.2945 66.3523 15.4397 66.4977 15.6102 66.5103C17.6877 66.5862 19.7653 66.5103 21.8428 66.5103C22.6258 66.5229 23.3394 67.1677 23.3962 67.9578C23.3962 67.9767 23.3962 68.0147 23.4025 68.0336C23.4278 69.8982 23.693 71.9083 22.6069 73.1724C21.9881 73.8867 21.0598 74.3102 20.1126 74.3165H14.783C14.4609 74.3038 14.4167 74.2217 14.322 74.1269C13.9558 73.7603 14.1768 73.046 14.783 73.0207C16.57 73.0207 18.3508 73.0334 20.1379 73.0207C21.1608 73.0018 22.0891 72.1421 22.1144 71.0423C22.1207 70.0499 22.1522 69.0513 22.1144 68.0589C22.108 67.9262 21.9881 67.8124 21.8554 67.8061C19.7842 67.7808 17.7067 67.8061 15.6355 67.8061C14.7893 67.7934 14.0315 67.1108 13.9937 66.2006C13.9747 64.5382 13.8295 62.781 14.764 61.5548C15.465 60.6256 16.6016 60.0631 17.7825 60.0568H22.6006C22.6132 60.0568 22.6322 60.0568 22.6511 60.0568Z" fill="#8DD8E9"/>
<path fill-rule="evenodd" clip-rule="evenodd" d="M91.1908 60.0568C91.4434 60.0884 91.5255 60.1579 91.6328 60.2843C91.9422 60.6509 91.7654 61.3209 91.134 61.3525C89.5174 61.3525 87.9008 61.3399 86.2843 61.3525C84.9961 61.3778 83.8468 62.5156 83.8215 63.8176C83.8152 64.6077 83.79 65.3915 83.8215 66.1816C83.8342 66.3586 83.9857 66.504 84.1562 66.5103C86.2274 66.5356 88.305 66.5103 90.3825 66.5103C91.1655 66.5229 91.8791 67.1677 91.9359 67.9578C91.9359 67.9767 91.9359 68.0147 91.9422 68.0336C91.9675 70.1005 92.2074 72.3254 90.7677 73.5454C90.1804 74.0384 89.4164 74.3165 88.646 74.3228H83.3164C82.9501 74.3038 82.9185 74.209 82.8175 74.0889C82.5018 73.7097 82.7291 73.046 83.3164 73.0207C85.1034 73.0207 86.8842 73.0334 88.6712 73.0207C89.7005 73.0018 90.6351 72.0979 90.6477 71.0486C90.6603 70.0563 90.6919 69.0576 90.6477 68.0652C90.6414 67.9325 90.5277 67.8187 90.3888 67.8124C88.3176 67.7871 86.2401 67.8124 84.1688 67.8124C83.3164 67.7997 82.5649 67.0918 82.527 66.2069C82.5018 64.2411 82.4134 62.1489 83.9162 60.9164C84.5856 60.3665 85.4444 60.0631 86.3158 60.0568H91.134C91.1529 60.0568 91.1718 60.0568 91.1908 60.0568Z" fill="#8DD8E9"/>
</g>
<path d="M98.1369 51.7323H7.07907V53.0281H98.1369V51.7323Z" fill="#CBF6FF"/>
<path d="M98.1369 54.3301H7.07907V55.6258H98.1369V54.3301Z" fill="#CBF6FF"/>
<path fill-rule="evenodd" clip-rule="evenodd" d="M8.29149 78.8106H96.9182V10.192H8.29149V78.8106ZM97.0003 8.89619C97.4108 8.90883 97.8907 9.30072 97.8907 9.30072C97.9538 9.37025 97.897 9.26912 98.0233 9.4777C98.0233 9.4777 98.2064 9.76846 98.219 10.1351V78.8738C98.2064 79.2341 98.0107 79.5564 98.0107 79.5564C97.8465 79.784 97.796 79.8093 97.7139 79.8725C97.5118 80.0242 97.2592 80.1063 97.0003 80.119C67.416 80.5046 37.8253 80.119 8.24097 80.119C7.68528 80.1127 7.16748 79.7145 7.03487 79.1709C7.03487 79.1709 7.00329 79.0255 6.99698 78.8927V10.1224C7.00329 9.85695 6.97172 9.96441 7.07907 9.69261C7.25588 9.23751 7.71054 8.91515 8.2094 8.89619C37.8064 8.53591 67.4033 8.52326 97.0003 8.89619Z" fill="#CBF6FF"/>
<path fill-rule="evenodd" clip-rule="evenodd" d="M8.01457 7.44194C6.70742 7.44826 5.52658 8.60497 5.50763 9.91338C5.22347 32.9717 5.22347 56.0299 5.50763 79.0882C5.52658 80.3713 6.63165 81.5344 7.97668 81.5597C37.7252 81.743 67.48 81.743 97.2285 81.5597C98.5167 81.5344 99.6471 80.4409 99.6976 79.1135V9.90706C99.666 8.62393 98.5673 7.46091 97.2285 7.43562C67.4927 7.25232 37.7568 7.44194 8.01457 7.44194ZM97.2475 6.13986C99.1672 6.17778 100.897 7.80223 100.992 9.74904C100.992 9.7996 100.998 9.84385 100.998 9.89441V79.1009C100.948 81.0666 99.2682 82.8175 97.2475 82.8554C67.4863 83.0387 37.7252 83.0387 7.96405 82.8554C6.00018 82.8175 4.23838 81.073 4.21312 79.1009C3.92896 56.0363 3.92896 32.959 4.21312 9.89441C4.23838 7.95393 5.91809 6.17778 7.96405 6.13986C37.7252 5.95655 67.4863 5.95023 97.2475 6.13986Z" fill="#CBF6FF"/>
<path fill-rule="evenodd" clip-rule="evenodd" d="M77.0206 44.4002C77.008 45.6643 75.9092 46.8147 74.5831 46.84C73.175 46.8463 71.7605 46.8463 70.3523 46.84C68.9757 46.8147 67.738 45.6201 67.6875 44.2042V44.141V22.9727H68.982C68.982 30.0393 68.9062 37.1123 68.982 44.1789C69.0073 44.8932 69.6387 45.5316 70.3649 45.5442C71.7668 45.5506 73.175 45.5695 74.5768 45.5442C75.1767 45.5253 75.7135 45.0196 75.7198 44.3622V29.2808H77.0143C77.0206 34.3185 77.0838 39.3625 77.0206 44.4002Z" fill="#CBF6FF"/>
<path fill-rule="evenodd" clip-rule="evenodd" d="M89.5111 15.5647C90.6161 15.5836 91.5949 16.5254 91.6202 17.6758V44.8553H90.3257C90.3257 35.7912 90.6793 26.7272 90.3257 17.6695C90.3067 17.2397 89.9341 16.8731 89.5111 16.8604C87.7619 16.8288 86.0127 16.8035 84.2699 16.8604C83.8468 16.8794 83.4805 17.2397 83.4553 17.6758C83.4553 17.6821 83.4553 17.6884 83.4553 17.6948V26.5502H82.1608C82.1608 23.5858 82.1039 20.6213 82.1608 17.6568C82.1608 17.5178 82.1671 17.5051 82.1734 17.4419C82.2997 16.4369 83.2216 15.5963 84.2509 15.5647C86.0001 15.5331 87.7556 15.552 89.5111 15.5647Z" fill="#CBF6FF"/>
<path fill-rule="evenodd" clip-rule="evenodd" d="M52.4817 25.0838C52.9364 27.8333 55.6517 29.8939 58.4112 30.3616L58.4554 30.3679C58.4554 29.4388 58.4554 28.5096 58.4554 27.5805C58.4554 26.8093 58.7775 25.7095 57.906 25.5515C56.1253 25.2607 54.3382 25.0901 52.5196 25.0711C52.5196 25.0774 52.4754 25.0585 52.4817 25.0838ZM52.147 23.7753C54.1425 23.7817 56.1379 23.9397 58.1018 24.2747C59.0048 24.4264 59.7373 25.2607 59.7499 26.1899C59.7562 27.7891 59.7562 29.3756 59.7499 30.9684C59.7499 31.4362 59.3458 31.7775 58.7269 31.7143C58.4807 31.689 58.2091 31.6511 57.9629 31.6068C54.6161 30.9684 51.364 28.4275 51.124 24.6539C51.0925 24.1483 51.4335 23.769 52.147 23.7753Z" fill="#CBF6FF"/>
<path fill-rule="evenodd" clip-rule="evenodd" d="M36.0951 38.3448C37.1244 38.3638 38.0463 39.2424 38.0779 40.3042V44.9058C38.0526 45.9045 37.1938 46.821 36.1393 46.8463L19.7527 46.84V45.5442C25.2022 45.5442 30.6581 45.5442 36.1077 45.5505C36.4487 45.5505 36.7644 45.2724 36.7771 44.8995C36.8213 43.3762 36.815 41.8528 36.7771 40.3358C36.7581 39.9566 36.4298 39.6532 36.0635 39.6532H22.4743V38.3574C27.0146 38.3448 31.5548 38.3132 36.0951 38.3448Z" fill="#CBF6FF"/>
<path d="M37.5538 41.9287H21.4008V43.2245H37.5538V41.9287Z" fill="#CBF6FF"/>
<path d="M72.9855 25.6147H71.691V46.2458H72.9855V25.6147Z" fill="#CBF6FF"/>
<path d="M87.5914 16.2852H86.2969V32.1883H87.5914V16.2852Z" fill="#CBF6FF"/>
<path fill-rule="evenodd" clip-rule="evenodd" d="M52.6522 16.0956C56.22 16.1146 59.7815 16.576 63.2293 17.4925L64.0123 17.7074L63.6714 18.9589L62.8883 18.744C56.1063 16.9363 48.9076 16.9299 42.1067 18.7314L41.3236 18.94L40.989 17.6884L41.772 17.4798C45.3335 16.538 48.9455 16.083 52.6522 16.0956Z" fill="#CBF6FF"/>
<path fill-rule="evenodd" clip-rule="evenodd" d="M69.1714 19.61C79.5528 24.3127 87.9261 34.1099 88.0145 46.012V46.7958H86.72V46.0183C86.6821 40.8795 84.9582 35.7912 81.9903 31.5689C78.6624 26.8347 73.9012 23.1812 68.641 20.7983L67.9211 20.4759L68.4516 19.2939C68.6915 19.3951 68.9315 19.5025 69.1714 19.61Z" fill="#CBF6FF"/>
<path fill-rule="evenodd" clip-rule="evenodd" d="M45.7313 25.7475C45.8071 30.6651 48.1246 35.4626 52.1218 38.6419C55.3296 41.1955 59.3584 42.6556 63.4693 42.8389L64.227 42.8705L64.1765 44.1663L63.4124 44.1347C56.5168 43.8313 49.7032 40.0262 46.4322 33.8191C45.1377 31.3604 44.4557 28.5918 44.4305 25.8233V24.9827H45.725V25.7475H45.7313Z" fill="#CBF6FF"/>
<path fill-rule="evenodd" clip-rule="evenodd" d="M35.3563 16.8478C28.7511 16.8478 22.1522 16.6392 15.5534 16.8478C15.1366 16.8667 14.7641 17.2333 14.7577 17.6568C14.7135 19.2876 14.7072 20.912 14.7577 22.5428C14.7767 22.8525 15.0545 23.1117 15.3639 23.118H24.9118V24.4138C21.7228 24.4138 18.5276 24.4327 15.3387 24.4138C14.3789 24.3948 13.5074 23.5857 13.4632 22.606C13.4632 22.5807 13.4632 22.5618 13.4632 22.5365V17.6505C13.4948 16.538 14.4673 15.5583 15.5913 15.552H35.3689V16.8478H35.3563Z" fill="#CBF6FF"/>
<path d="M30.1656 19.2687H13.5264V20.5644H30.1656V19.2687Z" fill="#CBF6FF"/>
<path fill-rule="evenodd" clip-rule="evenodd" d="M37.2759 20.3685L36.5497 20.6845C28.2712 24.3758 21.0851 31.3224 18.9002 40.4686C18.4645 42.2827 18.2498 44.1473 18.2308 46.0183V46.7957L16.9363 46.7894V46.0056C17.0437 34.881 24.7476 24.793 35.2363 19.8565C35.5015 19.7301 35.7604 19.61 36.0256 19.4962L36.7518 19.1738C36.9286 19.5784 37.0991 19.9766 37.2759 20.3685Z" fill="#CBF6FF"/>
<path fill-rule="evenodd" clip-rule="evenodd" d="M52.4943 26.4238C54.8245 26.4365 57.1546 26.7146 59.4089 27.2708L59.0995 28.5287C58.9985 28.5034 58.8974 28.4781 58.7964 28.4591C56.6936 27.9661 54.5403 27.7259 52.3807 27.7259V26.4301C52.4186 26.4238 52.4565 26.4238 52.4943 26.4238Z" fill="#CBF6FF"/>
<path fill-rule="evenodd" clip-rule="evenodd" d="M35.3121 15.5457C36.4234 15.5646 37.4085 16.5254 37.4275 17.6821L36.133 17.701C36.133 17.6758 36.133 17.6505 36.133 17.6252C36.1014 17.2017 35.7225 16.8477 35.2994 16.8414L35.2931 15.5457C35.2931 15.5457 35.2994 15.5457 35.3121 15.5457Z" fill="#CBF6FF"/>
<path fill-rule="evenodd" clip-rule="evenodd" d="M52.3554 14.5217C49.2549 14.5406 46.1544 14.863 43.117 15.5267C42.574 15.6468 42.0751 16.026 42.0625 16.5443C42.0372 17.8401 42.0625 19.1358 42.0625 20.4379V20.6971C48.6361 18.725 55.7464 18.6871 62.3074 20.5075C62.4589 20.5517 62.6168 20.5959 62.7683 20.6402C62.9262 20.6844 63.0525 20.6023 63.0525 20.6023C63.0525 19.1611 63.0841 17.7137 63.0525 16.2852C63.0525 15.5835 61.8022 15.5014 60.7666 15.2991C57.9944 14.7618 55.1844 14.5153 52.3554 14.5217ZM52.6838 13.2196C56.1127 13.2385 59.5479 13.6304 62.882 14.4142C63.7029 14.6165 64.3281 15.3939 64.347 16.2409C64.3723 17.701 64.3596 19.1611 64.347 20.6149C64.3281 21.4745 63.4124 22.1698 62.5663 21.9296C56.0053 19.9639 48.8066 19.9639 42.1509 22.0181C41.4626 22.233 40.7932 22.1256 40.7616 21.5314C40.7364 19.8691 40.749 18.2067 40.7616 16.538C40.7806 15.4129 41.6899 14.509 42.8392 14.2562C46.066 13.5546 49.3433 13.2132 52.6838 13.2196ZM36.0572 17.7326C25.5369 22.1066 16.5258 30.8925 14.8777 43.1422C14.8525 43.3319 14.8272 43.5278 14.8083 43.7238C14.7893 43.8691 14.7767 44.0145 14.764 44.1599C14.7451 44.3306 14.7325 44.5012 14.7198 44.6719C14.6883 45.0891 14.884 45.5441 15.3324 45.5505L20.5609 45.5378C21.0661 36.4928 26.9261 28.2504 35.0405 23.6742C35.5457 23.3897 36.1267 23.2001 36.133 22.5554V17.7073C36.1014 17.7073 36.0761 17.72 36.0572 17.7326ZM85.7538 45.5315C86.4421 45.5315 87.1367 45.5315 87.825 45.5378C88.507 45.5378 89.1953 45.5694 89.8773 45.5378C90.313 45.5125 90.313 44.7793 90.2878 44.4949C90.2751 44.3558 90.2625 44.2168 90.2499 44.084C89.1259 32.8773 80.5631 22.8714 69.9797 18.1561C69.7524 18.055 69.5251 17.8906 69.3041 17.8906C69.1272 17.897 68.9883 18.0487 68.982 18.232V23.1179C69.0767 23.1685 69.1651 23.2128 69.2598 23.2633C77.0901 27.4477 83.3542 34.8746 84.3646 44.2168C84.5098 44.9057 85.0276 45.5125 85.7538 45.5315ZM83.0638 44.3179H83.0575C82.0345 35.6837 75.9219 27.966 67.6875 23.9144C67.6875 22.0055 67.6749 20.1029 67.6875 18.194C67.7064 17.3407 68.4768 16.5886 69.3293 16.5949C70.0302 16.6075 70.6807 17.0373 71.3563 17.3597C81.8071 22.3026 90.2941 32.0176 91.5255 43.8122C91.557 44.103 91.5823 44.3874 91.6012 44.6782C91.6833 45.7464 90.9571 46.821 89.871 46.8399C88.4502 46.8462 87.0294 46.8399 85.6086 46.8336L85.6149 46.821C84.3583 46.7261 83.2848 45.6958 83.0638 44.3179ZM36.3161 16.2283L36.4929 16.4053C36.5624 16.6644 36.455 16.8098 36.9918 17.4166C37.1244 17.6568 37.2759 17.5999 37.4275 17.6568V22.5554C37.4149 24.085 35.5583 24.7993 34.0112 25.8043C26.9135 30.4185 21.8428 38.2183 21.8239 46.821C19.6579 46.8273 17.4857 46.8462 15.3197 46.8399C14.202 46.821 13.3369 45.7401 13.4253 44.5581C14.4294 32.0366 24.0656 21.0194 36.3161 16.2283Z" fill="#CBF6FF"/>
<path fill-rule="evenodd" clip-rule="evenodd" d="M47.5121 25.4566C45.8387 25.7347 44.1842 26.1519 42.574 26.7145C42.7129 31.9165 45.2956 37.0111 49.3623 40.3737C52.9301 43.3255 57.464 45.0195 62.0864 45.4999C62.32 45.5252 62.5663 45.5821 62.7683 45.4809C63.2356 45.2344 63.0462 44.4254 63.0399 43.7554C63.0399 43.0474 63.0588 42.3395 63.0336 41.6379C63.0083 41.2713 62.4147 41.2713 61.9159 41.1891C55.7464 40.1715 50.0316 35.867 48.1814 29.7864C47.752 28.3832 47.5878 26.9104 47.5815 25.444C47.5626 25.444 47.5373 25.4503 47.5121 25.4566ZM47.8657 24.0977C49.116 24.1356 48.7497 26.4364 49.1665 28.3832C50.4421 34.3247 55.999 38.9642 62.32 39.9313C62.7115 39.9945 63.122 40.0071 63.4693 40.1967C64.8269 40.9236 64.4291 43.2939 64.347 45.1143C64.2902 46.132 63.2925 46.9094 62.2442 46.8146C55.5696 46.1762 49.0023 43.079 45.0177 37.6495C42.6687 34.4511 41.3426 30.5386 41.2731 26.5438C41.2668 26.1203 41.2858 25.7853 41.9362 25.5514C43.7422 24.9067 45.5987 24.4327 47.4931 24.1356C47.6194 24.1229 47.6762 24.0977 47.8657 24.0977Z" fill="#CBF6FF"/>
<path fill-rule="evenodd" clip-rule="evenodd" d="M34.9332 60.101C35.5836 60.1769 35.8046 61.3652 34.8827 61.3968H25.1454C24.817 61.3842 24.7918 61.3083 24.6971 61.2135C24.3308 60.8595 24.5771 60.12 25.1454 60.0947H34.8827C34.9016 60.101 34.9206 60.101 34.9332 60.101Z" fill="#CBF6FF"/>
<path fill-rule="evenodd" clip-rule="evenodd" d="M30.0772 60.2274C30.595 60.3033 30.6581 60.9417 30.6581 61.5232C30.6455 64.5888 30.6455 67.6607 30.6645 70.72C30.6645 70.9222 30.6708 70.9538 30.6834 71.0676C30.7465 71.5606 30.9486 72.041 31.3022 72.3887C31.7506 72.8185 32.3884 73.0081 33.0009 73.0207C33.0009 73.0207 33.3356 73.0713 33.4934 73.2609C33.8281 73.6718 33.4997 74.3544 32.7862 74.3165C30.9676 74.2154 29.3889 72.6921 29.3636 70.7453C29.3447 67.5912 29.3384 64.4434 29.3573 61.2893L29.3636 60.8216C29.4141 60.4613 29.7109 60.2085 30.0772 60.2274Z" fill="#CBF6FF"/>
<path fill-rule="evenodd" clip-rule="evenodd" d="M64.4733 60.0315C64.9911 60.1073 65.0543 60.752 65.0543 61.3272C65.0353 64.4624 65.0416 67.6164 65.0606 70.7136C65.0732 71.3836 65.3005 72.0726 65.8436 72.4961C66.2667 72.8311 66.8097 72.9891 67.3465 73.0081C67.3465 73.0081 67.8264 73.0334 67.9906 73.3936C68.1927 73.8361 67.7948 74.3354 67.1949 74.3038C65.3826 74.2027 63.8103 72.692 63.7724 70.7326C63.7534 67.4521 63.7408 64.159 63.7724 60.8658C63.7597 60.8658 63.8039 59.9936 64.4733 60.0315Z" fill="#CBF6FF"/>
<path fill-rule="evenodd" clip-rule="evenodd" d="M46.6975 60.0504C47.0258 60.0947 47.2721 60.3665 47.291 60.6951V71.9904C47.2721 73.185 46.2491 74.2722 45.0051 74.3165C44.1463 74.3354 43.2812 74.3165 42.4161 74.3101C42.1319 74.3038 42.0814 74.2975 41.9299 74.2849C39.5745 74.0636 37.579 72.0663 37.5601 69.4747C37.5601 66.6367 37.5285 63.7923 37.5601 60.948V60.6888C37.5854 60.2716 37.7685 60.1832 37.939 60.1073C38.3368 59.9303 38.8357 60.1642 38.8546 60.7078C38.8167 63.647 38.8294 66.624 38.8546 69.5379C38.8546 69.5885 38.8546 69.6328 38.8609 69.6833C38.9114 70.701 39.3282 71.6997 40.1618 72.3128C41.4499 73.2546 43.2117 73.0586 44.9735 73.0207C45.504 73.0017 45.9713 72.5719 45.9965 71.9904V60.6951C45.9902 60.6951 46.1607 60.0251 46.6975 60.0504Z" fill="#CBF6FF"/>
<path fill-rule="evenodd" clip-rule="evenodd" d="M54.1677 60.0251C55.5001 60.0378 56.8199 60.5434 57.8176 61.4599C60.8171 64.2158 60.634 69.1524 60.6213 72.2432C60.6213 73.3178 59.6741 74.3101 58.5438 74.3165H56.0369C55.4875 74.2912 55.437 74.0131 55.3991 73.7792C55.3296 73.3999 55.5696 73.0396 56.0369 73.0144C56.8831 73.0144 57.7229 73.0396 58.5691 73.0144C59.712 72.9638 59.3268 70.5682 59.3016 69.2408C59.2195 66.0868 58.5186 62.3891 55.2854 61.4726C54.9065 61.3651 54.5087 61.3146 54.1109 61.3146H52.1597V73.6591C52.1597 73.6591 52.1155 74.0004 51.926 74.1584C51.5598 74.4682 50.8904 74.2912 50.8588 73.6591V60.6698C50.8715 60.3159 51.1493 60.0378 51.5092 60.0188C52.4059 60.0251 53.2837 60.0188 54.1677 60.0251Z" fill="#CBF6FF"/>
<path fill-rule="evenodd" clip-rule="evenodd" d="M71.8299 61.3145C71.5521 61.3209 71.3121 61.5484 71.2995 61.8265C71.2616 65.3851 71.2616 68.9374 71.2995 72.496C71.3121 72.7678 71.5395 73.0017 71.811 73.008C73.7433 73.0333 75.6693 73.0333 77.6016 73.008C77.8731 72.9954 78.1004 72.7678 78.1131 72.496C78.151 68.9374 78.151 65.3851 78.1131 61.8265C78.1004 61.5547 77.8668 61.3209 77.6016 61.3145C75.6819 61.2893 73.7559 61.3145 71.8299 61.3145ZM77.5953 60.0188C78.5551 60.0314 79.4013 60.8784 79.4139 61.8392C79.4328 65.3978 79.4518 68.9627 79.4139 72.5213C79.3886 73.4568 78.5993 74.2975 77.5953 74.3101C75.6567 74.3227 73.7244 74.3354 71.7857 74.3101C70.8512 74.2848 70.0113 73.4884 69.9987 72.4897C69.9797 68.9248 69.9608 65.3662 69.9987 61.8012C70.0239 60.8658 70.8133 60.0251 71.8173 60.0125C73.7433 60.0061 75.6693 60.0061 77.5953 60.0188Z" fill="#CBF6FF"/>
<path fill-rule="evenodd" clip-rule="evenodd" d="M22.6511 60.0568C23.0994 60.1136 23.0994 60.2527 23.1815 60.4297C23.371 60.8279 23.1184 61.3272 22.5943 61.3525C20.9777 61.3525 19.3611 61.3399 17.7446 61.3525C16.4564 61.3778 15.3071 62.5156 15.2819 63.8176C15.2755 64.6077 15.2503 65.3915 15.2819 66.1816C15.2945 66.3523 15.4397 66.4977 15.6102 66.5103C17.6877 66.5862 19.7653 66.5103 21.8428 66.5103C22.6258 66.5229 23.3394 67.1677 23.3962 67.9578C23.3962 67.9767 23.3962 68.0147 23.4025 68.0336C23.4278 69.8982 23.693 71.9083 22.6069 73.1724C21.9881 73.8867 21.0598 74.3102 20.1126 74.3165H14.783C14.4609 74.3038 14.4167 74.2217 14.322 74.1269C13.9558 73.7603 14.1768 73.046 14.783 73.0207C16.57 73.0207 18.3508 73.0334 20.1379 73.0207C21.1608 73.0018 22.0891 72.1421 22.1144 71.0423C22.1207 70.0499 22.1522 69.0513 22.1144 68.0589C22.108 67.9262 21.9881 67.8124 21.8554 67.8061C19.7842 67.7808 17.7067 67.8061 15.6355 67.8061C14.7893 67.7934 14.0315 67.1108 13.9937 66.2006C13.9747 64.5382 13.8295 62.781 14.764 61.5548C15.465 60.6256 16.6016 60.0631 17.7825 60.0568H22.6006C22.6132 60.0568 22.6322 60.0568 22.6511 60.0568Z" fill="#CBF6FF"/>
<path fill-rule="evenodd" clip-rule="evenodd" d="M91.1908 60.0568C91.4434 60.0884 91.5255 60.1579 91.6328 60.2843C91.9422 60.6509 91.7654 61.3209 91.134 61.3525C89.5174 61.3525 87.9008 61.3399 86.2843 61.3525C84.9961 61.3778 83.8468 62.5156 83.8215 63.8176C83.8152 64.6077 83.79 65.3915 83.8215 66.1816C83.8342 66.3586 83.9857 66.504 84.1562 66.5103C86.2274 66.5356 88.305 66.5103 90.3825 66.5103C91.1655 66.5229 91.8791 67.1677 91.9359 67.9578C91.9359 67.9767 91.9359 68.0147 91.9422 68.0336C91.9675 70.1005 92.2074 72.3254 90.7677 73.5454C90.1804 74.0384 89.4164 74.3165 88.646 74.3228H83.3164C82.9501 74.3038 82.9185 74.209 82.8175 74.0889C82.5018 73.7097 82.7291 73.046 83.3164 73.0207C85.1034 73.0207 86.8842 73.0334 88.6712 73.0207C89.7005 73.0018 90.6351 72.0979 90.6477 71.0486C90.6603 70.0563 90.6919 69.0576 90.6477 68.0652C90.6414 67.9325 90.5277 67.8187 90.3888 67.8124C88.3176 67.7871 86.2401 67.8124 84.1688 67.8124C83.3164 67.7997 82.5649 67.0918 82.527 66.2069C82.5018 64.2411 82.4134 62.1489 83.9162 60.9164C84.5856 60.3665 85.4444 60.0631 86.3158 60.0568H91.134C91.1529 60.0568 91.1718 60.0568 91.1908 60.0568Z" fill="#CBF6FF"/>
<defs>
<filter id="filter0_f" x="0" y="2" width="105" height="85" filterUnits="userSpaceOnUse" color-interpolation-filters="sRGB">
<feFlood flood-opacity="0" result="BackgroundImageFix"/>
<feBlend mode="normal" in="SourceGraphic" in2="BackgroundImageFix" result="shape"/>
<feGaussianBlur stdDeviation="2" result="effect1_foregroundBlur"/>
</filter>
<filter id="filter1_f" x="2" y="4" width="101" height="81" filterUnits="userSpaceOnUse" color-interpolation-filters="sRGB">
<feFlood flood-opacity="0" result="BackgroundImageFix"/>
<feBlend mode="normal" in="SourceGraphic" in2="BackgroundImageFix" result="shape"/>
<feGaussianBlur stdDeviation="1" result="effect1_foregroundBlur"/>
</filter>
</defs>
</svg>
