<svg width="105" height="89" viewBox="0 0 105 89" fill="none" xmlns="http://www.w3.org/2000/svg">
<g id="logoTop" filter="url(#filter0_dd)">
<g id="Rahmen">
<path id="Vector" d="M98.1369 49.7323H7.07907V51.0281H98.1369V49.7323Z" fill="#CBF6FF"/>
<path id="Vector_2" d="M98.1369 52.3301H7.07907V53.6258H98.1369V52.3301Z" fill="#CBF6FF"/>
<path id="Vector_3" fill-rule="evenodd" clip-rule="evenodd" d="M8.29149 76.8106H96.9182V8.19196H8.29149V76.8106ZM97.0003 6.89619C97.4108 6.90883 97.8907 7.30072 97.8907 7.30072C97.9538 7.37025 97.897 7.26912 98.0233 7.4777C98.0233 7.4777 98.2064 7.76846 98.219 8.13507V76.8738C98.2064 77.2341 98.0107 77.5564 98.0107 77.5564C97.8465 77.784 97.796 77.8093 97.7139 77.8725C97.5118 78.0242 97.2592 78.1063 97.0003 78.119C67.416 78.5046 37.8253 78.119 8.24097 78.119C7.68528 78.1127 7.16748 77.7145 7.03487 77.1709C7.03487 77.1709 7.00329 77.0255 6.99698 76.8927V8.12243C7.00329 7.85695 6.97172 7.96441 7.07907 7.69261C7.25588 7.23751 7.71054 6.91515 8.2094 6.89619C37.8064 6.53591 67.4033 6.52326 97.0003 6.89619Z" fill="#CBF6FF"/>
<path id="Vector_4" fill-rule="evenodd" clip-rule="evenodd" d="M8.01457 5.44194C6.70742 5.44826 5.52658 6.60497 5.50763 7.91338C5.22347 30.9717 5.22347 54.0299 5.50763 77.0882C5.52658 78.3713 6.63165 79.5344 7.97668 79.5597C37.7252 79.743 67.48 79.743 97.2285 79.5597C98.5167 79.5344 99.6471 78.4409 99.6976 77.1135V7.90706C99.666 6.62393 98.5673 5.46091 97.2285 5.43562C67.4927 5.25232 37.7568 5.44194 8.01457 5.44194ZM97.2475 4.13986C99.1672 4.17778 100.897 5.80223 100.992 7.74904C100.992 7.7996 100.998 7.84385 100.998 7.89441V77.1009C100.948 79.0666 99.2682 80.8175 97.2475 80.8554C67.4863 81.0387 37.7252 81.0387 7.96405 80.8554C6.00018 80.8175 4.23838 79.073 4.21312 77.1009C3.92896 54.0363 3.92896 30.959 4.21312 7.89441C4.23838 5.95393 5.91809 4.17778 7.96405 4.13986C37.7252 3.95655 67.4863 3.95023 97.2475 4.13986Z" fill="#CBF6FF"/>
</g>
<g id="Zen">
<path id="Vector_5" fill-rule="evenodd" clip-rule="evenodd" d="M77.0206 42.4002C77.008 43.6643 75.9092 44.8147 74.5831 44.84C73.175 44.8463 71.7605 44.8463 70.3523 44.84C68.9757 44.8147 67.738 43.6201 67.6875 42.2042V42.141V20.9727H68.982C68.982 28.0393 68.9062 35.1123 68.982 42.1789C69.0073 42.8932 69.6387 43.5316 70.3649 43.5442C71.7668 43.5506 73.175 43.5695 74.5768 43.5442C75.1767 43.5253 75.7135 43.0196 75.7198 42.3622V27.2808H77.0143C77.0206 32.3185 77.0838 37.3625 77.0206 42.4002Z" fill="#CBF6FF"/>
<path id="Vector_6" fill-rule="evenodd" clip-rule="evenodd" d="M89.5111 13.5647C90.6161 13.5836 91.5949 14.5254 91.6202 15.6758V42.8553H90.3257C90.3257 33.7912 90.6793 24.7272 90.3257 15.6695C90.3067 15.2397 89.9341 14.8731 89.5111 14.8604C87.7619 14.8288 86.0127 14.8035 84.2699 14.8604C83.8468 14.8794 83.4805 15.2397 83.4553 15.6758C83.4553 15.6821 83.4553 15.6884 83.4553 15.6948V24.5502H82.1608C82.1608 21.5858 82.1039 18.6213 82.1608 15.6568C82.1608 15.5178 82.1671 15.5051 82.1734 15.4419C82.2997 14.4369 83.2216 13.5963 84.2509 13.5647C86.0001 13.5331 87.7556 13.552 89.5111 13.5647Z" fill="#CBF6FF"/>
<path id="Vector_7" fill-rule="evenodd" clip-rule="evenodd" d="M52.4817 23.0838C52.9364 25.8333 55.6517 27.8939 58.4112 28.3616L58.4554 28.3679C58.4554 27.4388 58.4554 26.5096 58.4554 25.5805C58.4554 24.8093 58.7775 23.7095 57.906 23.5515C56.1253 23.2607 54.3382 23.0901 52.5196 23.0711C52.5196 23.0774 52.4754 23.0585 52.4817 23.0838ZM52.147 21.7753C54.1425 21.7817 56.1379 21.9397 58.1018 22.2747C59.0048 22.4264 59.7373 23.2607 59.7499 24.1899C59.7562 25.7891 59.7562 27.3756 59.7499 28.9684C59.7499 29.4362 59.3458 29.7775 58.7269 29.7143C58.4807 29.689 58.2091 29.6511 57.9629 29.6068C54.6161 28.9684 51.364 26.4275 51.124 22.6539C51.0925 22.1483 51.4335 21.769 52.147 21.7753Z" fill="#CBF6FF"/>
<path id="Vector_8" fill-rule="evenodd" clip-rule="evenodd" d="M36.0951 36.3448C37.1244 36.3638 38.0463 37.2424 38.0779 38.3042V42.9058C38.0526 43.9045 37.1938 44.821 36.1393 44.8463L19.7527 44.84V43.5442C25.2022 43.5442 30.6581 43.5442 36.1077 43.5505C36.4487 43.5505 36.7644 43.2724 36.7771 42.8995C36.8213 41.3762 36.815 39.8528 36.7771 38.3358C36.7581 37.9566 36.4298 37.6532 36.0635 37.6532H22.4743V36.3574C27.0146 36.3448 31.5548 36.3132 36.0951 36.3448Z" fill="#CBF6FF"/>
<path id="Vector_9" d="M37.5538 39.9287H21.4008V41.2245H37.5538V39.9287Z" fill="#CBF6FF"/>
<path id="Vector_10" d="M72.9855 23.6147H71.691V44.2458H72.9855V23.6147Z" fill="#CBF6FF"/>
<path id="Vector_11" d="M87.5914 14.2852H86.2969V30.1883H87.5914V14.2852Z" fill="#CBF6FF"/>
<path id="Vector_12" fill-rule="evenodd" clip-rule="evenodd" d="M52.6522 14.0956C56.22 14.1146 59.7815 14.576 63.2293 15.4925L64.0123 15.7074L63.6714 16.9589L62.8883 16.744C56.1063 14.9363 48.9076 14.9299 42.1067 16.7314L41.3236 16.94L40.989 15.6884L41.772 15.4798C45.3335 14.538 48.9455 14.083 52.6522 14.0956Z" fill="#CBF6FF"/>
<path id="Vector_13" fill-rule="evenodd" clip-rule="evenodd" d="M69.1714 17.61C79.5528 22.3127 87.9261 32.1099 88.0145 44.012V44.7958H86.72V44.0183C86.6821 38.8795 84.9582 33.7912 81.9903 29.5689C78.6624 24.8347 73.9012 21.1812 68.641 18.7983L67.9211 18.4759L68.4516 17.2939C68.6915 17.3951 68.9315 17.5025 69.1714 17.61Z" fill="#CBF6FF"/>
<path id="Vector_14" fill-rule="evenodd" clip-rule="evenodd" d="M45.7313 23.7475C45.8071 28.6651 48.1246 33.4626 52.1218 36.6419C55.3296 39.1955 59.3584 40.6556 63.4693 40.8389L64.227 40.8705L64.1765 42.1663L63.4124 42.1347C56.5168 41.8313 49.7032 38.0262 46.4322 31.8191C45.1377 29.3604 44.4557 26.5918 44.4305 23.8233V22.9827H45.725V23.7475H45.7313Z" fill="#CBF6FF"/>
<path id="Vector_15" fill-rule="evenodd" clip-rule="evenodd" d="M35.3563 14.8478C28.7511 14.8478 22.1522 14.6392 15.5534 14.8478C15.1366 14.8667 14.7641 15.2333 14.7577 15.6568C14.7135 17.2876 14.7072 18.912 14.7577 20.5428C14.7767 20.8525 15.0545 21.1117 15.3639 21.118H24.9118V22.4138C21.7228 22.4138 18.5276 22.4327 15.3387 22.4138C14.3789 22.3948 13.5074 21.5857 13.4632 20.606C13.4632 20.5807 13.4632 20.5618 13.4632 20.5365V15.6505C13.4948 14.538 14.4673 13.5583 15.5913 13.552H35.3689V14.8478H35.3563Z" fill="#CBF6FF"/>
<path id="Vector_16" d="M30.1656 17.2687H13.5264V18.5644H30.1656V17.2687Z" fill="#CBF6FF"/>
<path id="Vector_17" fill-rule="evenodd" clip-rule="evenodd" d="M37.2759 18.3685L36.5497 18.6845C28.2712 22.3758 21.0851 29.3224 18.9002 38.4686C18.4645 40.2827 18.2498 42.1473 18.2308 44.0183V44.7957L16.9363 44.7894V44.0056C17.0437 32.881 24.7476 22.793 35.2363 17.8565C35.5015 17.7301 35.7604 17.61 36.0256 17.4962L36.7518 17.1738C36.9286 17.5784 37.0991 17.9766 37.2759 18.3685Z" fill="#CBF6FF"/>
<path id="Vector_18" fill-rule="evenodd" clip-rule="evenodd" d="M52.4943 24.4238C54.8245 24.4365 57.1546 24.7146 59.4089 25.2708L59.0995 26.5287C58.9985 26.5034 58.8974 26.4781 58.7964 26.4591C56.6936 25.9661 54.5403 25.7259 52.3807 25.7259V24.4301C52.4186 24.4238 52.4565 24.4238 52.4943 24.4238Z" fill="#CBF6FF"/>
<path id="Vector_19" fill-rule="evenodd" clip-rule="evenodd" d="M35.3121 13.5457C36.4234 13.5646 37.4085 14.5254 37.4275 15.6821L36.133 15.701C36.133 15.6758 36.133 15.6505 36.133 15.6252C36.1014 15.2017 35.7225 14.8477 35.2994 14.8414L35.2931 13.5457C35.2931 13.5457 35.2994 13.5457 35.3121 13.5457Z" fill="#CBF6FF"/>
<path id="Vector_20" fill-rule="evenodd" clip-rule="evenodd" d="M52.3554 12.5217C49.2549 12.5406 46.1544 12.863 43.117 13.5267C42.574 13.6468 42.0751 14.026 42.0625 14.5443C42.0372 15.8401 42.0625 17.1358 42.0625 18.4379V18.6971C48.6361 16.725 55.7464 16.6871 62.3074 18.5075C62.4589 18.5517 62.6168 18.5959 62.7683 18.6402C62.9262 18.6844 63.0525 18.6023 63.0525 18.6023C63.0525 17.1611 63.0841 15.7137 63.0525 14.2852C63.0525 13.5835 61.8022 13.5014 60.7666 13.2991C57.9944 12.7618 55.1844 12.5153 52.3554 12.5217ZM52.6838 11.2196C56.1127 11.2385 59.5479 11.6304 62.882 12.4142C63.7029 12.6165 64.3281 13.3939 64.347 14.2409C64.3723 15.701 64.3596 17.1611 64.347 18.6149C64.3281 19.4745 63.4124 20.1698 62.5663 19.9296C56.0053 17.9639 48.8066 17.9639 42.1509 20.0181C41.4626 20.233 40.7932 20.1256 40.7616 19.5314C40.7364 17.8691 40.749 16.2067 40.7616 14.538C40.7806 13.4129 41.6899 12.509 42.8392 12.2562C46.066 11.5546 49.3433 11.2132 52.6838 11.2196ZM36.0572 15.7326C25.5369 20.1066 16.5258 28.8925 14.8777 41.1422C14.8525 41.3319 14.8272 41.5278 14.8083 41.7238C14.7893 41.8691 14.7767 42.0145 14.764 42.1599C14.7451 42.3306 14.7325 42.5012 14.7198 42.6719C14.6883 43.0891 14.884 43.5441 15.3324 43.5505L20.5609 43.5378C21.0661 34.4928 26.9261 26.2504 35.0405 21.6742C35.5457 21.3897 36.1267 21.2001 36.133 20.5554V15.7073C36.1014 15.7073 36.0761 15.72 36.0572 15.7326ZM85.7538 43.5315C86.4421 43.5315 87.1367 43.5315 87.8251 43.5378C88.507 43.5378 89.1953 43.5694 89.8773 43.5378C90.313 43.5125 90.313 42.7793 90.2878 42.4949C90.2751 42.3558 90.2625 42.2168 90.2499 42.084C89.1259 30.8773 80.5631 20.8714 69.9797 16.1561C69.7524 16.055 69.5251 15.8906 69.3041 15.8906C69.1272 15.897 68.9883 16.0487 68.982 16.232V21.1179C69.0767 21.1685 69.1651 21.2128 69.2598 21.2633C77.0901 25.4477 83.3542 32.8746 84.3646 42.2168C84.5098 42.9057 85.0276 43.5125 85.7538 43.5315ZM83.0638 42.3179H83.0574C82.0345 33.6837 75.9219 25.966 67.6875 21.9144C67.6875 20.0055 67.6749 18.1029 67.6875 16.194C67.7064 15.3407 68.4768 14.5886 69.3293 14.5949C70.0302 14.6075 70.6807 15.0373 71.3563 15.3597C81.8071 20.3026 90.2941 30.0176 91.5255 41.8123C91.557 42.103 91.5823 42.3874 91.6012 42.6782C91.6833 43.7464 90.9571 44.821 89.871 44.8399C88.4502 44.8462 87.0294 44.8399 85.6086 44.8336L85.6149 44.821C84.3583 44.7261 83.2848 43.6958 83.0638 42.3179ZM36.3161 14.2283L36.4929 14.4053C36.5624 14.6644 36.455 14.8098 36.9918 15.4166C37.1244 15.6568 37.2759 15.5999 37.4275 15.6568V20.5554C37.4149 22.085 35.5583 22.7993 34.0112 23.8043C26.9135 28.4185 21.8428 36.2183 21.8239 44.821C19.6579 44.8273 17.4857 44.8462 15.3197 44.8399C14.202 44.821 13.3369 43.7401 13.4253 42.5581C14.4294 30.0366 24.0656 19.0194 36.3161 14.2283Z" fill="#CBF6FF"/>
<path id="Vector_21" fill-rule="evenodd" clip-rule="evenodd" d="M47.5121 23.4566C45.8387 23.7347 44.1842 24.1519 42.574 24.7145C42.7129 29.9165 45.2956 35.0111 49.3623 38.3737C52.9301 41.3255 57.464 43.0195 62.0864 43.4999C62.32 43.5252 62.5663 43.5821 62.7683 43.4809C63.2356 43.2344 63.0462 42.4254 63.0399 41.7554C63.0399 41.0474 63.0588 40.3395 63.0336 39.6379C63.0083 39.2713 62.4147 39.2713 61.9159 39.1891C55.7464 38.1715 50.0316 33.867 48.1814 27.7864C47.752 26.3832 47.5878 24.9104 47.5815 23.444C47.5626 23.444 47.5373 23.4503 47.5121 23.4566ZM47.8657 22.0977C49.116 22.1356 48.7497 24.4364 49.1665 26.3832C50.4421 32.3247 55.999 36.9642 62.32 37.9313C62.7115 37.9945 63.122 38.0071 63.4693 38.1967C64.8269 38.9236 64.4291 41.2939 64.347 43.1143C64.2902 44.132 63.2925 44.9094 62.2442 44.8146C55.5696 44.1762 49.0023 41.079 45.0177 35.6495C42.6687 32.4511 41.3426 28.5386 41.2731 24.5438C41.2668 24.1203 41.2858 23.7853 41.9362 23.5514C43.7422 22.9067 45.5987 22.4327 47.4931 22.1356C47.6194 22.1229 47.6762 22.0977 47.8657 22.0977Z" fill="#CBF6FF"/>
</g>
<g id="Studios">
<path id="Vector_22" fill-rule="evenodd" clip-rule="evenodd" d="M34.9332 58.101C35.5836 58.1769 35.8046 59.3652 34.8827 59.3968H25.1454C24.817 59.3842 24.7918 59.3083 24.6971 59.2135C24.3308 58.8595 24.5771 58.12 25.1454 58.0947H34.8827C34.9016 58.101 34.9206 58.101 34.9332 58.101Z" fill="#CBF6FF"/>
<path id="Vector_23" fill-rule="evenodd" clip-rule="evenodd" d="M30.0772 58.2274C30.595 58.3033 30.6581 58.9417 30.6581 59.5232C30.6455 62.5888 30.6455 65.6607 30.6645 68.72C30.6645 68.9222 30.6708 68.9538 30.6834 69.0676C30.7465 69.5606 30.9486 70.041 31.3022 70.3887C31.7506 70.8185 32.3884 71.0081 33.0009 71.0207C33.0009 71.0207 33.3356 71.0713 33.4934 71.2609C33.8281 71.6718 33.4997 72.3544 32.7862 72.3165C30.9676 72.2154 29.3889 70.6921 29.3636 68.7453C29.3447 65.5912 29.3384 62.4434 29.3573 59.2893L29.3636 58.8216C29.4141 58.4613 29.7109 58.2085 30.0772 58.2274Z" fill="#CBF6FF"/>
<path id="Vector_24" fill-rule="evenodd" clip-rule="evenodd" d="M64.4733 58.0315C64.9911 58.1073 65.0543 58.752 65.0543 59.3272C65.0353 62.4624 65.0416 65.6164 65.0606 68.7136C65.0732 69.3836 65.3005 70.0726 65.8436 70.4961C66.2667 70.8311 66.8097 70.9891 67.3465 71.0081C67.3465 71.0081 67.8264 71.0334 67.9906 71.3936C68.1927 71.8361 67.7948 72.3354 67.1949 72.3038C65.3826 72.2027 63.8103 70.692 63.7724 68.7326C63.7534 65.4521 63.7408 62.159 63.7724 58.8658C63.7597 58.8658 63.8039 57.9936 64.4733 58.0315Z" fill="#CBF6FF"/>
<path id="Vector_25" fill-rule="evenodd" clip-rule="evenodd" d="M46.6975 58.0504C47.0258 58.0947 47.2721 58.3665 47.291 58.6951V69.9904C47.2721 71.185 46.2491 72.2722 45.0051 72.3165C44.1463 72.3354 43.2812 72.3165 42.4161 72.3101C42.1319 72.3038 42.0814 72.2975 41.9299 72.2849C39.5745 72.0636 37.579 70.0663 37.5601 67.4747C37.5601 64.6367 37.5285 61.7923 37.5601 58.948V58.6888C37.5854 58.2716 37.7685 58.1832 37.939 58.1073C38.3368 57.9303 38.8357 58.1642 38.8546 58.7078C38.8167 61.647 38.8294 64.624 38.8546 67.5379C38.8546 67.5885 38.8546 67.6328 38.8609 67.6833C38.9114 68.701 39.3282 69.6997 40.1618 70.3128C41.4499 71.2546 43.2117 71.0586 44.9735 71.0207C45.504 71.0017 45.9713 70.5719 45.9965 69.9904V58.6951C45.9902 58.6951 46.1607 58.0251 46.6975 58.0504Z" fill="#CBF6FF"/>
<path id="Vector_26" fill-rule="evenodd" clip-rule="evenodd" d="M54.1677 58.0251C55.5001 58.0378 56.8199 58.5434 57.8176 59.4599C60.8171 62.2158 60.634 67.1524 60.6213 70.2432C60.6213 71.3178 59.6741 72.3101 58.5438 72.3165H56.0369C55.4875 72.2912 55.437 72.0131 55.3991 71.7792C55.3296 71.3999 55.5696 71.0396 56.0369 71.0144C56.8831 71.0144 57.7229 71.0396 58.5691 71.0144C59.712 70.9638 59.3268 68.5682 59.3016 67.2408C59.2195 64.0868 58.5186 60.3891 55.2854 59.4726C54.9065 59.3651 54.5087 59.3146 54.1109 59.3146H52.1597V71.6591C52.1597 71.6591 52.1155 72.0004 51.926 72.1584C51.5598 72.4682 50.8904 72.2912 50.8588 71.6591V58.6698C50.8715 58.3159 51.1493 58.0378 51.5092 58.0188C52.4059 58.0251 53.2837 58.0188 54.1677 58.0251Z" fill="#CBF6FF"/>
<path id="Vector_27" fill-rule="evenodd" clip-rule="evenodd" d="M71.8299 59.3145C71.5521 59.3209 71.3121 59.5484 71.2995 59.8265C71.2616 63.3851 71.2616 66.9374 71.2995 70.496C71.3121 70.7678 71.5395 71.0017 71.811 71.008C73.7433 71.0333 75.6693 71.0333 77.6016 71.008C77.8731 70.9954 78.1004 70.7678 78.1131 70.496C78.151 66.9374 78.151 63.3851 78.1131 59.8265C78.1004 59.5547 77.8668 59.3209 77.6016 59.3145C75.6819 59.2893 73.7559 59.3145 71.8299 59.3145ZM77.5953 58.0188C78.5551 58.0314 79.4013 58.8784 79.4139 59.8392C79.4328 63.3978 79.4518 66.9627 79.4139 70.5213C79.3886 71.4568 78.5993 72.2975 77.5953 72.3101C75.6567 72.3227 73.7244 72.3354 71.7857 72.3101C70.8512 72.2848 70.0113 71.4884 69.9987 70.4897C69.9797 66.9248 69.9608 63.3662 69.9987 59.8012C70.0239 58.8658 70.8133 58.0251 71.8173 58.0125C73.7433 58.0061 75.6693 58.0061 77.5953 58.0188Z" fill="#CBF6FF"/>
<path id="Vector_28" fill-rule="evenodd" clip-rule="evenodd" d="M22.6511 58.0568C23.0994 58.1136 23.0994 58.2527 23.1815 58.4297C23.371 58.8279 23.1184 59.3272 22.5943 59.3525C20.9777 59.3525 19.3611 59.3399 17.7446 59.3525C16.4564 59.3778 15.3071 60.5156 15.2819 61.8176C15.2755 62.6077 15.2503 63.3915 15.2819 64.1816C15.2945 64.3523 15.4397 64.4977 15.6102 64.5103C17.6877 64.5862 19.7653 64.5103 21.8428 64.5103C22.6258 64.5229 23.3394 65.1677 23.3962 65.9578C23.3962 65.9767 23.3962 66.0147 23.4025 66.0336C23.4278 67.8982 23.693 69.9083 22.6069 71.1724C21.9881 71.8867 21.0598 72.3102 20.1126 72.3165H14.783C14.4609 72.3038 14.4167 72.2217 14.322 72.1269C13.9558 71.7603 14.1768 71.046 14.783 71.0207C16.57 71.0207 18.3508 71.0334 20.1379 71.0207C21.1608 71.0018 22.0891 70.1421 22.1144 69.0423C22.1207 68.0499 22.1522 67.0513 22.1144 66.0589C22.108 65.9262 21.9881 65.8124 21.8554 65.8061C19.7842 65.7808 17.7067 65.8061 15.6355 65.8061C14.7893 65.7934 14.0315 65.1108 13.9937 64.2006C13.9747 62.5382 13.8295 60.781 14.764 59.5548C15.465 58.6256 16.6016 58.0631 17.7825 58.0568H22.6006C22.6132 58.0568 22.6322 58.0568 22.6511 58.0568Z" fill="#CBF6FF"/>
<path id="Vector_29" fill-rule="evenodd" clip-rule="evenodd" d="M91.1908 58.0568C91.4434 58.0884 91.5255 58.1579 91.6328 58.2843C91.9422 58.6509 91.7654 59.3209 91.134 59.3525C89.5174 59.3525 87.9008 59.3399 86.2843 59.3525C84.9961 59.3778 83.8468 60.5156 83.8215 61.8176C83.8152 62.6077 83.79 63.3915 83.8215 64.1816C83.8342 64.3586 83.9857 64.504 84.1562 64.5103C86.2274 64.5356 88.305 64.5103 90.3825 64.5103C91.1655 64.5229 91.8791 65.1677 91.9359 65.9578C91.9359 65.9767 91.9359 66.0147 91.9422 66.0336C91.9675 68.1005 92.2074 70.3254 90.7677 71.5454C90.1804 72.0384 89.4164 72.3165 88.646 72.3228H83.3164C82.9501 72.3038 82.9185 72.209 82.8175 72.0889C82.5018 71.7097 82.7291 71.046 83.3164 71.0207C85.1034 71.0207 86.8842 71.0334 88.6712 71.0207C89.7005 71.0018 90.6351 70.0979 90.6477 69.0486C90.6603 68.0563 90.6919 67.0576 90.6477 66.0652C90.6414 65.9325 90.5277 65.8187 90.3888 65.8124C88.3176 65.7871 86.2401 65.8124 84.1688 65.8124C83.3164 65.7997 82.5649 65.0918 82.527 64.2069C82.5018 62.2411 82.4134 60.1489 83.9162 58.9164C84.5856 58.3665 85.4444 58.0631 86.3158 58.0568H91.134C91.1529 58.0568 91.1718 58.0568 91.1908 58.0568Z" fill="#CBF6FF"/>
</g>
</g>
<defs>
<filter id="filter0_dd" x="0" y="0" width="105" height="89" filterUnits="userSpaceOnUse" color-interpolation-filters="sRGB">
<feFlood flood-opacity="0" result="BackgroundImageFix"/>
<feColorMatrix in="SourceAlpha" type="matrix" values="0 0 0 0 0 0 0 0 0 0 0 0 0 0 0 0 0 0 127 0"/>
<feOffset/>
<feGaussianBlur stdDeviation="2"/>
<feColorMatrix type="matrix" values="0 0 0 0 0.241667 0 0 0 0 0.8635 0 0 0 0 1 0 0 0 1 0"/>
<feBlend mode="normal" in2="BackgroundImageFix" result="effect1_dropShadow"/>
<feColorMatrix in="SourceAlpha" type="matrix" values="0 0 0 0 0 0 0 0 0 0 0 0 0 0 0 0 0 0 127 0"/>
<feOffset dy="4"/>
<feGaussianBlur stdDeviation="2"/>
<feColorMatrix type="matrix" values="0 0 0 0 0 0 0 0 0 0 0 0 0 0 0 0 0 0 0.25 0"/>
<feBlend mode="normal" in2="effect1_dropShadow" result="effect2_dropShadow"/>
<feBlend mode="normal" in="SourceGraphic" in2="effect2_dropShadow" result="shape"/>
</filter>
</defs>
</svg>
