<svg width="147" height="71" viewBox="0 0 147 71" fill="none" xmlns="http://www.w3.org/2000/svg">
<g filter="url(#filter0_ddd)">
<path d="M50.1215 42.4H45.0815V48.808C45.0815 49.336 44.9135 49.732 44.5775 49.996C44.2655 50.284 43.9055 50.428 43.4975 50.428C43.1135 50.428 42.7655 50.284 42.4535 49.996C42.1415 49.732 41.9855 49.324 41.9855 48.772V26.848C41.9855 25.84 41.6135 24.976 40.8695 24.256C40.1495 23.536 39.2855 23.176 38.2775 23.176C37.2695 23.176 36.3935 23.536 35.6495 24.256C34.9295 24.976 34.5695 25.84 34.5695 26.848V48.808C34.5695 49.336 34.4015 49.732 34.0655 49.996C33.7535 50.284 33.3935 50.428 32.9855 50.428C32.6015 50.428 32.2535 50.284 31.9415 49.996C31.6295 49.732 31.4735 49.324 31.4735 48.772V26.848C31.4735 25.84 31.1135 24.976 30.3935 24.256C29.6735 23.536 28.8095 23.176 27.8015 23.176C26.7695 23.176 25.8935 23.536 25.1735 24.256C24.4535 24.976 24.0935 25.84 24.0935 26.848V48.808C24.0935 49.336 23.9255 49.732 23.5895 49.996C23.2775 50.284 22.9175 50.428 22.5095 50.428C22.1255 50.428 21.7775 50.284 21.4655 49.996C21.1535 49.732 20.9975 49.324 20.9975 48.772V26.848C20.9975 24.736 21.7055 23.08 23.1215 21.88C24.5375 20.68 26.1095 20.08 27.8375 20.08C27.9095 20.08 27.9695 20.08 28.0175 20.08C28.0895 20.08 28.1495 20.08 28.1975 20.08C29.0855 20.128 29.9495 20.356 30.7895 20.764C31.6295 21.172 32.3735 21.772 33.0215 22.564C33.7175 21.7 34.5215 21.076 35.4335 20.692C36.3455 20.284 37.2815 20.08 38.2415 20.08C39.9695 20.104 41.5415 20.728 42.9575 21.952C44.3735 23.152 45.0815 24.784 45.0815 26.848V39.34H50.1215C50.6495 39.34 51.0455 39.496 51.3095 39.808C51.5975 40.096 51.7535 40.42 51.7775 40.78C51.7775 40.804 51.7775 40.828 51.7775 40.852C51.7775 40.852 51.7775 40.864 51.7775 40.888C51.7775 41.272 51.6335 41.62 51.3455 41.932C51.0815 42.244 50.6735 42.4 50.1215 42.4ZM49.9775 40.996C50.0735 40.996 50.1455 40.972 50.1935 40.924C50.2415 40.876 50.2775 40.816 50.3015 40.744C50.3015 40.744 50.3015 40.732 50.3015 40.708C50.3015 40.684 50.3015 40.672 50.3015 40.672C50.3015 40.6 50.2775 40.54 50.2295 40.492C50.1815 40.42 50.0975 40.384 49.9775 40.384H43.6775V26.668C43.6775 25.156 43.1375 23.86 42.0575 22.78C40.9775 21.676 39.6695 21.124 38.1335 21.124C36.9575 21.124 35.8895 21.472 34.9295 22.168C33.9695 22.84 33.2855 23.74 32.8775 24.868C32.4935 23.74 31.8215 22.84 30.8615 22.168C29.9015 21.472 28.8335 21.124 27.6575 21.124C26.1215 21.124 24.8015 21.664 23.6975 22.744C22.6175 23.824 22.0775 25.132 22.0775 26.668V48.628C22.0775 48.724 22.1135 48.796 22.1855 48.844C22.2575 48.892 22.3415 48.916 22.4375 48.916C22.5095 48.916 22.5695 48.892 22.6175 48.844C22.6895 48.796 22.7255 48.712 22.7255 48.592V26.668C22.7255 25.324 23.2055 24.172 24.1655 23.212C25.1255 22.228 26.2895 21.736 27.6575 21.736C29.0015 21.736 30.1535 22.228 31.1135 23.212C32.0975 24.172 32.5895 25.324 32.5895 26.668V48.628C32.5895 48.7 32.6135 48.76 32.6615 48.808C32.7095 48.856 32.7695 48.88 32.8415 48.88C32.8415 48.88 32.8535 48.88 32.8775 48.88C32.9015 48.88 32.9135 48.88 32.9135 48.88C32.9855 48.88 33.0455 48.856 33.0935 48.808C33.1655 48.76 33.2015 48.688 33.2015 48.592C33.2015 44.968 33.2015 41.332 33.2015 37.684C33.2015 34.012 33.2015 30.34 33.2015 26.668C33.2015 25.324 33.6815 24.172 34.6415 23.212C35.6255 22.228 36.7895 21.736 38.1335 21.736C39.4775 21.736 40.6295 22.228 41.5895 23.212C42.5735 24.172 43.0655 25.324 43.0655 26.668V48.628C43.0655 48.7 43.0895 48.76 43.1375 48.808C43.1855 48.856 43.2455 48.892 43.3175 48.916C43.3175 48.916 43.3295 48.916 43.3535 48.916C43.3775 48.916 43.3895 48.916 43.3895 48.916C43.4615 48.916 43.5215 48.892 43.5695 48.844C43.6415 48.796 43.6775 48.712 43.6775 48.592V40.996H49.9775ZM74.6344 42.4H56.7064C54.5224 42.4 52.6504 41.62 51.0904 40.06C49.5544 38.5 48.7864 36.628 48.7864 34.444C48.7864 32.236 49.5544 30.364 51.0904 28.828C52.6504 27.268 54.5224 26.488 56.7064 26.488C58.1224 26.488 59.4304 26.836 60.6304 27.532C61.8544 28.204 62.8264 29.14 63.5464 30.34C63.6184 30.436 63.6664 30.556 63.6904 30.7C63.7144 30.82 63.7264 30.94 63.7264 31.06C63.7264 31.348 63.6664 31.624 63.5464 31.888C63.4264 32.152 63.2464 32.344 63.0064 32.464L56.2024 36.604C56.0344 36.7 55.8664 36.772 55.6984 36.82C55.5544 36.868 55.4104 36.892 55.2664 36.892C54.8344 36.868 54.4744 36.7 54.1864 36.388C53.8984 36.076 53.7544 35.716 53.7544 35.308C53.7544 35.236 53.7544 35.164 53.7544 35.092C53.7784 35.02 53.8024 34.96 53.8264 34.912C53.8744 34.72 53.9584 34.54 54.0784 34.372C54.2224 34.204 54.4024 34.06 54.6184 33.94L59.8744 30.736C59.4424 30.352 58.9504 30.064 58.3984 29.872C57.8704 29.68 57.3064 29.584 56.7064 29.584C55.3864 29.584 54.2464 30.064 53.2864 31.024C52.3264 31.96 51.8464 33.1 51.8464 34.444C51.8464 35.788 52.3264 36.94 53.2864 37.9C54.2464 38.86 55.3864 39.34 56.7064 39.34H74.6344C75.1624 39.34 75.5584 39.496 75.8224 39.808C76.1104 40.096 76.2664 40.42 76.2904 40.78C76.2904 40.804 76.2904 40.828 76.2904 40.852C76.2904 40.852 76.2904 40.864 76.2904 40.888C76.2664 41.272 76.1224 41.62 75.8584 41.932C75.5944 42.244 75.1864 42.4 74.6344 42.4ZM74.3824 40.888C74.4784 40.888 74.5504 40.864 74.5984 40.816C74.6464 40.768 74.6824 40.708 74.7064 40.636C74.7064 40.636 74.7064 40.624 74.7064 40.6C74.7064 40.576 74.7064 40.564 74.7064 40.564C74.7064 40.492 74.6824 40.432 74.6344 40.384C74.5864 40.312 74.5024 40.276 74.3824 40.276C71.4064 40.276 68.4184 40.276 65.4184 40.276C62.4424 40.276 59.4544 40.276 56.4544 40.276C54.7744 40.276 53.3344 39.676 52.1344 38.476C50.9584 37.276 50.3704 35.836 50.3704 34.156C50.3704 32.476 50.9584 31.036 52.1344 29.836C53.3344 28.636 54.7744 28.036 56.4544 28.036C57.4864 28.036 58.4464 28.276 59.3344 28.756C60.2224 29.236 60.9544 29.896 61.5304 30.736C60.9784 31.072 60.4264 31.408 59.8744 31.744C59.3464 32.08 58.8064 32.404 58.2544 32.716C57.7024 33.052 57.1504 33.388 56.5984 33.724C56.0704 34.036 55.5304 34.36 54.9784 34.696C54.9544 34.72 54.9184 34.756 54.8704 34.804C54.8464 34.828 54.8344 34.864 54.8344 34.912C54.8104 34.936 54.7984 34.96 54.7984 34.984C54.7984 34.984 54.7984 34.996 54.7984 35.02C54.8224 35.092 54.8584 35.164 54.9064 35.236C54.9544 35.284 55.0264 35.296 55.1224 35.272C55.1464 35.272 55.1584 35.272 55.1584 35.272C55.1824 35.272 55.2064 35.272 55.2304 35.272C55.2544 35.248 55.2784 35.236 55.3024 35.236C56.4304 34.54 57.5584 33.856 58.6864 33.184C59.8384 32.488 60.9784 31.792 62.1064 31.096C62.1544 31.072 62.1784 31.048 62.1784 31.024C62.2024 30.976 62.2264 30.928 62.2504 30.88C62.2504 30.856 62.2504 30.832 62.2504 30.808C62.2504 30.784 62.2504 30.772 62.2504 30.772C62.2504 30.748 62.2384 30.724 62.2144 30.7C61.6144 29.692 60.7984 28.9 59.7664 28.324C58.7344 27.724 57.6304 27.424 56.4544 27.424C54.6064 27.424 53.0224 28.084 51.7024 29.404C50.4064 30.724 49.7584 32.308 49.7584 34.156C49.7584 36.004 50.4064 37.588 51.7024 38.908C53.0224 40.228 54.6064 40.888 56.4544 40.888C59.4544 40.888 62.4424 40.888 65.4184 40.888C68.4184 40.888 71.4064 40.888 74.3824 40.888ZM102.347 42.4H87.2625C86.8785 42.4 86.5305 42.244 86.2185 41.932C85.9065 41.62 85.7505 41.272 85.7505 40.888V33.256C85.7505 32.248 85.3905 31.384 84.6705 30.664C83.9505 29.944 83.0865 29.584 82.0785 29.584C81.0705 29.584 80.2065 29.944 79.4865 30.664C78.7665 31.384 78.4065 32.248 78.4065 33.256V40.888C78.4065 41.44 78.2385 41.86 77.9025 42.148C77.5905 42.412 77.2305 42.544 76.8225 42.544C76.4385 42.544 76.0905 42.4 75.7785 42.112C75.4665 41.824 75.3105 41.416 75.3105 40.888V33.256C75.3105 31.384 75.9705 29.788 77.2905 28.468C78.6105 27.148 80.2065 26.488 82.0785 26.488C83.9265 26.488 85.5105 27.148 86.8305 28.468C88.1505 29.788 88.8105 31.384 88.8105 33.256V39.34H102.347C102.875 39.34 103.271 39.496 103.535 39.808C103.823 40.096 103.979 40.42 104.003 40.78C104.003 40.804 104.003 40.828 104.003 40.852C104.003 40.852 104.003 40.864 104.003 40.888C103.979 41.272 103.835 41.62 103.571 41.932C103.307 42.244 102.899 42.4 102.347 42.4ZM102.059 40.888C102.155 40.888 102.227 40.864 102.275 40.816C102.347 40.768 102.395 40.708 102.419 40.636C102.419 40.636 102.419 40.624 102.419 40.6C102.419 40.576 102.419 40.564 102.419 40.564C102.395 40.492 102.359 40.432 102.311 40.384C102.263 40.312 102.179 40.276 102.059 40.276C100.835 40.276 99.6105 40.276 98.3865 40.276C97.1625 40.276 95.9385 40.276 94.7145 40.276C93.4665 40.276 92.2305 40.276 91.0065 40.276C89.7825 40.276 88.5585 40.276 87.3345 40.276C87.3345 39.052 87.3345 37.828 87.3345 36.604C87.3345 35.38 87.3345 34.168 87.3345 32.968C87.3345 31.432 86.7825 30.124 85.6785 29.044C84.5985 27.964 83.3025 27.424 81.7905 27.424C80.2785 27.424 78.9825 27.964 77.9025 29.044C76.8225 30.124 76.2825 31.432 76.2825 32.968C76.2825 33.592 76.2825 34.228 76.2825 34.876C76.2825 35.5 76.2825 36.124 76.2825 36.748C76.2825 37.396 76.2825 38.044 76.2825 38.692C76.2825 39.316 76.2825 39.94 76.2825 40.564C76.2825 40.66 76.3065 40.744 76.3545 40.816C76.4025 40.864 76.4625 40.9 76.5345 40.924C76.5345 40.924 76.5465 40.924 76.5705 40.924C76.5945 40.924 76.6065 40.924 76.6065 40.924C76.6785 40.9 76.7385 40.864 76.7865 40.816C76.8585 40.744 76.8945 40.66 76.8945 40.564C76.8945 39.94 76.8945 39.316 76.8945 38.692C76.8945 38.044 76.8945 37.396 76.8945 36.748C76.8945 36.124 76.8945 35.5 76.8945 34.876C76.8945 34.228 76.8945 33.592 76.8945 32.968C76.8945 31.624 77.3745 30.472 78.3345 29.512C79.2945 28.528 80.4465 28.036 81.7905 28.036C83.1345 28.036 84.2865 28.528 85.2465 29.512C86.2305 30.472 86.7225 31.624 86.7225 32.968C86.7225 33.592 86.7225 34.228 86.7225 34.876C86.7225 35.5 86.7225 36.124 86.7225 36.748C86.7225 37.396 86.7225 38.044 86.7225 38.692C86.7225 39.316 86.7225 39.94 86.7225 40.564C86.7225 40.66 86.7465 40.744 86.7945 40.816C86.8665 40.864 86.9385 40.888 87.0105 40.888C89.5305 40.888 92.0385 40.888 94.5345 40.888C97.0545 40.888 99.5625 40.888 102.059 40.888ZM125.327 42.4H108.479C106.631 42.4 105.047 41.74 103.727 40.42C102.407 39.1 101.747 37.516 101.747 35.668L101.711 28.036C101.735 27.484 101.915 27.076 102.251 26.812C102.563 26.524 102.911 26.38 103.295 26.38C103.679 26.38 104.027 26.524 104.339 26.812C104.651 27.076 104.807 27.484 104.807 28.036V35.668C104.807 36.652 105.167 37.516 105.887 38.26C106.607 38.98 107.471 39.34 108.479 39.34H112.151V28.036C112.151 27.484 112.319 27.076 112.655 26.812C112.991 26.524 113.351 26.38 113.735 26.38C114.119 26.38 114.467 26.524 114.779 26.812C115.091 27.076 115.247 27.484 115.247 28.036V39.34H125.327C125.855 39.34 126.263 39.496 126.551 39.808C126.839 40.096 126.983 40.42 126.983 40.78C126.983 40.804 126.983 40.828 126.983 40.852C126.983 40.852 126.983 40.864 126.983 40.888C126.983 41.272 126.839 41.62 126.551 41.932C126.287 42.244 125.879 42.4 125.327 42.4ZM125.075 40.888C125.171 40.888 125.243 40.864 125.291 40.816C125.339 40.768 125.375 40.708 125.399 40.636C125.399 40.636 125.399 40.624 125.399 40.6C125.399 40.576 125.399 40.564 125.399 40.564C125.399 40.492 125.375 40.432 125.327 40.384C125.279 40.312 125.195 40.276 125.075 40.276C123.179 40.276 121.283 40.276 119.387 40.276C117.515 40.276 115.631 40.276 113.735 40.276C113.735 38.188 113.735 36.1 113.735 34.012C113.735 31.924 113.735 29.836 113.735 27.748C113.735 27.652 113.711 27.58 113.663 27.532C113.615 27.484 113.555 27.448 113.483 27.424C113.483 27.424 113.471 27.424 113.447 27.424C113.447 27.424 113.435 27.424 113.411 27.424C113.339 27.424 113.267 27.448 113.195 27.496C113.147 27.544 113.123 27.628 113.123 27.748C113.123 29.836 113.123 31.924 113.123 34.012C113.123 36.1 113.123 38.188 113.123 40.276C112.307 40.276 111.491 40.276 110.675 40.276C109.859 40.276 109.043 40.276 108.227 40.276C106.883 40.276 105.719 39.796 104.735 38.836C103.775 37.852 103.295 36.688 103.295 35.344C103.295 34.72 103.295 34.096 103.295 33.472C103.295 32.824 103.295 32.176 103.295 31.528C103.295 30.904 103.295 30.28 103.295 29.656C103.295 29.008 103.295 28.372 103.295 27.748C103.295 27.652 103.283 27.58 103.259 27.532C103.211 27.484 103.151 27.448 103.079 27.424C103.079 27.424 103.067 27.424 103.043 27.424C103.019 27.424 103.007 27.424 103.007 27.424C102.935 27.424 102.875 27.448 102.827 27.496C102.755 27.544 102.719 27.628 102.719 27.748C102.719 28.372 102.719 29.008 102.719 29.656C102.719 30.28 102.719 30.904 102.719 31.528C102.719 32.176 102.719 32.824 102.719 33.472C102.719 34.096 102.719 34.72 102.719 35.344C102.719 36.88 103.247 38.188 104.303 39.268C105.383 40.348 106.691 40.888 108.227 40.888C111.035 40.888 113.843 40.888 116.651 40.888C119.459 40.888 122.267 40.888 125.075 40.888Z" fill="#FFF2FB"/>
</g>
<defs>
<filter id="filter0_ddd" x="0.997513" y="0.0799561" width="145.985" height="70.348" filterUnits="userSpaceOnUse" color-interpolation-filters="sRGB">
<feFlood flood-opacity="0" result="BackgroundImageFix"/>
<feColorMatrix in="SourceAlpha" type="matrix" values="0 0 0 0 0 0 0 0 0 0 0 0 0 0 0 0 0 0 127 0"/>
<feOffset/>
<feGaussianBlur stdDeviation="10"/>
<feColorMatrix type="matrix" values="0 0 0 0 0.941667 0 0 0 0 0.051007 0 0 0 0 0.8526 0 0 0 0.25 0"/>
<feBlend mode="normal" in2="BackgroundImageFix" result="effect1_dropShadow"/>
<feColorMatrix in="SourceAlpha" type="matrix" values="0 0 0 0 0 0 0 0 0 0 0 0 0 0 0 0 0 0 127 0"/>
<feOffset/>
<feGaussianBlur stdDeviation="5"/>
<feColorMatrix type="matrix" values="0 0 0 0 0.975 0 0 0 0 0.345313 0 0 0 0 0.798688 0 0 0 0.5 0"/>
<feBlend mode="normal" in2="effect1_dropShadow" result="effect2_dropShadow"/>
<feColorMatrix in="SourceAlpha" type="matrix" values="0 0 0 0 0 0 0 0 0 0 0 0 0 0 0 0 0 0 127 0"/>
<feOffset dy="4"/>
<feGaussianBlur stdDeviation="2.5"/>
<feColorMatrix type="matrix" values="0 0 0 0 0.9875 0 0 0 0 0.752969 0 0 0 0 0.949975 0 0 0 0.25 0"/>
<feBlend mode="normal" in2="effect2_dropShadow" result="effect3_dropShadow"/>
<feBlend mode="normal" in="SourceGraphic" in2="effect3_dropShadow" result="shape"/>
</filter>
</defs>
</svg>
