<svg id="Palme_1" data-name="Palme 1" xmlns="http://www.w3.org/2000/svg" viewBox="0 0 397.96 453.29"><g id="Ebene_2" data-name="Ebene 2"><path d="M5.35,64.19,1.14,58.51s98.92-22.25,198.58,104.64S303.83,393.39,303.83,393.39s-22.91-117.82-99.2-218.12q-5.79-7.62-12-15.09C106.7,57,5.35,64.19,5.35,64.19Z" transform="translate(0 -9.55)"/><path d="M194.05,400.69S201,337,215.51,291.36s27.41-61.88,27.41-61.88-11.6,43.33-20.78,66.27S194.05,400.69,194.05,400.69Z" transform="translate(0 -9.55)"/><path d="M207.61,415.58S209.46,355.41,224,309.8s27.41-61.89,27.41-61.89-11.6,43.34-20.78,66.27S207.61,415.58,207.61,415.58Z" transform="translate(0 -9.55)"/><path d="M216.58,431s1.86-60.17,16.39-105.78,27.41-61.89,27.41-61.89-11.6,43.34-20.79,66.28S216.58,431,216.58,431Z" transform="translate(0 -9.55)"/><path d="M227.58,427.29s1.75-54.47,15.06-95.78,25.09-56.05,25.09-56.05-10.63,39.24-19,60S227.58,427.29,227.58,427.29Z" transform="translate(0 -9.55)"/><path d="M241.24,432.48s.89-51.73,11.82-90.82,20.83-53,20.83-53-6.6,41.57-13.56,61.21S241.24,432.48,241.24,432.48Z" transform="translate(0 -9.55)"/><path d="M251.74,441.26s.6-48,10.24-84.29,18.46-49.11,18.46-49.11-4.25,38.21-10.41,56.42S251.74,441.26,251.74,441.26Z" transform="translate(0 -9.55)"/><path d="M262.19,451s.22-45.42,8.56-79.64,16.13-46.32,16.13-46.32-3.53,36.1-8.9,53.29S262.19,451,262.19,451Z" transform="translate(0 -9.55)"/><path d="M278.65,449.11s-.72-39.32,4.48-68.79,10.43-39.78,10.43-39.78-1.79,31.18-5.23,45.95S278.65,449.11,278.65,449.11Z" transform="translate(0 -9.55)"/><path d="M298.5,462.84s-4.8-29.06-4-55.27,5-41.55,5-41.55.5,36.34-.28,49.44S298.5,462.84,298.5,462.84Z" transform="translate(0 -9.55)"/><path d="M327.53,461.07s-5.89-27.76-11.66-45.86a132.63,132.63,0,0,0-13.94-30.36s1.34,26.55,4.57,35.52S327.53,461.07,327.53,461.07Z" transform="translate(0 -9.55)"/><path d="M182.91,386.58S191,323,206.32,277.65s28.51-61.39,28.51-61.39-12.37,43.12-22,65.89S182.91,386.58,182.91,386.58Z" transform="translate(0 -9.55)"/><path d="M165.88,365.13s14.12-56.46,29.46-101.8,28.51-61.39,28.51-61.39-12.37,43.12-22,65.89S165.88,365.13,165.88,365.13Z" transform="translate(0 -9.55)"/><path d="M145.75,361.51s12.9-63.6,33.85-108.88,37.87-61.23,37.87-61.23-17.21,43.08-30.05,65.8S145.75,361.51,145.75,361.51Z" transform="translate(0 -9.55)"/><path d="M137.13,348.16S150,284.56,171,239.28s37.86-61.23,37.86-61.23-17.21,43.08-30,65.8S137.13,348.16,137.13,348.16Z" transform="translate(0 -9.55)"/><path d="M126.35,331.68s12.89-63.6,33.85-108.88,37.86-61.23,37.86-61.23-13.53,46.31-26.37,69S126.35,331.68,126.35,331.68Z" transform="translate(0 -9.55)"/><path d="M115.09,322S128,258.41,148.94,213.14s37.86-61.23,37.86-61.23-13.53,46.3-26.37,69S115.09,322,115.09,322Z" transform="translate(0 -9.55)"/><path d="M111.19,305.63s7.33-59.58,28.28-104.85,37.87-61.23,37.87-61.23-13.53,46.3-26.37,69S111.19,305.63,111.19,305.63Z" transform="translate(0 -9.55)"/><path d="M103.24,291.78s2.05-59,23-104.24,37.86-61.23,37.86-61.23-13.53,46.31-26.37,69S103.24,291.78,103.24,291.78Z" transform="translate(0 -9.55)"/><path d="M89.49,283.25s2.06-59,23-104.24,37.86-61.23,37.86-61.23-13.53,46.3-26.37,69S89.49,283.25,89.49,283.25Z" transform="translate(0 -9.55)"/><path d="M77.5,259.31s2.71-53.63,25-95,40-56,40-56-14.54,42.23-28.13,63S77.5,259.31,77.5,259.31Z" transform="translate(0 -9.55)"/><path d="M74.65,234.92S71.12,182.47,89.9,144.7c23.26-46.79,38.18-48.53,38.18-48.53s4,.91-23.39,42.06C91.85,157.5,74.65,234.92,74.65,234.92Z" transform="translate(0 -9.55)"/><path d="M60.7,226s-3.53-52.45,15.24-90.22C99.2,89,114.12,87.24,114.12,87.24s4,.91-23.39,42.06C77.89,148.57,60.7,226,60.7,226Z" transform="translate(0 -9.55)"/><path d="M57.72,200.39S47.21,151.09,61,117.78c17.09-41.26,35.66-39.9,35.66-39.9s-3.84,4.75-24.13,41C63,135.82,57.72,200.39,57.72,200.39Z" transform="translate(0 -9.55)"/><path d="M136.6,364.32" transform="translate(0 -9.55)"/><path d="M0,64.66V58.27s100.06-22,199.72,104.88S303.83,393.39,303.83,393.39s-22.91-117.82-99.2-218.12q-5.79-7.62-12-15.09C106.7,57,0,64.66,0,64.66Z" transform="translate(0 -9.55)"/><path d="M378,188.16s-47.28-8.74-85.36,6-55.14,29.26-55.14,29.26,35.18-11.32,55.18-21S378,188.16,378,188.16Z" transform="translate(0 -9.55)"/><path d="M382.12,205.44s-42.54-14.64-80.61.08-55.14,29.26-55.14,29.26,35.18-11.32,55.18-21S382.12,205.44,382.12,205.44Z" transform="translate(0 -9.55)"/><path d="M388.73,217.23s-42.54-14.64-80.62.08S253,246.57,253,246.57s35.18-11.32,55.18-21S388.73,217.23,388.73,217.23Z" transform="translate(0 -9.55)"/><path d="M378.24,231.3s-38.55-14.42-73.1-.91-50.06,26.82-50.06,26.82,31.92-10.4,50.07-19.27S378.24,231.3,378.24,231.3Z" transform="translate(0 -9.55)"/><path d="M378.61,247.09s-36.27-15.28-68.21-4.52-46,21.88-46,21.88,31.71-5.39,48.42-12.58S378.61,247.09,378.61,247.09Z" transform="translate(0 -9.55)"/><path d="M372.57,262.4s-33.58-15.41-63-6-42.27,19.25-42.27,19.25,28.32-2.76,43.68-9.07S372.57,262.4,372.57,262.4Z" transform="translate(0 -9.55)"/><path d="M262.19,451s.22-45.42,8.56-79.64,16.13-46.32,16.13-46.32-3.53,36.1-8.9,53.29S262.19,451,262.19,451Z" transform="translate(0 -9.55)"/><path d="M357.67,390s-13.91-10.53-29.85-14.58S300.11,373,300.11,373s21,7.33,29.23,8.95S357.67,390,357.67,390Z" transform="translate(0 -9.55)"/><path d="M358.63,398.23s-13.91-10.53-29.84-14.58-27.72-2.43-27.72-2.43,21,7.32,29.24,8.94S358.63,398.23,358.63,398.23Z" transform="translate(0 -9.55)"/><path d="M327.53,461.07s-5.89-27.76-11.66-45.86a132.63,132.63,0,0,0-13.94-30.36s1.34,26.55,4.57,35.52S327.53,461.07,327.53,461.07Z" transform="translate(0 -9.55)"/><path d="M375.24,156.2s-57.69,0-92.53,21.26S233.76,216,233.76,216s32.63-17.39,50.56-30.43S375.24,156.2,375.24,156.2Z" transform="translate(0 -9.55)"/><path d="M365.72,135.56s-54.15,7.37-89,28.6-49,38.52-49,38.52,32.63-17.4,50.56-30.44S365.72,135.56,365.72,135.56Z" transform="translate(0 -9.55)"/><path d="M368,109.41s-58.81,6.12-94.89,34.43-51,50.3-51,50.3,33.71-23.49,52.35-40.63S368,109.41,368,109.41Z" transform="translate(0 -9.55)"/><path d="M339.15,91.67S286,99.05,254.63,128s-44.09,50.89-44.09,50.89,29.39-24.14,45.54-41.53S339.15,91.67,339.15,91.67Z" transform="translate(0 -9.55)"/><path d="M320.62,69.32s-52.05,9.47-81.9,40-41.43,53.09-41.43,53.09S227,141,242.21,122.83,320.62,69.32,320.62,69.32Z" transform="translate(0 -9.55)"/><path d="M286.16,33.49s-49,14.3-74.8,48.28-34.48,57.83-34.48,57.83,26.78-24.89,39.63-44.84S286.16,33.49,286.16,33.49Z" transform="translate(0 -9.55)"/><path d="M294.4,54.67s-46.84,6.67-72.67,40.64-34.49,57.83-34.49,57.83,26.79-24.88,39.64-44.83S294.4,54.67,294.4,54.67Z" transform="translate(0 -9.55)"/><path d="M272.24,33.33s-46.72,0-72.54,34-34.49,57.83-34.49,57.83S192,100.22,204.84,80.27,272.24,33.33,272.24,33.33Z" transform="translate(0 -9.55)"/><path d="M257.59,26.48s-46.72,0-72.54,33.94-34.49,57.83-34.49,57.83,26.78-24.88,39.63-44.83S257.59,26.48,257.59,26.48Z" transform="translate(0 -9.55)"/><path d="M240.72,14s-43.53-.13-67,34.8-31.31,59.63-31.31,59.63,24.32-25.44,36-46S240.72,14,240.72,14Z" transform="translate(0 -9.55)"/><path d="M216.88,18.68s-43.13-8.13-64.61,21.83c-26.62,37.11-27,56-27,56s.72,4.88,23.81-36.46C159.94,40.73,216.88,18.68,216.88,18.68Z" transform="translate(0 -9.55)"/><path d="M202.08,10.56S159,2.43,137.47,32.39c-26.62,37.11-26.95,56-26.95,56s.72,4.88,23.81-36.46C145.14,32.61,202.08,10.56,202.08,10.56Z" transform="translate(0 -9.55)"/><path d="M175.86,23.09s-41.58-17.38-60.66,5.6c-23.63,28.45-22,51.39-22,51.39s2.63-5.62,23.13-37.19C126,28.1,175.86,23.09,175.86,23.09Z" transform="translate(0 -9.55)"/><path d="M360.11,85" transform="translate(0 -9.55)"/><path d="M397.79,300.85s-40.46-15.59-71.89-8.3-43.14,15.24-43.14,15.24S315.25,306,331.17,301,397.79,300.85,397.79,300.85Z" transform="translate(0 -9.55)"/><path d="M389.54,287s-40.46-15.59-71.89-8.3-43.15,15.25-43.15,15.25,32.49-1.82,48.42-6.79S389.54,287,389.54,287Z" transform="translate(0 -9.55)"/><path d="M386.71,374.25s-31.51-27.15-57.27-29.84-36.21,2.84-36.21,2.84,24.42,8.86,37.64,9.45S386.71,374.25,386.71,374.25Z" transform="translate(0 -9.55)"/><path d="M398,324.45s-38.6-15.42-68.73-9.07-41.46,13.33-41.46,13.33,31.06-1.51,46.35-5.86S398,324.45,398,324.45Z" transform="translate(0 -9.55)"/></g></svg>