<svg width="1031" height="980" viewBox="0 0 1031 980" fill="none" xmlns="http://www.w3.org/2000/svg">
<g filter="url(#filter0_d)">
<path d="M-108.429 0.826173L-119.886 -12.0677C-119.886 -12.0677 159.076 -57.3172 430.769 230.984C702.462 519.286 708.473 750.607 708.473 750.607C708.473 750.607 651.571 486.086 443.787 258.312C433.274 246.775 422.366 235.345 411.061 224.019C176.408 -10.6344 -108.429 0.826173 -108.429 0.826173Z" fill="#212E1D"/>
<path d="M392.212 771.954C392.212 771.954 416.022 627.837 460.616 525.076C505.211 422.315 543.431 386.166 543.431 386.166C543.431 386.166 507.38 483.843 479.514 535.392C451.648 586.941 392.212 771.954 392.212 771.954Z" fill="#212E1D"/>
<path d="M428.405 807.348C428.405 807.348 437.257 670.815 482.021 568.04C526.785 465.264 565.009 429 565.009 429C565.009 429 528.893 526.782 500.971 578.349C473.049 629.916 428.405 807.348 428.405 807.348Z" fill="#212E1D"/>
<path d="M451.801 843.468C451.801 843.468 460.681 706.935 505.416 604.159C550.151 501.384 588.405 465.12 588.405 465.12C588.405 465.12 552.288 562.902 524.337 614.491C496.385 666.08 451.801 843.468 451.801 843.468Z" fill="#212E1D"/>
<path d="M482.153 835.877C482.153 835.877 490.386 712.298 531.327 619.23C572.267 526.162 607.234 493.338 607.234 493.338C607.234 493.338 574.173 581.852 548.731 628.531C523.289 675.21 482.153 835.877 482.153 835.877Z" fill="#212E1D"/>
<path d="M519.388 849.059C519.388 849.059 524.936 731.474 558.966 643.197C592.995 554.921 622.589 523.846 622.589 523.846C622.589 523.846 601.012 618.006 579.643 662.276C558.274 706.546 519.388 849.059 519.388 849.059Z" fill="#212E1D"/>
<path d="M547.655 870.188C547.655 870.188 552.133 761.013 582.286 678.995C612.438 596.976 638.866 568.309 638.866 568.309C638.866 568.309 624.309 655.002 605.325 696.083C586.341 737.165 547.655 870.188 547.655 870.188Z" fill="#212E1D"/>
<path d="M575.722 893.519C575.722 893.519 578.924 790.104 605.223 712.663C631.522 635.221 654.968 608.118 654.968 608.118C654.968 608.118 642.619 690.119 625.958 728.952C609.297 767.786 575.722 893.519 575.722 893.519Z" fill="#212E1D"/>
<path d="M621.274 890.78C621.274 890.78 621.283 800.943 638.264 733.964C655.246 666.984 671.274 643.76 671.274 643.76C671.274 643.76 664.285 714.854 653.308 748.372C642.331 781.891 621.274 890.78 621.274 890.78Z" fill="#212E1D"/>
<path d="M676.763 924.347C676.763 924.347 663.462 857.336 667.27 797.247C671.078 737.158 684.806 702.244 684.806 702.244C684.806 702.244 684.484 785.667 681.409 815.674C678.335 845.681 676.763 924.347 676.763 924.347Z" fill="#212E1D"/>
<path d="M756.674 920.966C756.674 920.966 741.388 857.795 725.871 816.506C716.876 792.175 704.014 768.831 687.589 747.028C687.589 747.028 689.863 807.221 698.618 827.702C707.373 848.184 756.674 920.966 756.674 920.966Z" fill="#212E1D"/>
<path d="M362.701 738.62C362.701 738.62 389.778 594.912 436.63 492.917C483.481 390.921 522.463 355.259 522.463 355.259C522.463 355.259 484.25 452.356 455.137 503.464C426.025 554.573 362.701 738.62 362.701 738.62Z" fill="#212E1D"/>
<path d="M317.594 687.961C317.594 687.961 361.515 560.918 408.274 459.103C455.032 357.288 493.808 321.646 493.808 321.646C493.808 321.646 455.71 418.59 426.697 469.623C397.684 520.656 317.594 687.961 317.594 687.961Z" fill="#212E1D"/>
<path d="M262.579 677.897C262.579 677.897 303.308 534.91 365.934 433.7C428.56 332.489 477.887 297.314 477.887 297.314C477.887 297.314 426.084 393.744 388.007 444.411C349.93 495.079 262.579 677.897 262.579 677.897Z" fill="#212E1D"/>
<path d="M240.012 646.568C240.012 646.568 280.656 503.58 343.424 402.372C406.193 301.164 455.349 265.987 455.349 265.987C455.349 265.987 403.546 362.416 365.612 413.086C327.678 463.756 240.012 646.568 240.012 646.568Z" fill="#212E1D"/>
<path d="M211.781 607.885C211.781 607.885 252.482 464.898 315.136 363.688C377.791 262.477 427.061 227.302 427.061 227.302C427.061 227.302 385.58 331.21 347.505 381.81C309.429 432.41 211.781 607.885 211.781 607.885Z" fill="#212E1D"/>
<path d="M181.86 584.833C181.86 584.833 222.618 441.87 285.214 340.681C347.811 239.493 397.139 204.295 397.139 204.295C397.139 204.295 355.659 308.181 317.583 358.803C279.507 409.426 181.86 584.833 181.86 584.833Z" fill="#212E1D"/>
<path d="M172.55 547.023C172.55 547.023 197.131 412.746 259.835 311.497C322.538 210.248 371.935 175.034 371.935 175.034C371.935 175.034 330.409 278.986 292.283 329.638C254.158 380.29 172.55 547.023 172.55 547.023Z" fill="#212E1D"/>
<path d="M152.087 514.714C152.087 514.714 161.507 381.354 224.32 280.09C287.132 178.826 336.6 143.522 336.6 143.522C336.6 143.522 295.009 247.587 256.814 298.256C218.619 348.925 152.087 514.714 152.087 514.714Z" fill="#212E1D"/>
<path d="M115.361 494.143C115.361 494.143 124.811 360.783 187.594 259.519C250.378 158.254 299.875 122.951 299.875 122.951C299.875 122.951 258.284 226.993 220.089 277.685C181.894 328.376 115.361 494.143 115.361 494.143Z" fill="#212E1D"/>
<path d="M84.2977 438.246C84.2977 438.246 95.299 317.296 161.486 225.003C227.674 132.709 279.153 100.561 279.153 100.561C279.153 100.561 235.051 195.182 194.968 241.399C154.885 287.616 84.2977 438.246 84.2977 438.246Z" fill="#212E1D"/>
<path d="M78.701 382.228C78.701 382.228 71.7516 263.479 127.822 179.048C197.268 74.4538 240.11 71.2778 240.11 71.2778C240.11 71.2778 251.512 73.538 170.576 165.173C132.636 208.083 78.701 382.228 78.701 382.228Z" fill="#212E1D"/>
<path d="M41.457 360.745C41.457 360.745 34.5074 241.995 90.5493 157.564C159.995 52.9918 202.839 49.7705 202.839 49.7705C202.839 49.7705 214.241 52.0308 133.305 143.666C95.3639 186.576 41.457 360.745 41.457 360.745Z" fill="#212E1D"/>
<path d="M36.2113 301.912C36.2113 301.912 8.96293 189.776 50.5673 115.093C102.126 22.5852 155.392 26.6254 155.392 26.6254C155.392 26.6254 144.077 37.1782 83.6243 118.18C55.2354 156.03 36.2113 301.912 36.2113 301.912Z" fill="#212E1D"/>
<path d="M-123.385 1.62994L-122.984 -12.6593C-122.984 -12.6593 159.141 -57.2965 430.815 230.97C702.49 519.237 708.499 750.572 708.499 750.572C708.499 750.572 651.601 486.061 443.832 258.297C433.32 246.761 422.412 235.331 411.109 224.006C176.473 -10.638 -123.385 1.62994 -123.385 1.62994Z" fill="#212E1D"/>
<path d="M909.273 297.66C909.273 297.66 780.159 275.952 674.909 306.698C569.658 337.443 522.047 368.748 522.047 368.748C522.047 368.748 619.149 345.431 674.54 324.991C729.931 304.551 909.273 297.66 909.273 297.66Z" fill="#212E1D"/>
<path d="M919.307 337.349C919.307 337.349 803.554 302.806 698.355 333.505C593.157 364.203 545.529 395.551 545.529 395.551C545.529 395.551 642.609 372.238 697.987 351.799C753.366 331.36 919.307 337.349 919.307 337.349Z" fill="#212E1D"/>
<path d="M936.521 364.949C936.521 364.949 820.768 330.406 715.542 361.104C610.316 391.803 562.797 423.153 562.797 423.153C562.797 423.153 659.878 399.839 715.256 379.4C770.635 358.961 936.521 364.949 936.521 364.949Z" fill="#212E1D"/>
<path d="M907.113 396.599C907.113 396.599 802.281 362.743 706.797 390.938C611.314 419.133 568.031 447.835 568.031 447.835C568.031 447.835 656.126 426.396 706.388 407.658C756.651 388.92 907.113 396.599 907.113 396.599Z" fill="#212E1D"/>
<path d="M906.796 432.665C906.796 432.665 808.412 396.962 720.392 419.182C632.372 441.402 593.262 465.329 593.262 465.329C593.262 465.329 680.346 454.997 726.484 439.913C772.622 424.83 906.796 432.665 906.796 432.665Z" fill="#212E1D"/>
<path d="M889.356 467.404C889.356 467.404 798.389 431.525 717.391 450.878C636.393 470.232 600.689 491.387 600.689 491.387C600.689 491.387 678.302 486.719 720.67 473.517C763.038 460.316 889.356 467.404 889.356 467.404Z" fill="#212E1D"/>
<path d="M575.722 893.519C575.722 893.519 578.924 790.104 605.223 712.663C631.522 635.221 654.968 608.118 654.968 608.118C654.968 608.118 642.619 690.119 625.958 728.952C609.297 767.786 575.722 893.519 575.722 893.519Z" fill="#212E1D"/>
<path d="M841.327 759.673C841.327 759.673 803.76 735.675 760.243 725.925C716.725 716.175 684.322 719.205 684.322 719.205C684.322 719.205 741.537 736.466 764.033 740.458C786.53 744.449 841.327 759.673 841.327 759.673Z" fill="#212E1D"/>
<path d="M843.455 778.693C843.455 778.693 805.888 754.695 762.398 744.946C718.907 735.196 686.45 738.204 686.45 738.204C686.45 738.204 743.666 755.443 766.189 759.434C788.713 763.426 843.455 778.693 843.455 778.693Z" fill="#212E1D"/>
<path d="M756.674 920.966C756.674 920.966 741.388 857.795 725.871 816.506C716.876 792.175 704.014 768.831 687.589 747.028C687.589 747.028 689.863 807.221 698.618 827.702C707.373 848.184 756.674 920.966 756.674 920.966Z" fill="#212E1D"/>
<path d="M904.817 224.842C904.817 224.842 745.765 222.113 648.433 267.573C551.102 313.032 511.162 350.653 511.162 350.653C511.162 350.653 602.168 313.664 652.385 285.619C702.601 257.573 904.817 224.842 904.817 224.842Z" fill="#212E1D"/>
<path d="M880.575 176.914C880.575 176.914 730.523 190.731 632.951 236.183C535.38 281.634 495.237 319.315 495.237 319.315C495.237 319.315 586.443 282.252 636.771 254.173C687.099 226.093 880.575 176.914 880.575 176.914Z" fill="#212E1D"/>
<path d="M889.102 117.338C889.102 117.338 725.78 128.223 624.074 189.424C522.368 250.625 479.679 298.766 479.679 298.766C479.679 298.766 574.522 248.158 627.221 210.957C679.92 173.756 889.102 117.338 889.102 117.338Z" fill="#212E1D"/>
<path d="M811.995 74.6602C811.995 74.6602 663.873 88.6486 574.926 151.592C485.979 214.536 449.281 262.741 449.281 262.741C449.281 262.741 532.429 210.403 578.375 172.471C624.321 134.539 811.995 74.6602 811.995 74.6602Z" fill="#212E1D"/>
<path d="M763.302 22.1014C763.302 22.1014 617.816 40.82 532.82 107.426C447.824 174.033 414.184 223.727 414.184 223.727C414.184 223.727 498.223 177.415 541.695 137.659C585.167 97.9016 763.302 22.1014 763.302 22.1014Z" fill="#212E1D"/>
<path d="M672.367 -62.4308C672.367 -62.4308 534.376 -32.7276 460.063 41.9632C385.751 116.654 359.972 169.506 359.972 169.506C359.972 169.506 436.457 115.153 473.659 71.197C510.861 27.2411 672.367 -62.4308 672.367 -62.4308Z" fill="#212E1D"/>
<path d="M693.166 -13.2689C693.166 -13.2689 561.846 -0.509773 487.535 74.1079C413.223 148.726 387.529 201.565 387.529 201.565C387.529 201.565 463.955 147.271 501.114 103.344C538.274 59.4177 693.166 -13.2689 693.166 -13.2689Z" fill="#212E1D"/>
<path d="M634.175 -64.0676C634.175 -64.0676 503.79 -66.1833 429.608 8.44089C355.426 83.0651 329.742 135.795 329.742 135.795C329.742 135.795 406.065 81.4113 443.144 37.5198C480.224 -6.37172 634.175 -64.0676 634.175 -64.0676Z" fill="#212E1D"/>
<path d="M594.917 -80.8311C594.917 -80.8311 464.533 -82.9469 390.356 -8.45698C316.179 66.0329 290.491 118.896 290.491 118.896C290.491 118.896 366.781 64.6462 403.888 20.7554C440.995 -23.1353 594.917 -80.8311 594.917 -80.8311Z" fill="#212E1D"/>
<path d="M549.938 -110.656C549.938 -110.656 428.183 -112.919 360.345 -36.0118C292.507 40.8954 269.03 95.6757 269.03 95.6757C269.03 95.6757 338.652 39.9906 372.61 -5.3742C406.569 -50.739 549.938 -110.656 549.938 -110.656Z" fill="#212E1D"/>
<path d="M484.511 -101.917C484.511 -101.917 364.639 -121.995 302.815 -56.1758C226.199 25.3501 223.958 67.4455 223.958 67.4455C223.958 67.4455 225.663 78.3573 292.691 -12.7586C324.209 -55.338 484.511 -101.917 484.511 -101.917Z" fill="#212E1D"/>
<path d="M444.92 -121.614C444.92 -121.614 325.187 -141.69 263.222 -75.8727C186.605 5.65377 184.504 47.7516 184.504 47.7516C184.504 47.7516 186.209 58.6636 253.238 -32.453C284.617 -75.0349 444.92 -121.614 444.92 -121.614Z" fill="#212E1D"/>
<path d="M372.519 -95.3116C372.519 -95.3116 257.819 -135.892 203.259 -85.5956C135.69 -23.3272 138.801 27.8198 138.801 27.8198C138.801 27.8198 146.474 15.4268 205.522 -53.9298C233.369 -86.4192 372.519 -95.3116 372.519 -95.3116Z" fill="#212E1D"/>
<path d="M955.119 557.387C955.119 557.387 845.63 520.556 759.504 535.099C673.379 549.642 641.002 566.703 641.002 566.703C641.002 566.703 729.714 564.45 773.411 554.175C817.107 543.901 955.119 557.387 955.119 557.387Z" fill="#212E1D"/>
<path d="M933.584 524.932C933.584 524.932 824.095 488.101 737.969 502.644C651.843 517.187 619.438 534.269 619.438 534.269C619.438 534.269 708.152 531.95 751.875 521.743C795.597 511.535 933.584 524.932 933.584 524.932Z" fill="#212E1D"/>
<path d="M921.627 724.41C921.627 724.41 836.646 662.763 766.025 655.553C695.403 648.344 666.365 660.08 666.365 660.08C666.365 660.08 732.941 680.885 769.231 682.835C805.52 684.784 921.627 724.41 921.627 724.41Z" fill="#212E1D"/>
<path d="M954.19 611.715C954.19 611.715 849.83 575.289 767.36 587.814C684.891 600.338 653.627 615.278 653.627 615.278C653.627 615.278 738.366 613.585 780.278 604.717C822.191 595.849 954.19 611.715 954.19 611.715Z" fill="#212E1D"/>
</g>
<defs>
<filter id="filter0_d" x="-143.385" y="-134.496" width="1118.5" height="1088.84" filterUnits="userSpaceOnUse" color-interpolation-filters="sRGB">
<feFlood flood-opacity="0" result="BackgroundImageFix"/>
<feColorMatrix in="SourceAlpha" type="matrix" values="0 0 0 0 0 0 0 0 0 0 0 0 0 0 0 0 0 0 127 0"/>
<feOffset dy="10"/>
<feGaussianBlur stdDeviation="10"/>
<feColorMatrix type="matrix" values="0 0 0 0 0 0 0 0 0 0 0 0 0 0 0 0 0 0 0.25 0"/>
<feBlend mode="normal" in2="BackgroundImageFix" result="effect1_dropShadow"/>
<feBlend mode="normal" in="SourceGraphic" in2="effect1_dropShadow" result="shape"/>
</filter>
</defs>
</svg>
