<svg width="297" height="119" viewBox="0 0 297 119" fill="none" xmlns="http://www.w3.org/2000/svg">
<g id="welcome" filter="url(#filter0_ddd)">
<path d="M101.923 90.4C100.603 90.4 99.2831 90.4 97.9631 90.4C96.6431 90.4 95.3351 90.4 94.0391 90.4C92.7191 90.4 91.3991 90.4 90.0791 90.4C88.7591 90.4 87.4391 90.4 86.1191 90.4C85.5911 90.4 85.1831 90.256 84.8951 89.968C84.6311 89.656 84.4871 89.32 84.4631 88.96C84.4631 88.936 84.4631 88.924 84.4631 88.924C84.4631 88.9 84.4631 88.876 84.4631 88.852C84.4871 88.468 84.6311 88.12 84.8951 87.808C85.1831 87.496 85.5911 87.34 86.1191 87.34C86.1671 87.34 86.2151 87.34 86.2631 87.34C86.3111 87.34 86.3711 87.34 86.4431 87.34C86.4911 87.34 86.5391 87.34 86.5871 87.34C86.6351 87.34 86.6831 87.34 86.7311 87.34C88.0751 87.34 89.2151 86.86 90.1511 85.9C91.1111 84.94 91.5911 83.788 91.5911 82.444C91.5911 81.1 91.1111 79.96 90.1511 79.024C89.2151 78.064 88.0751 77.584 86.7311 77.584C85.3871 77.584 84.2351 78.064 83.2751 79.024C82.3151 79.96 81.8351 81.1 81.8351 82.444C81.8351 84.82 81.8351 87.196 81.8351 89.572C81.8351 91.948 81.8351 94.312 81.8351 96.664C81.8351 97.216 81.6671 97.624 81.3311 97.888C81.0191 98.176 80.6591 98.32 80.2511 98.32C79.8671 98.32 79.5191 98.176 79.2071 97.888C78.8951 97.624 78.7391 97.216 78.7391 96.664V76.036C78.7391 75.484 78.9071 75.076 79.2431 74.812C79.5791 74.524 79.9391 74.38 80.3231 74.38C80.7071 74.38 81.0551 74.524 81.3671 74.812C81.6791 75.076 81.8351 75.484 81.8351 76.036V76.144C82.5311 75.616 83.2871 75.208 84.1031 74.92C84.9431 74.632 85.8191 74.488 86.7311 74.488C88.9391 74.488 90.8111 75.268 92.3471 76.828C93.9071 78.364 94.6871 80.236 94.6871 82.444C94.6871 83.356 94.5431 84.232 94.2551 85.072C93.9671 85.888 93.5471 86.644 92.9951 87.34H101.923C102.451 87.34 102.847 87.496 103.111 87.808C103.399 88.096 103.555 88.42 103.579 88.78C103.579 88.804 103.579 88.828 103.579 88.852C103.579 88.852 103.579 88.864 103.579 88.888C103.555 89.272 103.411 89.62 103.147 89.932C102.883 90.244 102.475 90.4 101.923 90.4ZM101.671 88.888C101.767 88.888 101.839 88.864 101.887 88.816C101.935 88.768 101.971 88.708 101.995 88.636C101.995 88.636 101.995 88.624 101.995 88.6C101.995 88.576 101.995 88.564 101.995 88.564C101.995 88.492 101.971 88.432 101.923 88.384C101.875 88.312 101.791 88.276 101.671 88.276C99.6071 88.276 97.5311 88.276 95.4431 88.276C93.3791 88.276 91.3151 88.276 89.2511 88.276C90.5951 87.652 91.5791 86.788 92.2031 85.684C92.8511 84.58 93.1631 83.428 93.1391 82.228C93.1391 80.524 92.5391 78.964 91.3391 77.548C90.1631 76.132 88.5311 75.424 86.4431 75.424C85.0991 75.424 83.8751 75.796 82.7711 76.54C81.6911 77.26 80.8871 78.196 80.3591 79.348C80.3591 79.06 80.3591 78.772 80.3591 78.484C80.3591 78.172 80.3591 77.86 80.3591 77.548C80.3591 77.236 80.3591 76.936 80.3591 76.648C80.3591 76.336 80.3591 76.036 80.3591 75.748C80.3591 75.628 80.3231 75.544 80.2511 75.496C80.1791 75.448 80.0951 75.424 79.9991 75.424C79.9271 75.424 79.8551 75.448 79.7831 75.496C79.7351 75.544 79.7111 75.628 79.7111 75.748C79.7111 79.18 79.7111 82.624 79.7111 86.08C79.7111 89.512 79.7111 92.944 79.7111 96.376C79.7111 96.496 79.7471 96.58 79.8191 96.628C79.8911 96.676 79.9751 96.7 80.0711 96.7C80.1431 96.7 80.2031 96.676 80.2511 96.628C80.3231 96.58 80.3591 96.496 80.3591 96.376C80.3591 95.2 80.3591 94.024 80.3591 92.848C80.3591 91.672 80.3591 90.484 80.3591 89.284C80.3591 88.108 80.3591 86.932 80.3591 85.756C80.3591 84.556 80.3591 83.368 80.3591 82.192C80.3591 80.488 80.9471 79.036 82.1231 77.836C83.3231 76.636 84.7631 76.036 86.4431 76.036C88.1471 76.036 89.5871 76.636 90.7631 77.836C91.9631 79.036 92.5631 80.476 92.5631 82.156C92.5631 83.86 91.9511 85.312 90.7271 86.512C89.5271 87.688 88.0991 88.276 86.4431 88.276C86.3951 88.276 86.3471 88.276 86.2991 88.276C86.2511 88.276 86.2151 88.264 86.1911 88.24C86.1431 88.24 86.0951 88.24 86.0471 88.24C85.9991 88.24 85.9511 88.24 85.9031 88.24C85.8071 88.216 85.7231 88.24 85.6511 88.312C85.6031 88.36 85.5671 88.408 85.5431 88.456C85.5431 88.48 85.5431 88.504 85.5431 88.528C85.5431 88.528 85.5431 88.54 85.5431 88.564C85.5431 88.66 85.5671 88.744 85.6151 88.816C85.6871 88.864 85.7711 88.888 85.8671 88.888C88.5071 88.888 91.1351 88.888 93.7511 88.888C96.3911 88.888 99.0311 88.888 101.671 88.888Z" fill="#FFF2FB"/>
<path d="M126.653 90.4H114.953C114.449 90.4 114.065 90.256 113.801 89.968C113.537 89.68 113.405 89.32 113.405 88.888V82.444C113.405 81.1 112.925 79.96 111.965 79.024C111.029 78.064 109.889 77.584 108.545 77.584C107.201 77.584 106.049 78.064 105.089 79.024C104.129 79.96 103.649 81.1 103.649 82.444C103.649 83.812 104.129 84.976 105.089 85.936C106.073 86.872 107.225 87.34 108.545 87.34C108.593 87.34 108.629 87.34 108.653 87.34C108.701 87.34 108.737 87.328 108.761 87.304C108.809 87.304 108.845 87.304 108.869 87.304C108.917 87.304 108.953 87.304 108.977 87.304C109.025 87.304 109.061 87.304 109.085 87.304C109.133 87.304 109.169 87.304 109.193 87.304C109.697 87.304 110.081 87.46 110.345 87.772C110.609 88.084 110.741 88.444 110.741 88.852C110.741 89.212 110.621 89.548 110.381 89.86C110.141 90.172 109.757 90.352 109.229 90.4C106.949 90.592 104.945 89.896 103.217 88.312C101.489 86.728 100.625 84.772 100.625 82.444C100.625 80.236 101.393 78.364 102.929 76.828C104.489 75.268 106.361 74.488 108.545 74.488C110.753 74.488 112.625 75.268 114.161 76.828C115.721 78.364 116.501 80.236 116.501 82.444C116.501 83.26 116.501 84.076 116.501 84.892C116.501 85.684 116.501 86.5 116.501 87.34H126.653C127.181 87.34 127.577 87.496 127.841 87.808C128.129 88.096 128.285 88.42 128.309 88.78C128.309 88.804 128.309 88.828 128.309 88.852C128.309 88.852 128.309 88.864 128.309 88.888C128.285 89.272 128.141 89.62 127.877 89.932C127.613 90.244 127.205 90.4 126.653 90.4ZM126.509 88.888C126.629 88.888 126.713 88.852 126.761 88.78C126.809 88.708 126.833 88.624 126.833 88.528C126.833 88.456 126.809 88.396 126.761 88.348C126.713 88.276 126.629 88.24 126.509 88.24H115.097C115.097 87.232 115.097 86.224 115.097 85.216C115.097 84.208 115.097 83.188 115.097 82.156C115.097 80.308 114.437 78.724 113.117 77.404C111.821 76.084 110.249 75.424 108.401 75.424C106.553 75.424 104.969 76.084 103.649 77.404C102.353 78.724 101.705 80.308 101.705 82.156C101.705 84.028 102.365 85.624 103.685 86.944C105.005 88.24 106.565 88.888 108.365 88.888C108.413 88.888 108.461 88.888 108.509 88.888C108.557 88.888 108.617 88.888 108.689 88.888C108.737 88.888 108.785 88.888 108.833 88.888C108.881 88.864 108.929 88.852 108.977 88.852C109.073 88.852 109.145 88.828 109.193 88.78C109.241 88.732 109.277 88.672 109.301 88.6C109.301 88.6 109.301 88.588 109.301 88.564C109.301 88.54 109.301 88.528 109.301 88.528C109.277 88.456 109.241 88.396 109.193 88.348C109.145 88.276 109.061 88.24 108.941 88.24C108.893 88.24 108.845 88.24 108.797 88.24C108.749 88.24 108.701 88.24 108.653 88.24C108.605 88.264 108.557 88.276 108.509 88.276C108.461 88.276 108.413 88.276 108.365 88.276C106.733 88.252 105.317 87.652 104.117 86.476C102.917 85.3 102.317 83.86 102.317 82.156C102.317 80.476 102.905 79.036 104.081 77.836C105.281 76.636 106.721 76.036 108.401 76.036C110.081 76.036 111.509 76.636 112.685 77.836C113.885 79.036 114.485 80.476 114.485 82.156C114.485 82.684 114.485 83.224 114.485 83.776C114.485 84.304 114.485 84.832 114.485 85.36C114.485 85.888 114.485 86.428 114.485 86.98C114.485 87.508 114.485 88.036 114.485 88.564C114.485 88.636 114.509 88.708 114.557 88.78C114.605 88.828 114.665 88.864 114.737 88.888C114.737 88.888 114.749 88.888 114.773 88.888C114.797 88.888 114.809 88.888 114.809 88.888H126.509Z" fill="#FFF2FB"/>
<path d="M155.833 90.4H145.177C143.857 90.4 142.717 89.932 141.757 88.996C140.821 88.036 140.353 86.896 140.353 85.576V77.584H137.437L129.913 89.68C129.745 89.968 129.541 90.184 129.301 90.328C129.061 90.448 128.809 90.508 128.545 90.508C128.161 90.508 127.813 90.364 127.501 90.076C127.189 89.788 127.033 89.428 127.033 88.996C127.033 88.852 127.057 88.708 127.105 88.564C127.129 88.396 127.201 88.228 127.321 88.06L137.005 72.4C137.197 72.112 137.413 71.908 137.653 71.788C137.893 71.644 138.133 71.572 138.373 71.572C138.781 71.572 139.141 71.716 139.453 72.004C139.765 72.292 139.921 72.652 139.921 73.084C139.921 73.228 139.897 73.384 139.849 73.552C139.825 73.696 139.753 73.852 139.633 74.02L139.345 74.488H141.865C142.273 74.488 142.633 74.644 142.945 74.956C143.257 75.268 143.413 75.628 143.413 76.036V85.576C143.413 86.056 143.581 86.476 143.917 86.836C144.277 87.172 144.697 87.34 145.177 87.34H155.833C156.361 87.34 156.757 87.496 157.021 87.808C157.309 88.096 157.465 88.42 157.489 88.78C157.489 88.804 157.489 88.828 157.489 88.852C157.489 88.852 157.489 88.864 157.489 88.888C157.465 89.272 157.321 89.62 157.057 89.932C156.793 90.244 156.385 90.4 155.833 90.4ZM155.581 88.888C155.677 88.888 155.749 88.864 155.797 88.816C155.845 88.768 155.881 88.708 155.905 88.636C155.905 88.636 155.905 88.624 155.905 88.6C155.905 88.576 155.905 88.564 155.905 88.564C155.905 88.492 155.881 88.432 155.833 88.384C155.785 88.312 155.701 88.276 155.581 88.276C153.805 88.276 152.029 88.276 150.253 88.276C148.477 88.276 146.701 88.276 144.925 88.276C144.109 88.276 143.401 87.988 142.801 87.412C142.225 86.812 141.937 86.104 141.937 85.288C141.937 83.68 141.937 82.084 141.937 80.5C141.937 78.916 141.937 77.332 141.937 75.748C141.937 75.676 141.913 75.616 141.865 75.568C141.817 75.496 141.757 75.448 141.685 75.424C141.685 75.424 141.673 75.424 141.649 75.424C141.649 75.424 141.637 75.424 141.613 75.424C140.821 75.424 140.029 75.424 139.237 75.424C138.445 75.424 137.653 75.424 136.861 75.424C136.981 75.232 137.101 75.04 137.221 74.848C137.341 74.656 137.461 74.452 137.581 74.236C137.701 74.044 137.821 73.852 137.941 73.66C138.061 73.468 138.181 73.276 138.301 73.084C138.325 73.036 138.337 73 138.337 72.976C138.361 72.952 138.373 72.928 138.373 72.904C138.373 72.832 138.349 72.772 138.301 72.724C138.253 72.652 138.193 72.616 138.121 72.616C138.121 72.616 138.109 72.616 138.085 72.616C138.085 72.616 138.073 72.616 138.049 72.616C138.001 72.616 137.953 72.628 137.905 72.652C137.881 72.676 137.845 72.712 137.797 72.76C136.189 75.376 134.569 77.992 132.937 80.608C131.329 83.2 129.709 85.804 128.077 88.42C128.053 88.444 128.029 88.48 128.005 88.528C128.005 88.552 128.017 88.576 128.041 88.6C128.041 88.696 128.065 88.78 128.113 88.852C128.185 88.9 128.269 88.912 128.365 88.888C128.389 88.888 128.413 88.888 128.437 88.888C128.461 88.888 128.485 88.876 128.509 88.852C128.509 88.852 128.521 88.84 128.545 88.816C128.569 88.792 128.593 88.768 128.617 88.744C129.265 87.688 129.913 86.632 130.561 85.576C131.233 84.52 131.893 83.452 132.541 82.372C133.189 81.316 133.837 80.26 134.485 79.204C135.157 78.148 135.817 77.092 136.465 76.036H141.325C141.325 76.804 141.325 77.572 141.325 78.34C141.325 79.108 141.325 79.876 141.325 80.644C141.325 81.436 141.325 82.216 141.325 82.984C141.325 83.752 141.325 84.52 141.325 85.288C141.325 86.272 141.673 87.124 142.369 87.844C143.089 88.54 143.941 88.888 144.925 88.888C146.701 88.888 148.477 88.888 150.253 88.888C152.029 88.888 153.805 88.888 155.581 88.888Z" fill="#FFF2FB"/>
<path d="M180.653 90.4H168.953C168.449 90.4 168.065 90.256 167.801 89.968C167.537 89.68 167.405 89.32 167.405 88.888V82.444C167.405 81.1 166.925 79.96 165.965 79.024C165.029 78.064 163.889 77.584 162.545 77.584C161.201 77.584 160.049 78.064 159.089 79.024C158.129 79.96 157.649 81.1 157.649 82.444C157.649 83.812 158.129 84.976 159.089 85.936C160.073 86.872 161.225 87.34 162.545 87.34C162.593 87.34 162.629 87.34 162.653 87.34C162.701 87.34 162.737 87.328 162.761 87.304C162.809 87.304 162.845 87.304 162.869 87.304C162.917 87.304 162.953 87.304 162.977 87.304C163.025 87.304 163.061 87.304 163.085 87.304C163.133 87.304 163.169 87.304 163.193 87.304C163.697 87.304 164.081 87.46 164.345 87.772C164.609 88.084 164.741 88.444 164.741 88.852C164.741 89.212 164.621 89.548 164.381 89.86C164.141 90.172 163.757 90.352 163.229 90.4C160.949 90.592 158.945 89.896 157.217 88.312C155.489 86.728 154.625 84.772 154.625 82.444C154.625 80.236 155.393 78.364 156.929 76.828C158.489 75.268 160.361 74.488 162.545 74.488C164.753 74.488 166.625 75.268 168.161 76.828C169.721 78.364 170.501 80.236 170.501 82.444C170.501 83.26 170.501 84.076 170.501 84.892C170.501 85.684 170.501 86.5 170.501 87.34H180.653C181.181 87.34 181.577 87.496 181.841 87.808C182.129 88.096 182.285 88.42 182.309 88.78C182.309 88.804 182.309 88.828 182.309 88.852C182.309 88.852 182.309 88.864 182.309 88.888C182.285 89.272 182.141 89.62 181.877 89.932C181.613 90.244 181.205 90.4 180.653 90.4ZM180.509 88.888C180.629 88.888 180.713 88.852 180.761 88.78C180.809 88.708 180.833 88.624 180.833 88.528C180.833 88.456 180.809 88.396 180.761 88.348C180.713 88.276 180.629 88.24 180.509 88.24H169.097C169.097 87.232 169.097 86.224 169.097 85.216C169.097 84.208 169.097 83.188 169.097 82.156C169.097 80.308 168.437 78.724 167.117 77.404C165.821 76.084 164.249 75.424 162.401 75.424C160.553 75.424 158.969 76.084 157.649 77.404C156.353 78.724 155.705 80.308 155.705 82.156C155.705 84.028 156.365 85.624 157.685 86.944C159.005 88.24 160.565 88.888 162.365 88.888C162.413 88.888 162.461 88.888 162.509 88.888C162.557 88.888 162.617 88.888 162.689 88.888C162.737 88.888 162.785 88.888 162.833 88.888C162.881 88.864 162.929 88.852 162.977 88.852C163.073 88.852 163.145 88.828 163.193 88.78C163.241 88.732 163.277 88.672 163.301 88.6C163.301 88.6 163.301 88.588 163.301 88.564C163.301 88.54 163.301 88.528 163.301 88.528C163.277 88.456 163.241 88.396 163.193 88.348C163.145 88.276 163.061 88.24 162.941 88.24C162.893 88.24 162.845 88.24 162.797 88.24C162.749 88.24 162.701 88.24 162.653 88.24C162.605 88.264 162.557 88.276 162.509 88.276C162.461 88.276 162.413 88.276 162.365 88.276C160.733 88.252 159.317 87.652 158.117 86.476C156.917 85.3 156.317 83.86 156.317 82.156C156.317 80.476 156.905 79.036 158.081 77.836C159.281 76.636 160.721 76.036 162.401 76.036C164.081 76.036 165.509 76.636 166.685 77.836C167.885 79.036 168.485 80.476 168.485 82.156C168.485 82.684 168.485 83.224 168.485 83.776C168.485 84.304 168.485 84.832 168.485 85.36C168.485 85.888 168.485 86.428 168.485 86.98C168.485 87.508 168.485 88.036 168.485 88.564C168.485 88.636 168.509 88.708 168.557 88.78C168.605 88.828 168.665 88.864 168.737 88.888C168.737 88.888 168.749 88.888 168.773 88.888C168.797 88.888 168.809 88.888 168.809 88.888H180.509Z" fill="#FFF2FB"/>
<path d="M205.189 90.4H193.633C193.249 90.4 192.889 90.244 192.553 89.932C192.241 89.62 192.085 89.272 192.085 88.888V82.444C192.085 81.1 191.605 79.96 190.645 79.024C189.709 78.064 188.569 77.584 187.225 77.584C185.881 77.584 184.729 78.064 183.769 79.024C182.809 79.96 182.329 81.1 182.329 82.444C182.329 83.788 182.809 84.94 183.769 85.9C184.729 86.86 185.881 87.34 187.225 87.34C187.753 87.34 188.149 87.496 188.413 87.808C188.701 88.096 188.857 88.42 188.881 88.78C188.881 88.804 188.881 88.828 188.881 88.852C188.881 88.852 188.881 88.864 188.881 88.888C188.857 89.272 188.713 89.62 188.449 89.932C188.185 90.244 187.777 90.4 187.225 90.4C185.041 90.4 183.169 89.62 181.609 88.06C180.049 86.5 179.269 84.628 179.269 82.444C179.269 80.236 180.049 78.364 181.609 76.828C183.169 75.268 185.041 74.488 187.225 74.488C188.137 74.488 189.001 74.632 189.817 74.92C190.657 75.208 191.413 75.616 192.085 76.144V68.224C192.085 67.672 192.253 67.252 192.589 66.964C192.925 66.676 193.285 66.544 193.669 66.568C194.053 66.568 194.401 66.712 194.713 67C195.025 67.264 195.181 67.672 195.181 68.224V87.34H205.189C205.717 87.34 206.113 87.496 206.377 87.808C206.665 88.096 206.821 88.42 206.845 88.78C206.845 88.804 206.845 88.828 206.845 88.852C206.845 88.852 206.845 88.864 206.845 88.888C206.821 89.272 206.677 89.62 206.413 89.932C206.149 90.244 205.741 90.4 205.189 90.4ZM204.901 88.888C204.997 88.888 205.069 88.864 205.117 88.816C205.189 88.768 205.237 88.708 205.261 88.636C205.261 88.636 205.261 88.624 205.261 88.6C205.261 88.576 205.261 88.564 205.261 88.564C205.237 88.492 205.201 88.432 205.153 88.384C205.105 88.312 205.021 88.276 204.901 88.276H193.669V67.9C193.669 67.804 193.645 67.732 193.597 67.684C193.549 67.636 193.489 67.6 193.417 67.576C193.417 67.576 193.405 67.576 193.381 67.576C193.381 67.576 193.369 67.576 193.345 67.576C193.273 67.576 193.201 67.6 193.129 67.648C193.081 67.696 193.057 67.78 193.057 67.9V79.348C192.529 78.196 191.713 77.26 190.609 76.54C189.505 75.796 188.281 75.424 186.937 75.424C185.089 75.424 183.505 76.084 182.185 77.404C180.889 78.724 180.241 80.308 180.241 82.156C180.241 84.004 180.889 85.588 182.185 86.908C183.505 88.228 185.089 88.888 186.937 88.888C187.033 88.888 187.105 88.876 187.153 88.852C187.225 88.828 187.261 88.732 187.261 88.564C187.261 88.42 187.225 88.336 187.153 88.312C187.105 88.288 187.033 88.276 186.937 88.276C185.257 88.276 183.817 87.676 182.617 86.476C181.441 85.276 180.853 83.836 180.853 82.156C180.853 80.476 181.441 79.036 182.617 77.836C183.817 76.636 185.257 76.036 186.937 76.036C188.641 76.036 190.081 76.636 191.257 77.836C192.457 79.036 193.057 80.476 193.057 82.156V88.564C193.057 88.66 193.081 88.744 193.129 88.816C193.201 88.864 193.285 88.888 193.381 88.888H204.901Z" fill="#FFF2FB"/>
<path d="M224.685 90.4H207.657C207.273 90.4 206.913 90.244 206.577 89.932C206.265 89.62 206.109 89.272 206.109 88.888V76.036C206.109 75.484 206.277 75.076 206.613 74.812C206.949 74.524 207.309 74.38 207.693 74.38C208.077 74.38 208.425 74.524 208.737 74.812C209.049 75.076 209.205 75.484 209.205 76.036V87.34H224.685C225.213 87.34 225.609 87.496 225.873 87.808C226.161 88.096 226.317 88.42 226.341 88.78C226.341 88.804 226.341 88.828 226.341 88.852C226.341 88.852 226.341 88.864 226.341 88.888C226.317 89.272 226.173 89.62 225.909 89.932C225.645 90.244 225.237 90.4 224.685 90.4ZM224.433 88.888C224.529 88.888 224.601 88.864 224.649 88.816C224.697 88.768 224.733 88.708 224.757 88.636C224.757 88.636 224.757 88.624 224.757 88.6C224.757 88.576 224.757 88.564 224.757 88.564C224.757 88.492 224.733 88.432 224.685 88.384C224.637 88.312 224.553 88.276 224.433 88.276H207.693V75.748C207.693 75.652 207.669 75.58 207.621 75.532C207.573 75.46 207.513 75.412 207.441 75.388C207.441 75.388 207.429 75.388 207.405 75.388C207.405 75.388 207.393 75.388 207.369 75.388C207.297 75.412 207.225 75.448 207.153 75.496C207.105 75.544 207.081 75.628 207.081 75.748V88.564C207.081 88.66 207.105 88.744 207.153 88.816C207.225 88.864 207.297 88.888 207.369 88.888H224.433ZM209.817 68.764C209.817 69.364 209.601 69.892 209.169 70.348C208.737 70.78 208.209 70.996 207.585 70.996C206.985 70.996 206.481 70.78 206.073 70.348C205.641 69.892 205.425 69.364 205.425 68.764C205.425 68.14 205.641 67.624 206.073 67.216C206.481 66.784 206.985 66.568 207.585 66.568C208.209 66.568 208.737 66.784 209.169 67.216C209.601 67.624 209.817 68.14 209.817 68.764ZM207.585 67.756C207.681 67.756 207.753 67.732 207.801 67.684C207.873 67.636 207.921 67.576 207.945 67.504C207.945 67.504 207.945 67.492 207.945 67.468C207.945 67.444 207.945 67.432 207.945 67.432C207.921 67.36 207.885 67.3 207.837 67.252C207.789 67.18 207.705 67.144 207.585 67.144C207.153 67.144 206.781 67.3 206.469 67.612C206.157 67.924 206.001 68.308 206.001 68.764C206.001 68.86 206.025 68.932 206.073 68.98C206.097 69.028 206.145 69.064 206.217 69.088C206.217 69.088 206.229 69.088 206.253 69.088C206.277 69.088 206.289 69.088 206.289 69.088C206.361 69.088 206.421 69.064 206.469 69.016C206.541 68.944 206.577 68.86 206.577 68.764C206.577 68.5 206.673 68.272 206.865 68.08C207.081 67.864 207.321 67.756 207.585 67.756Z" fill="#FFF2FB"/>
<path d="M250.177 90.4C248.953 90.4 247.717 90.4 246.469 90.4C245.245 90.4 244.021 90.4 242.797 90.4C241.573 90.4 240.337 90.4 239.089 90.4C237.865 90.4 236.641 90.4 235.417 90.4C234.889 90.4 234.481 90.256 234.193 89.968C233.929 89.656 233.785 89.32 233.761 88.96C233.761 88.936 233.761 88.924 233.761 88.924C233.761 88.9 233.761 88.876 233.761 88.852C233.785 88.468 233.929 88.12 234.193 87.808C234.481 87.496 234.889 87.34 235.417 87.34C236.761 87.34 237.913 86.86 238.873 85.9C239.833 84.94 240.313 83.788 240.313 82.444C240.313 81.1 239.833 79.96 238.873 79.024C237.913 78.064 236.761 77.584 235.417 77.584L227.893 89.68C227.725 89.968 227.521 90.184 227.281 90.328C227.041 90.448 226.789 90.508 226.525 90.508C226.141 90.508 225.793 90.364 225.481 90.076C225.169 89.788 225.013 89.428 225.013 88.996C225.013 88.852 225.037 88.708 225.085 88.564C225.109 88.396 225.181 88.228 225.301 88.06L234.985 72.4C235.177 72.112 235.393 71.908 235.633 71.788C235.873 71.644 236.113 71.572 236.353 71.572C236.761 71.572 237.121 71.716 237.433 72.004C237.745 72.292 237.901 72.652 237.901 73.084C237.901 73.228 237.877 73.384 237.829 73.552C237.805 73.696 237.733 73.852 237.613 74.02L237.181 74.704C238.957 75.088 240.433 76 241.609 77.44C242.785 78.88 243.373 80.548 243.373 82.444C243.373 83.356 243.229 84.232 242.941 85.072C242.653 85.888 242.245 86.644 241.717 87.34H250.177C250.705 87.34 251.101 87.496 251.365 87.808C251.653 88.096 251.809 88.42 251.833 88.78C251.833 88.804 251.833 88.828 251.833 88.852C251.833 88.852 251.833 88.864 251.833 88.888C251.809 89.272 251.665 89.62 251.401 89.932C251.137 90.244 250.729 90.4 250.177 90.4ZM249.925 88.888C250.021 88.888 250.093 88.864 250.141 88.816C250.189 88.768 250.225 88.708 250.249 88.636C250.249 88.636 250.249 88.624 250.249 88.6C250.249 88.576 250.249 88.564 250.249 88.564C250.249 88.492 250.225 88.432 250.177 88.384C250.129 88.312 250.045 88.276 249.925 88.276C248.917 88.276 247.909 88.276 246.901 88.276C245.917 88.276 244.933 88.276 243.949 88.276C242.965 88.276 241.969 88.276 240.961 88.276C239.977 88.276 238.981 88.276 237.973 88.276C239.125 87.724 240.061 86.908 240.781 85.828C241.525 84.724 241.897 83.5 241.897 82.156C241.897 80.164 241.177 78.532 239.737 77.26C238.321 75.988 236.689 75.376 234.841 75.424C234.961 75.232 235.081 75.04 235.201 74.848C235.321 74.656 235.441 74.452 235.561 74.236C235.681 74.044 235.801 73.852 235.921 73.66C236.041 73.468 236.161 73.276 236.281 73.084C236.305 73.036 236.317 73 236.317 72.976C236.341 72.952 236.353 72.928 236.353 72.904C236.353 72.832 236.329 72.772 236.281 72.724C236.233 72.652 236.173 72.616 236.101 72.616C236.101 72.616 236.089 72.616 236.065 72.616C236.065 72.616 236.053 72.616 236.029 72.616C235.981 72.616 235.933 72.628 235.885 72.652C235.861 72.676 235.825 72.712 235.777 72.76C234.169 75.376 232.549 77.992 230.917 80.608C229.309 83.2 227.689 85.804 226.057 88.42C226.033 88.444 226.009 88.48 225.985 88.528C225.985 88.552 225.997 88.576 226.021 88.6C226.021 88.696 226.045 88.78 226.093 88.852C226.165 88.9 226.249 88.912 226.345 88.888C226.369 88.888 226.393 88.888 226.417 88.888C226.441 88.888 226.465 88.876 226.489 88.852C226.489 88.852 226.501 88.84 226.525 88.816C226.549 88.792 226.573 88.768 226.597 88.744C227.893 86.608 229.189 84.496 230.485 82.408C231.805 80.296 233.125 78.184 234.445 76.072C234.589 76.048 234.733 76.036 234.877 76.036C235.021 76.036 235.177 76.036 235.345 76.036C236.977 76.084 238.369 76.708 239.521 77.908C240.697 79.084 241.285 80.5 241.285 82.156C241.285 83.836 240.685 85.276 239.485 86.476C238.285 87.676 236.845 88.276 235.165 88.276C235.069 88.276 234.997 88.3 234.949 88.348C234.901 88.396 234.865 88.456 234.841 88.528C234.841 88.528 234.841 88.54 234.841 88.564C234.841 88.564 234.841 88.576 234.841 88.6C234.841 88.672 234.865 88.744 234.913 88.816C234.985 88.864 235.069 88.888 235.165 88.888C237.613 88.888 240.061 88.888 242.509 88.888C244.981 88.888 247.453 88.888 249.925 88.888Z" fill="#FFF2FB"/>
<path d="M274.621 90.4H256.693C254.509 90.4 252.637 89.62 251.077 88.06C249.541 86.5 248.773 84.628 248.773 82.444C248.773 80.236 249.541 78.364 251.077 76.828C252.637 75.268 254.509 74.488 256.693 74.488C258.109 74.488 259.417 74.836 260.617 75.532C261.841 76.204 262.813 77.14 263.533 78.34C263.605 78.436 263.653 78.556 263.677 78.7C263.701 78.82 263.713 78.94 263.713 79.06C263.713 79.348 263.653 79.624 263.533 79.888C263.413 80.152 263.233 80.344 262.993 80.464L256.189 84.604C256.021 84.7 255.853 84.772 255.685 84.82C255.541 84.868 255.397 84.892 255.253 84.892C254.821 84.868 254.461 84.7 254.173 84.388C253.885 84.076 253.741 83.716 253.741 83.308C253.741 83.236 253.741 83.164 253.741 83.092C253.765 83.02 253.789 82.96 253.813 82.912C253.861 82.72 253.945 82.54 254.065 82.372C254.209 82.204 254.389 82.06 254.605 81.94L259.861 78.736C259.429 78.352 258.937 78.064 258.385 77.872C257.857 77.68 257.293 77.584 256.693 77.584C255.373 77.584 254.233 78.064 253.273 79.024C252.313 79.96 251.833 81.1 251.833 82.444C251.833 83.788 252.313 84.94 253.273 85.9C254.233 86.86 255.373 87.34 256.693 87.34H274.621C275.149 87.34 275.545 87.496 275.809 87.808C276.097 88.096 276.253 88.42 276.277 88.78C276.277 88.804 276.277 88.828 276.277 88.852C276.277 88.852 276.277 88.864 276.277 88.888C276.253 89.272 276.109 89.62 275.845 89.932C275.581 90.244 275.173 90.4 274.621 90.4ZM274.369 88.888C274.465 88.888 274.537 88.864 274.585 88.816C274.633 88.768 274.669 88.708 274.693 88.636C274.693 88.636 274.693 88.624 274.693 88.6C274.693 88.576 274.693 88.564 274.693 88.564C274.693 88.492 274.669 88.432 274.621 88.384C274.573 88.312 274.489 88.276 274.369 88.276C271.393 88.276 268.405 88.276 265.405 88.276C262.429 88.276 259.441 88.276 256.441 88.276C254.761 88.276 253.321 87.676 252.121 86.476C250.945 85.276 250.357 83.836 250.357 82.156C250.357 80.476 250.945 79.036 252.121 77.836C253.321 76.636 254.761 76.036 256.441 76.036C257.473 76.036 258.433 76.276 259.321 76.756C260.209 77.236 260.941 77.896 261.517 78.736C260.965 79.072 260.413 79.408 259.861 79.744C259.333 80.08 258.793 80.404 258.241 80.716C257.689 81.052 257.137 81.388 256.585 81.724C256.057 82.036 255.517 82.36 254.965 82.696C254.941 82.72 254.905 82.756 254.857 82.804C254.833 82.828 254.821 82.864 254.821 82.912C254.797 82.936 254.785 82.96 254.785 82.984C254.785 82.984 254.785 82.996 254.785 83.02C254.809 83.092 254.845 83.164 254.893 83.236C254.941 83.284 255.013 83.296 255.109 83.272C255.133 83.272 255.145 83.272 255.145 83.272C255.169 83.272 255.193 83.272 255.217 83.272C255.241 83.248 255.265 83.236 255.289 83.236C256.417 82.54 257.545 81.856 258.673 81.184C259.825 80.488 260.965 79.792 262.093 79.096C262.141 79.072 262.165 79.048 262.165 79.024C262.189 78.976 262.213 78.928 262.237 78.88C262.237 78.856 262.237 78.832 262.237 78.808C262.237 78.784 262.237 78.772 262.237 78.772C262.237 78.748 262.225 78.724 262.201 78.7C261.601 77.692 260.785 76.9 259.753 76.324C258.721 75.724 257.617 75.424 256.441 75.424C254.593 75.424 253.009 76.084 251.689 77.404C250.393 78.724 249.745 80.308 249.745 82.156C249.745 84.004 250.393 85.588 251.689 86.908C253.009 88.228 254.593 88.888 256.441 88.888C259.441 88.888 262.429 88.888 265.405 88.888C268.405 88.888 271.393 88.888 274.369 88.888Z" fill="#FFF2FB"/>
</g>
<g id="to" filter="url(#filter1_ddd)">
<path d="M43.073 94.4H26.045C26.021 94.4 25.997 94.4 25.973 94.4C25.973 94.4 25.961 94.4 25.937 94.4C25.577 94.376 25.241 94.208 24.929 93.896C24.641 93.584 24.497 93.248 24.497 92.888V81.584H21.797C21.269 81.584 20.873 81.416 20.609 81.08C20.321 80.744 20.177 80.384 20.177 80C20.177 79.616 20.321 79.268 20.609 78.956C20.873 78.644 21.281 78.488 21.833 78.488H24.497V72.224C24.497 71.672 24.665 71.252 25.001 70.964C25.337 70.676 25.697 70.544 26.081 70.568C26.465 70.568 26.813 70.712 27.125 71C27.437 71.264 27.593 71.672 27.593 72.224V78.488H34.433C34.985 78.488 35.405 78.656 35.693 78.992C35.981 79.304 36.113 79.664 36.089 80.072C36.089 80.456 35.945 80.804 35.657 81.116C35.393 81.428 34.985 81.584 34.433 81.584H27.593V91.34H43.073C43.601 91.34 43.997 91.496 44.261 91.808C44.549 92.096 44.705 92.42 44.729 92.78C44.729 92.804 44.729 92.828 44.729 92.852C44.729 92.852 44.729 92.864 44.729 92.888C44.729 93.272 44.585 93.62 44.297 93.932C44.033 94.244 43.625 94.4 43.073 94.4ZM42.821 92.888C42.917 92.888 42.989 92.864 43.037 92.816C43.085 92.768 43.121 92.708 43.145 92.636C43.145 92.636 43.145 92.624 43.145 92.6C43.145 92.576 43.145 92.564 43.145 92.564C43.145 92.492 43.121 92.432 43.073 92.384C43.025 92.312 42.941 92.276 42.821 92.276H26.081V80.036H34.181C34.277 80.036 34.349 80.012 34.397 79.964C34.445 79.916 34.481 79.856 34.505 79.784C34.505 79.784 34.505 79.772 34.505 79.748C34.505 79.724 34.505 79.712 34.505 79.712C34.505 79.64 34.481 79.58 34.433 79.532C34.385 79.46 34.301 79.424 34.181 79.424H26.081V71.9C26.081 71.804 26.057 71.732 26.009 71.684C25.961 71.636 25.901 71.6 25.829 71.576C25.829 71.576 25.817 71.576 25.793 71.576C25.793 71.576 25.781 71.576 25.757 71.576C25.685 71.576 25.613 71.6 25.541 71.648C25.493 71.696 25.469 71.78 25.469 71.9V79.424H21.545C21.473 79.424 21.413 79.448 21.365 79.496C21.293 79.544 21.245 79.604 21.221 79.676C21.221 79.676 21.221 79.688 21.221 79.712C21.221 79.712 21.221 79.724 21.221 79.748C21.245 79.82 21.281 79.892 21.329 79.964C21.377 80.012 21.461 80.036 21.581 80.036H25.469V92.564C25.469 92.636 25.493 92.708 25.541 92.78C25.589 92.828 25.649 92.864 25.721 92.888C25.721 92.888 25.733 92.888 25.757 92.888C25.781 92.888 25.793 92.888 25.793 92.888H42.821Z" fill="#FFF2FB"/>
<path d="M68.7289 92.312C68.7769 92.408 68.8009 92.504 68.8009 92.6C68.8249 92.672 68.8369 92.756 68.8369 92.852C68.8369 93.236 68.6929 93.596 68.4049 93.932C68.1409 94.244 67.7329 94.4 67.1809 94.4C64.2529 94.4 61.3129 94.4 58.3609 94.4C55.4329 94.4 52.5049 94.4 49.5769 94.4C47.3929 94.4 45.5209 93.62 43.9609 92.06C42.4249 90.5 41.6569 88.628 41.6569 86.444C41.6569 84.236 42.4249 82.364 43.9609 80.828C45.5209 79.268 47.3929 78.488 49.5769 78.488C51.7849 78.488 53.6569 79.268 55.1929 80.828C56.7529 82.364 57.5329 84.236 57.5329 86.444C57.5329 86.54 57.5329 86.648 57.5329 86.768C57.5329 86.864 57.5209 86.972 57.4969 87.092C57.4729 87.62 57.3889 88.148 57.2449 88.676C57.1009 89.18 56.8969 89.66 56.6329 90.116C56.4889 90.38 56.3089 90.596 56.0929 90.764C55.9009 90.908 55.6969 90.992 55.4809 91.016C55.4329 91.04 55.3849 91.052 55.3369 91.052C55.3129 91.052 55.2769 91.052 55.2289 91.052C54.8449 91.052 54.4849 90.908 54.1489 90.62C53.8369 90.332 53.6809 89.96 53.6809 89.504C53.6809 89.384 53.6929 89.252 53.7169 89.108C53.7649 88.964 53.8249 88.82 53.8969 88.676C54.0889 88.34 54.2209 87.98 54.2929 87.596C54.3889 87.212 54.4369 86.828 54.4369 86.444C54.4369 85.1 53.9569 83.96 52.9969 83.024C52.0609 82.064 50.9209 81.584 49.5769 81.584C48.2329 81.584 47.0809 82.064 46.1209 83.024C45.1849 83.96 44.7169 85.1 44.7169 86.444C44.7169 87.788 45.1969 88.94 46.1569 89.9C47.1169 90.86 48.2569 91.34 49.5769 91.34H67.1809C67.5889 91.34 67.9249 91.436 68.1889 91.628C68.4529 91.82 68.6329 92.048 68.7289 92.312ZM66.8929 92.888C66.9889 92.888 67.0609 92.864 67.1089 92.816C67.1809 92.768 67.2289 92.708 67.2529 92.636C67.2529 92.636 67.2529 92.624 67.2529 92.6C67.2529 92.576 67.2529 92.564 67.2529 92.564C67.2289 92.492 67.1929 92.432 67.1449 92.384C67.0969 92.312 67.0129 92.276 66.8929 92.276H49.3249C47.6449 92.276 46.2049 91.676 45.0049 90.476C43.8289 89.276 43.2409 87.836 43.2409 86.156C43.2409 84.476 43.8289 83.036 45.0049 81.836C46.2049 80.636 47.6449 80.036 49.3249 80.036C51.1489 80.036 52.6129 80.672 53.7169 81.944C54.8449 83.216 55.4089 84.644 55.4089 86.228C55.4089 86.396 55.3969 86.576 55.3729 86.768C55.3729 86.96 55.3489 87.152 55.3009 87.344C55.2529 87.608 55.1809 87.884 55.0849 88.172C54.9889 88.436 54.8689 88.7 54.7249 88.964C54.7249 88.988 54.7129 89.012 54.6889 89.036C54.6889 89.06 54.6889 89.084 54.6889 89.108C54.6889 89.108 54.6889 89.12 54.6889 89.144C54.6889 89.24 54.7249 89.312 54.7969 89.36C54.8689 89.408 54.9529 89.432 55.0489 89.432C55.0729 89.432 55.0969 89.432 55.1209 89.432C55.1449 89.408 55.1689 89.396 55.1929 89.396C55.1929 89.372 55.2049 89.348 55.2289 89.324C55.2529 89.3 55.2769 89.276 55.3009 89.252C55.4689 88.916 55.6009 88.58 55.6969 88.244C55.8169 87.908 55.9129 87.572 55.9849 87.236C56.0089 87.068 56.0209 86.9 56.0209 86.732C56.0449 86.564 56.0569 86.396 56.0569 86.228C56.0569 84.476 55.4329 82.904 54.1849 81.512C52.9369 80.12 51.3169 79.424 49.3249 79.424C47.4769 79.424 45.8929 80.084 44.5729 81.404C43.2769 82.724 42.6289 84.308 42.6289 86.156C42.6289 88.004 43.2769 89.588 44.5729 90.908C45.8929 92.228 47.4769 92.888 49.3249 92.888C52.2529 92.888 55.1809 92.888 58.1089 92.888C61.0609 92.888 63.9889 92.888 66.8929 92.888Z" fill="#FFF2FB"/>
</g>
<g id="paradise" filter="url(#filter2_ddd)">
<path d="M90.2025 44.4H83.0025C83.0025 44.52 83.0025 44.64 83.0025 44.76C83.0025 44.856 83.0025 44.952 83.0025 45.048C83.0025 46.104 82.9305 47.1 82.7865 48.036C82.6665 48.972 82.1865 49.86 81.3465 50.7C80.8905 51.156 80.3985 51.504 79.8705 51.744C79.3665 51.984 78.8385 52.14 78.2865 52.212C78.1665 52.236 78.0345 52.248 77.8905 52.248C77.7705 52.272 77.6385 52.284 77.4945 52.284C76.7505 52.284 76.0185 52.14 75.2985 51.852C74.6025 51.564 73.9905 51.144 73.4625 50.592C72.9585 51.12 72.3585 51.54 71.6625 51.852C70.9665 52.164 70.2225 52.32 69.4305 52.32C67.9425 52.32 66.6465 51.78 65.5425 50.7C64.4385 49.62 63.8865 48.336 63.8865 46.848V22.224C63.8865 21.672 64.0545 21.252 64.3905 20.964C64.7265 20.676 65.0865 20.544 65.4705 20.568C65.8545 20.568 66.2025 20.712 66.5145 21C66.8265 21.264 66.9825 21.672 66.9825 22.224V46.848C66.9825 47.52 67.2225 48.084 67.7025 48.54C68.1825 48.996 68.7585 49.224 69.4305 49.224C70.1025 49.224 70.6785 48.996 71.1585 48.54C71.6385 48.084 71.8785 47.52 71.8785 46.848V22.224C71.8785 21.672 72.0465 21.252 72.3825 20.964C72.7185 20.676 73.0785 20.544 73.4625 20.568C73.8465 20.568 74.1945 20.712 74.5065 21C74.8185 21.264 74.9745 21.672 74.9745 22.224V41.916C75.3585 41.724 75.7545 41.58 76.1625 41.484C76.5705 41.388 77.0025 41.34 77.4585 41.34C77.8665 41.34 78.2745 41.34 78.6825 41.34C79.0905 41.34 79.4985 41.34 79.9065 41.34V22.224C79.9065 21.672 80.0745 21.252 80.4105 20.964C80.7465 20.676 81.1065 20.544 81.4905 20.568C81.8745 20.568 82.2225 20.712 82.5345 21C82.8465 21.264 83.0025 21.672 83.0025 22.224V41.34H90.2025C90.7305 41.34 91.1265 41.496 91.3905 41.808C91.6785 42.096 91.8345 42.42 91.8585 42.78C91.8585 42.804 91.8585 42.828 91.8585 42.852C91.8585 42.852 91.8585 42.864 91.8585 42.888C91.8345 43.272 91.6905 43.62 91.4265 43.932C91.1625 44.244 90.7545 44.4 90.2025 44.4ZM89.9865 42.996C90.0825 42.996 90.1545 42.972 90.2025 42.924C90.2505 42.876 90.2865 42.816 90.3105 42.744C90.3105 42.744 90.3105 42.732 90.3105 42.708C90.3105 42.684 90.3105 42.672 90.3105 42.672C90.3105 42.6 90.2865 42.54 90.2385 42.492C90.1905 42.42 90.1065 42.384 89.9865 42.384H81.5625V22.044C81.5625 21.924 81.5265 21.84 81.4545 21.792C81.4065 21.744 81.3465 21.72 81.2745 21.72C81.1785 21.72 81.0945 21.744 81.0225 21.792C80.9745 21.84 80.9505 21.924 80.9505 22.044V42.384C80.3265 42.384 79.7025 42.384 79.0785 42.384C78.4785 42.384 77.8665 42.384 77.2425 42.384C76.4265 42.384 75.6945 42.576 75.0465 42.96C74.4225 43.344 73.9425 43.848 73.6065 44.472C73.6065 42.6 73.6065 40.728 73.6065 38.856C73.6065 36.984 73.6065 35.112 73.6065 33.24C73.6065 31.392 73.6065 29.532 73.6065 27.66C73.6065 25.788 73.6065 23.916 73.6065 22.044C73.6065 21.924 73.5705 21.84 73.4985 21.792C73.4505 21.744 73.3905 21.72 73.3185 21.72C73.2225 21.72 73.1385 21.744 73.0665 21.792C73.0185 21.84 72.9945 21.924 72.9945 22.044V46.668C72.9945 47.652 72.6225 48.492 71.8785 49.188C71.1585 49.908 70.2945 50.268 69.2865 50.268C68.3025 50.268 67.4385 49.908 66.6945 49.188C65.9505 48.492 65.5785 47.652 65.5785 46.668C65.5785 42.564 65.5785 38.46 65.5785 34.356C65.5785 30.252 65.5785 26.148 65.5785 22.044C65.5785 21.924 65.5425 21.84 65.4705 21.792C65.4225 21.744 65.3625 21.72 65.2905 21.72C65.1945 21.72 65.1105 21.744 65.0385 21.792C64.9905 21.84 64.9665 21.924 64.9665 22.044V46.668C64.9665 47.82 65.3865 48.804 66.2265 49.62C67.0905 50.46 68.1105 50.88 69.2865 50.88C70.1985 50.88 71.0145 50.628 71.7345 50.124C72.4545 49.644 72.9705 49.008 73.2825 48.216C73.4025 48.48 73.5345 48.732 73.6785 48.972C73.8225 49.212 74.0025 49.44 74.2185 49.656C74.5785 50.016 74.9745 50.292 75.4065 50.484C75.8625 50.7 76.3185 50.832 76.7745 50.88C76.8465 50.88 76.9185 50.88 76.9905 50.88C77.0625 50.88 77.1345 50.88 77.2065 50.88C78.3345 50.88 79.3425 50.484 80.2305 49.692C81.1185 48.924 81.5625 47.916 81.5625 46.668C81.5625 46.044 81.5625 45.432 81.5625 44.832C81.5625 44.208 81.5625 43.596 81.5625 42.996H89.9865ZM80.9505 46.668C80.9505 47.724 80.5665 48.588 79.7985 49.26C79.0305 49.932 78.1665 50.268 77.2065 50.268C76.7505 50.268 76.3065 50.184 75.8745 50.016C75.4425 49.848 75.0465 49.572 74.6865 49.188C74.3025 48.804 74.0265 48.396 73.8585 47.964C73.6905 47.532 73.6065 47.088 73.6065 46.632C73.6065 45.72 73.9425 44.892 74.6145 44.148C75.2865 43.38 76.1625 42.996 77.2425 42.996C77.8665 42.996 78.4785 42.996 79.0785 42.996C79.7025 42.996 80.3265 42.996 80.9505 42.996C80.9505 43.596 80.9505 44.208 80.9505 44.832C80.9505 45.432 80.9505 46.044 80.9505 46.668ZM79.9065 46.848C79.9065 46.632 79.9065 46.428 79.9065 46.236C79.9065 46.02 79.9065 45.816 79.9065 45.624C79.9065 45.432 79.9065 45.24 79.9065 45.048C79.9065 44.832 79.9065 44.616 79.9065 44.4C79.4985 44.4 79.0905 44.4 78.6825 44.4C78.2745 44.4 77.8665 44.4 77.4585 44.4C76.7145 44.4 76.1265 44.652 75.6945 45.156C75.2625 45.66 75.0465 46.224 75.0465 46.848C75.0465 47.16 75.1065 47.46 75.2265 47.748C75.3465 48.012 75.5265 48.264 75.7665 48.504C76.0305 48.768 76.2945 48.948 76.5585 49.044C76.8465 49.164 77.1465 49.224 77.4585 49.224C78.0825 49.2 78.6465 48.972 79.1505 48.54C79.6545 48.132 79.9065 47.568 79.9065 46.848Z" fill="#FFF2FB"/>
<path d="M114.818 44.4H96.89C94.706 44.4 92.834 43.62 91.274 42.06C89.738 40.5 88.97 38.628 88.97 36.444C88.97 34.236 89.738 32.364 91.274 30.828C92.834 29.268 94.706 28.488 96.89 28.488C98.306 28.488 99.614 28.836 100.814 29.532C102.038 30.204 103.01 31.14 103.73 32.34C103.802 32.436 103.85 32.556 103.874 32.7C103.898 32.82 103.91 32.94 103.91 33.06C103.91 33.348 103.85 33.624 103.73 33.888C103.61 34.152 103.43 34.344 103.19 34.464L96.386 38.604C96.218 38.7 96.05 38.772 95.882 38.82C95.738 38.868 95.594 38.892 95.45 38.892C95.018 38.868 94.658 38.7 94.37 38.388C94.082 38.076 93.938 37.716 93.938 37.308C93.938 37.236 93.938 37.164 93.938 37.092C93.962 37.02 93.986 36.96 94.01 36.912C94.058 36.72 94.142 36.54 94.262 36.372C94.406 36.204 94.586 36.06 94.802 35.94L100.058 32.736C99.626 32.352 99.134 32.064 98.582 31.872C98.054 31.68 97.49 31.584 96.89 31.584C95.57 31.584 94.43 32.064 93.47 33.024C92.51 33.96 92.03 35.1 92.03 36.444C92.03 37.788 92.51 38.94 93.47 39.9C94.43 40.86 95.57 41.34 96.89 41.34H114.818C115.346 41.34 115.742 41.496 116.006 41.808C116.294 42.096 116.45 42.42 116.474 42.78C116.474 42.804 116.474 42.828 116.474 42.852C116.474 42.852 116.474 42.864 116.474 42.888C116.45 43.272 116.306 43.62 116.042 43.932C115.778 44.244 115.37 44.4 114.818 44.4ZM114.566 42.888C114.662 42.888 114.734 42.864 114.782 42.816C114.83 42.768 114.866 42.708 114.89 42.636C114.89 42.636 114.89 42.624 114.89 42.6C114.89 42.576 114.89 42.564 114.89 42.564C114.89 42.492 114.866 42.432 114.818 42.384C114.77 42.312 114.686 42.276 114.566 42.276C111.59 42.276 108.602 42.276 105.602 42.276C102.626 42.276 99.638 42.276 96.638 42.276C94.958 42.276 93.518 41.676 92.318 40.476C91.142 39.276 90.554 37.836 90.554 36.156C90.554 34.476 91.142 33.036 92.318 31.836C93.518 30.636 94.958 30.036 96.638 30.036C97.67 30.036 98.63 30.276 99.518 30.756C100.406 31.236 101.138 31.896 101.714 32.736C101.162 33.072 100.61 33.408 100.058 33.744C99.53 34.08 98.99 34.404 98.438 34.716C97.886 35.052 97.334 35.388 96.782 35.724C96.254 36.036 95.714 36.36 95.162 36.696C95.138 36.72 95.102 36.756 95.054 36.804C95.03 36.828 95.018 36.864 95.018 36.912C94.994 36.936 94.982 36.96 94.982 36.984C94.982 36.984 94.982 36.996 94.982 37.02C95.006 37.092 95.042 37.164 95.09 37.236C95.138 37.284 95.21 37.296 95.306 37.272C95.33 37.272 95.342 37.272 95.342 37.272C95.366 37.272 95.39 37.272 95.414 37.272C95.438 37.248 95.462 37.236 95.486 37.236C96.614 36.54 97.742 35.856 98.87 35.184C100.022 34.488 101.162 33.792 102.29 33.096C102.338 33.072 102.362 33.048 102.362 33.024C102.386 32.976 102.41 32.928 102.434 32.88C102.434 32.856 102.434 32.832 102.434 32.808C102.434 32.784 102.434 32.772 102.434 32.772C102.434 32.748 102.422 32.724 102.398 32.7C101.798 31.692 100.982 30.9 99.95 30.324C98.918 29.724 97.814 29.424 96.638 29.424C94.79 29.424 93.206 30.084 91.886 31.404C90.59 32.724 89.942 34.308 89.942 36.156C89.942 38.004 90.59 39.588 91.886 40.908C93.206 42.228 94.79 42.888 96.638 42.888C99.638 42.888 102.626 42.888 105.602 42.888C108.602 42.888 111.59 42.888 114.566 42.888Z" fill="#FFF2FB"/>
<path d="M134.142 44.4H117.114C117.09 44.4 117.066 44.4 117.042 44.4C117.042 44.4 117.03 44.4 117.006 44.4C116.646 44.376 116.31 44.208 115.998 43.896C115.71 43.584 115.566 43.248 115.566 42.888V22.188C115.566 21.636 115.734 21.228 116.07 20.964C116.406 20.676 116.766 20.532 117.15 20.532C117.534 20.532 117.882 20.676 118.194 20.964C118.506 21.228 118.662 21.636 118.662 22.188V41.34H134.142C134.67 41.34 135.066 41.496 135.33 41.808C135.618 42.096 135.774 42.42 135.798 42.78C135.798 42.804 135.798 42.828 135.798 42.852C135.798 42.852 135.798 42.864 135.798 42.888C135.774 43.272 135.63 43.62 135.366 43.932C135.102 44.244 134.694 44.4 134.142 44.4ZM133.89 42.888C133.986 42.888 134.058 42.864 134.106 42.816C134.154 42.768 134.19 42.708 134.214 42.636C134.214 42.636 134.214 42.624 134.214 42.6C134.214 42.576 134.214 42.564 134.214 42.564C134.214 42.492 134.19 42.432 134.142 42.384C134.094 42.312 134.01 42.276 133.89 42.276H117.15V21.9C117.15 21.804 117.126 21.732 117.078 21.684C117.03 21.636 116.97 21.6 116.898 21.576C116.898 21.576 116.886 21.576 116.862 21.576C116.862 21.576 116.85 21.576 116.826 21.576C116.754 21.576 116.682 21.6 116.61 21.648C116.562 21.696 116.538 21.78 116.538 21.9V42.564C116.538 42.66 116.562 42.744 116.61 42.816C116.682 42.864 116.766 42.888 116.862 42.888H133.89Z" fill="#FFF2FB"/>
<path d="M156.172 44.4H140.764C138.58 44.4 136.708 43.62 135.148 42.06C133.612 40.5 132.844 38.628 132.844 36.444C132.844 34.236 133.612 32.364 135.148 30.828C136.708 29.268 138.58 28.488 140.764 28.488C142.156 28.488 143.452 28.836 144.652 29.532C145.876 30.204 146.848 31.14 147.568 32.34C147.688 32.508 147.76 32.676 147.784 32.844C147.832 32.988 147.856 33.132 147.856 33.276C147.856 33.708 147.7 34.068 147.388 34.356C147.076 34.644 146.716 34.788 146.308 34.788C146.068 34.788 145.828 34.728 145.588 34.608C145.348 34.464 145.132 34.248 144.94 33.96C144.484 33.216 143.884 32.64 143.14 32.232C142.42 31.8 141.628 31.584 140.764 31.584C139.42 31.584 138.268 32.064 137.308 33.024C136.372 33.96 135.904 35.1 135.904 36.444C135.904 37.788 136.372 38.94 137.308 39.9C138.268 40.86 139.42 41.34 140.764 41.34H156.172C156.7 41.34 157.096 41.496 157.36 41.808C157.648 42.096 157.804 42.42 157.828 42.78C157.828 42.804 157.828 42.828 157.828 42.852C157.828 42.852 157.828 42.864 157.828 42.888C157.804 43.272 157.66 43.62 157.396 43.932C157.132 44.244 156.724 44.4 156.172 44.4ZM155.884 42.888C155.98 42.888 156.052 42.864 156.1 42.816C156.172 42.768 156.22 42.708 156.244 42.636C156.244 42.636 156.244 42.624 156.244 42.6C156.244 42.576 156.244 42.564 156.244 42.564C156.22 42.492 156.184 42.432 156.136 42.384C156.088 42.312 156.004 42.276 155.884 42.276C154.612 42.276 153.328 42.276 152.032 42.276C150.76 42.276 149.488 42.276 148.216 42.276C146.92 42.276 145.624 42.276 144.328 42.276C143.056 42.276 141.784 42.276 140.512 42.276C138.832 42.276 137.392 41.676 136.192 40.476C135.016 39.276 134.428 37.836 134.428 36.156C134.428 34.476 135.016 33.036 136.192 31.836C137.392 30.636 138.832 30.036 140.512 30.036C141.568 30.036 142.564 30.3 143.5 30.828C144.436 31.356 145.18 32.076 145.732 32.988C145.78 33.06 145.828 33.108 145.876 33.132C145.924 33.156 145.972 33.168 146.02 33.168C146.116 33.168 146.188 33.144 146.236 33.096C146.308 33.048 146.332 32.976 146.308 32.88C146.308 32.856 146.308 32.844 146.308 32.844C146.308 32.82 146.308 32.796 146.308 32.772C146.308 32.772 146.296 32.772 146.272 32.772C146.272 32.748 146.272 32.724 146.272 32.7C145.672 31.692 144.856 30.9 143.824 30.324C142.792 29.724 141.688 29.424 140.512 29.424C138.664 29.424 137.08 30.084 135.76 31.404C134.464 32.724 133.816 34.308 133.816 36.156C133.816 38.004 134.464 39.588 135.76 40.908C137.08 42.228 138.664 42.888 140.512 42.888C141.784 42.888 143.056 42.888 144.328 42.888C145.624 42.888 146.92 42.888 148.216 42.888C149.488 42.888 150.76 42.888 152.032 42.888C153.328 42.888 154.612 42.888 155.884 42.888Z" fill="#FFF2FB"/>
<path d="M181.817 42.312C181.865 42.408 181.889 42.504 181.889 42.6C181.913 42.672 181.925 42.756 181.925 42.852C181.925 43.236 181.781 43.596 181.493 43.932C181.229 44.244 180.821 44.4 180.269 44.4C177.341 44.4 174.401 44.4 171.449 44.4C168.521 44.4 165.593 44.4 162.665 44.4C160.481 44.4 158.609 43.62 157.049 42.06C155.513 40.5 154.745 38.628 154.745 36.444C154.745 34.236 155.513 32.364 157.049 30.828C158.609 29.268 160.481 28.488 162.665 28.488C164.873 28.488 166.745 29.268 168.281 30.828C169.841 32.364 170.621 34.236 170.621 36.444C170.621 36.54 170.621 36.648 170.621 36.768C170.621 36.864 170.609 36.972 170.585 37.092C170.561 37.62 170.477 38.148 170.333 38.676C170.189 39.18 169.985 39.66 169.721 40.116C169.577 40.38 169.397 40.596 169.181 40.764C168.989 40.908 168.785 40.992 168.569 41.016C168.521 41.04 168.473 41.052 168.425 41.052C168.401 41.052 168.365 41.052 168.317 41.052C167.933 41.052 167.573 40.908 167.237 40.62C166.925 40.332 166.769 39.96 166.769 39.504C166.769 39.384 166.781 39.252 166.805 39.108C166.853 38.964 166.913 38.82 166.985 38.676C167.177 38.34 167.309 37.98 167.381 37.596C167.477 37.212 167.525 36.828 167.525 36.444C167.525 35.1 167.045 33.96 166.085 33.024C165.149 32.064 164.009 31.584 162.665 31.584C161.321 31.584 160.169 32.064 159.209 33.024C158.273 33.96 157.805 35.1 157.805 36.444C157.805 37.788 158.285 38.94 159.245 39.9C160.205 40.86 161.345 41.34 162.665 41.34H180.269C180.677 41.34 181.013 41.436 181.277 41.628C181.541 41.82 181.721 42.048 181.817 42.312ZM179.981 42.888C180.077 42.888 180.149 42.864 180.197 42.816C180.269 42.768 180.317 42.708 180.341 42.636C180.341 42.636 180.341 42.624 180.341 42.6C180.341 42.576 180.341 42.564 180.341 42.564C180.317 42.492 180.281 42.432 180.233 42.384C180.185 42.312 180.101 42.276 179.981 42.276H162.413C160.733 42.276 159.293 41.676 158.093 40.476C156.917 39.276 156.329 37.836 156.329 36.156C156.329 34.476 156.917 33.036 158.093 31.836C159.293 30.636 160.733 30.036 162.413 30.036C164.237 30.036 165.701 30.672 166.805 31.944C167.933 33.216 168.497 34.644 168.497 36.228C168.497 36.396 168.485 36.576 168.461 36.768C168.461 36.96 168.437 37.152 168.389 37.344C168.341 37.608 168.269 37.884 168.173 38.172C168.077 38.436 167.957 38.7 167.813 38.964C167.813 38.988 167.801 39.012 167.777 39.036C167.777 39.06 167.777 39.084 167.777 39.108C167.777 39.108 167.777 39.12 167.777 39.144C167.777 39.24 167.813 39.312 167.885 39.36C167.957 39.408 168.041 39.432 168.137 39.432C168.161 39.432 168.185 39.432 168.209 39.432C168.233 39.408 168.257 39.396 168.281 39.396C168.281 39.372 168.293 39.348 168.317 39.324C168.341 39.3 168.365 39.276 168.389 39.252C168.557 38.916 168.689 38.58 168.785 38.244C168.905 37.908 169.001 37.572 169.073 37.236C169.097 37.068 169.109 36.9 169.109 36.732C169.133 36.564 169.145 36.396 169.145 36.228C169.145 34.476 168.521 32.904 167.273 31.512C166.025 30.12 164.405 29.424 162.413 29.424C160.565 29.424 158.981 30.084 157.661 31.404C156.365 32.724 155.717 34.308 155.717 36.156C155.717 38.004 156.365 39.588 157.661 40.908C158.981 42.228 160.565 42.888 162.413 42.888C165.341 42.888 168.269 42.888 171.197 42.888C174.149 42.888 177.077 42.888 179.981 42.888Z" fill="#FFF2FB"/>
<path d="M211.011 44.4H196.647C196.623 44.4 196.599 44.4 196.575 44.4C196.575 44.4 196.563 44.4 196.539 44.4C196.179 44.376 195.843 44.208 195.531 43.896C195.243 43.584 195.099 43.248 195.099 42.888V33.528C195.099 32.976 194.907 32.52 194.523 32.16C194.163 31.776 193.707 31.584 193.155 31.584C192.627 31.584 192.171 31.776 191.787 32.16C191.403 32.52 191.211 32.976 191.211 33.528V42.888C191.211 43.416 191.043 43.812 190.707 44.076C190.395 44.316 190.035 44.436 189.627 44.436C189.243 44.436 188.895 44.304 188.583 44.04C188.271 43.776 188.115 43.392 188.115 42.888V33.528C188.115 32.976 187.923 32.52 187.539 32.16C187.179 31.776 186.723 31.584 186.171 31.584C185.643 31.584 185.187 31.776 184.803 32.16C184.419 32.52 184.227 32.976 184.227 33.528V42.888C184.227 43.44 184.059 43.86 183.723 44.148C183.411 44.412 183.051 44.544 182.643 44.544C182.259 44.544 181.911 44.4 181.599 44.112C181.287 43.824 181.131 43.416 181.131 42.888V33.528C181.131 32.136 181.623 30.948 182.607 29.964C183.591 28.98 184.779 28.488 186.171 28.488C186.843 28.488 187.479 28.62 188.079 28.884C188.679 29.124 189.207 29.46 189.663 29.892C190.119 29.46 190.647 29.124 191.247 28.884C191.847 28.62 192.483 28.488 193.155 28.488C194.547 28.488 195.735 28.98 196.719 29.964C197.703 30.948 198.195 32.136 198.195 33.528V41.34H211.011C211.539 41.34 211.935 41.496 212.199 41.808C212.487 42.096 212.643 42.42 212.667 42.78C212.667 42.804 212.667 42.828 212.667 42.852C212.667 42.852 212.667 42.864 212.667 42.888C212.643 43.272 212.499 43.62 212.235 43.932C211.971 44.244 211.563 44.4 211.011 44.4ZM210.723 42.888C210.819 42.888 210.891 42.864 210.939 42.816C210.987 42.768 211.023 42.708 211.047 42.636C211.047 42.636 211.047 42.624 211.047 42.6C211.047 42.576 211.047 42.564 211.047 42.564C211.047 42.492 211.023 42.432 210.975 42.384C210.927 42.312 210.843 42.276 210.723 42.276C208.395 42.276 206.055 42.276 203.703 42.276C201.375 42.276 199.035 42.276 196.683 42.276C196.683 40.764 196.683 39.252 196.683 37.74C196.683 36.228 196.683 34.728 196.683 33.24C196.683 32.184 196.311 31.284 195.567 30.54C194.847 29.796 193.959 29.424 192.903 29.424C192.111 29.424 191.403 29.64 190.779 30.072C190.155 30.504 189.699 31.056 189.411 31.728C189.075 30.984 188.607 30.432 188.007 30.072C187.431 29.688 186.807 29.484 186.135 29.46C186.111 29.46 186.075 29.46 186.027 29.46C186.003 29.46 185.979 29.46 185.955 29.46C184.995 29.46 184.107 29.796 183.291 30.468C182.499 31.116 182.103 32.04 182.103 33.24C182.103 34.008 182.103 34.788 182.103 35.58C182.103 36.348 182.103 37.116 182.103 37.884C182.103 38.676 182.103 39.468 182.103 40.26C182.103 41.028 182.103 41.796 182.103 42.564C182.103 42.684 182.127 42.78 182.175 42.852C182.247 42.9 182.331 42.912 182.427 42.888C182.499 42.888 182.559 42.864 182.607 42.816C182.679 42.744 182.715 42.66 182.715 42.564C182.715 41.796 182.715 41.028 182.715 40.26C182.715 39.468 182.715 38.676 182.715 37.884C182.715 37.116 182.715 36.348 182.715 35.58C182.715 34.788 182.715 34.008 182.715 33.24C182.715 32.352 183.027 31.596 183.651 30.972C184.275 30.348 185.019 30.036 185.883 30.036C186.771 30.036 187.527 30.348 188.151 30.972C188.775 31.596 189.087 32.352 189.087 33.24C189.087 34.008 189.087 34.788 189.087 35.58C189.087 36.348 189.087 37.116 189.087 37.884C189.087 38.676 189.087 39.468 189.087 40.26C189.087 41.028 189.087 41.796 189.087 42.564C189.087 42.66 189.111 42.732 189.159 42.78C189.207 42.828 189.267 42.864 189.339 42.888C189.339 42.888 189.351 42.888 189.375 42.888C189.399 42.888 189.411 42.888 189.411 42.888C189.483 42.888 189.543 42.864 189.591 42.816C189.663 42.744 189.699 42.66 189.699 42.564C189.699 41.796 189.699 41.028 189.699 40.26C189.699 39.468 189.699 38.676 189.699 37.884C189.699 37.116 189.699 36.348 189.699 35.58C189.699 34.788 189.699 34.008 189.699 33.24C189.699 32.352 190.011 31.596 190.635 30.972C191.259 30.348 192.015 30.036 192.903 30.036C193.767 30.036 194.511 30.348 195.135 30.972C195.759 31.596 196.071 32.352 196.071 33.24C196.071 34.008 196.071 34.788 196.071 35.58C196.071 36.348 196.071 37.116 196.071 37.884C196.071 38.676 196.071 39.468 196.071 40.26C196.071 41.028 196.071 41.796 196.071 42.564C196.071 42.66 196.095 42.744 196.143 42.816C196.215 42.864 196.299 42.888 196.395 42.888C197.595 42.888 198.783 42.888 199.959 42.888C201.159 42.888 202.359 42.888 203.559 42.888C204.759 42.888 205.947 42.888 207.123 42.888C208.323 42.888 209.523 42.888 210.723 42.888Z" fill="#FFF2FB"/>
<path d="M235.509 44.4H217.581C215.397 44.4 213.525 43.62 211.965 42.06C210.429 40.5 209.661 38.628 209.661 36.444C209.661 34.236 210.429 32.364 211.965 30.828C213.525 29.268 215.397 28.488 217.581 28.488C218.997 28.488 220.305 28.836 221.505 29.532C222.729 30.204 223.701 31.14 224.421 32.34C224.493 32.436 224.541 32.556 224.565 32.7C224.589 32.82 224.601 32.94 224.601 33.06C224.601 33.348 224.541 33.624 224.421 33.888C224.301 34.152 224.121 34.344 223.881 34.464L217.077 38.604C216.909 38.7 216.741 38.772 216.573 38.82C216.429 38.868 216.285 38.892 216.141 38.892C215.709 38.868 215.349 38.7 215.061 38.388C214.773 38.076 214.629 37.716 214.629 37.308C214.629 37.236 214.629 37.164 214.629 37.092C214.653 37.02 214.677 36.96 214.701 36.912C214.749 36.72 214.833 36.54 214.953 36.372C215.097 36.204 215.277 36.06 215.493 35.94L220.749 32.736C220.317 32.352 219.825 32.064 219.273 31.872C218.745 31.68 218.181 31.584 217.581 31.584C216.261 31.584 215.121 32.064 214.161 33.024C213.201 33.96 212.721 35.1 212.721 36.444C212.721 37.788 213.201 38.94 214.161 39.9C215.121 40.86 216.261 41.34 217.581 41.34H235.509C236.037 41.34 236.433 41.496 236.697 41.808C236.985 42.096 237.141 42.42 237.165 42.78C237.165 42.804 237.165 42.828 237.165 42.852C237.165 42.852 237.165 42.864 237.165 42.888C237.141 43.272 236.997 43.62 236.733 43.932C236.469 44.244 236.061 44.4 235.509 44.4ZM235.257 42.888C235.353 42.888 235.425 42.864 235.473 42.816C235.521 42.768 235.557 42.708 235.581 42.636C235.581 42.636 235.581 42.624 235.581 42.6C235.581 42.576 235.581 42.564 235.581 42.564C235.581 42.492 235.557 42.432 235.509 42.384C235.461 42.312 235.377 42.276 235.257 42.276C232.281 42.276 229.293 42.276 226.293 42.276C223.317 42.276 220.329 42.276 217.329 42.276C215.649 42.276 214.209 41.676 213.009 40.476C211.833 39.276 211.245 37.836 211.245 36.156C211.245 34.476 211.833 33.036 213.009 31.836C214.209 30.636 215.649 30.036 217.329 30.036C218.361 30.036 219.321 30.276 220.209 30.756C221.097 31.236 221.829 31.896 222.405 32.736C221.853 33.072 221.301 33.408 220.749 33.744C220.221 34.08 219.681 34.404 219.129 34.716C218.577 35.052 218.025 35.388 217.473 35.724C216.945 36.036 216.405 36.36 215.853 36.696C215.829 36.72 215.793 36.756 215.745 36.804C215.721 36.828 215.709 36.864 215.709 36.912C215.685 36.936 215.673 36.96 215.673 36.984C215.673 36.984 215.673 36.996 215.673 37.02C215.697 37.092 215.733 37.164 215.781 37.236C215.829 37.284 215.901 37.296 215.997 37.272C216.021 37.272 216.033 37.272 216.033 37.272C216.057 37.272 216.081 37.272 216.105 37.272C216.129 37.248 216.153 37.236 216.177 37.236C217.305 36.54 218.433 35.856 219.561 35.184C220.713 34.488 221.853 33.792 222.981 33.096C223.029 33.072 223.053 33.048 223.053 33.024C223.077 32.976 223.101 32.928 223.125 32.88C223.125 32.856 223.125 32.832 223.125 32.808C223.125 32.784 223.125 32.772 223.125 32.772C223.125 32.748 223.113 32.724 223.089 32.7C222.489 31.692 221.673 30.9 220.641 30.324C219.609 29.724 218.505 29.424 217.329 29.424C215.481 29.424 213.897 30.084 212.577 31.404C211.281 32.724 210.633 34.308 210.633 36.156C210.633 38.004 211.281 39.588 212.577 40.908C213.897 42.228 215.481 42.888 217.329 42.888C220.329 42.888 223.317 42.888 226.293 42.888C229.293 42.888 232.281 42.888 235.257 42.888Z" fill="#FFF2FB"/>
</g>
<defs>
<filter id="filter0_ddd" x="58.7391" y="46.5652" width="237.538" height="71.7548" filterUnits="userSpaceOnUse" color-interpolation-filters="sRGB">
<feFlood flood-opacity="0" result="BackgroundImageFix"/>
<feColorMatrix in="SourceAlpha" type="matrix" values="0 0 0 0 0 0 0 0 0 0 0 0 0 0 0 0 0 0 127 0"/>
<feOffset/>
<feGaussianBlur stdDeviation="10"/>
<feColorMatrix type="matrix" values="0 0 0 0 0.941667 0 0 0 0 0.051007 0 0 0 0 0.8526 0 0 0 0.25 0"/>
<feBlend mode="normal" in2="BackgroundImageFix" result="effect1_dropShadow"/>
<feColorMatrix in="SourceAlpha" type="matrix" values="0 0 0 0 0 0 0 0 0 0 0 0 0 0 0 0 0 0 127 0"/>
<feOffset/>
<feGaussianBlur stdDeviation="5"/>
<feColorMatrix type="matrix" values="0 0 0 0 0.975 0 0 0 0 0.345313 0 0 0 0 0.798688 0 0 0 0.5 0"/>
<feBlend mode="normal" in2="effect1_dropShadow" result="effect2_dropShadow"/>
<feColorMatrix in="SourceAlpha" type="matrix" values="0 0 0 0 0 0 0 0 0 0 0 0 0 0 0 0 0 0 127 0"/>
<feOffset dy="4"/>
<feGaussianBlur stdDeviation="2.5"/>
<feColorMatrix type="matrix" values="0 0 0 0 0.9875 0 0 0 0 0.752969 0 0 0 0 0.949975 0 0 0 0.25 0"/>
<feBlend mode="normal" in2="effect2_dropShadow" result="effect3_dropShadow"/>
<feBlend mode="normal" in="SourceGraphic" in2="effect3_dropShadow" result="shape"/>
</filter>
<filter id="filter1_ddd" x="0.177032" y="50.5652" width="88.6599" height="63.8348" filterUnits="userSpaceOnUse" color-interpolation-filters="sRGB">
<feFlood flood-opacity="0" result="BackgroundImageFix"/>
<feColorMatrix in="SourceAlpha" type="matrix" values="0 0 0 0 0 0 0 0 0 0 0 0 0 0 0 0 0 0 127 0"/>
<feOffset/>
<feGaussianBlur stdDeviation="10"/>
<feColorMatrix type="matrix" values="0 0 0 0 0.941667 0 0 0 0 0.051007 0 0 0 0 0.8526 0 0 0 0.25 0"/>
<feBlend mode="normal" in2="BackgroundImageFix" result="effect1_dropShadow"/>
<feColorMatrix in="SourceAlpha" type="matrix" values="0 0 0 0 0 0 0 0 0 0 0 0 0 0 0 0 0 0 127 0"/>
<feOffset/>
<feGaussianBlur stdDeviation="5"/>
<feColorMatrix type="matrix" values="0 0 0 0 0.975 0 0 0 0 0.345313 0 0 0 0 0.798688 0 0 0 0.5 0"/>
<feBlend mode="normal" in2="effect1_dropShadow" result="effect2_dropShadow"/>
<feColorMatrix in="SourceAlpha" type="matrix" values="0 0 0 0 0 0 0 0 0 0 0 0 0 0 0 0 0 0 127 0"/>
<feOffset dy="4"/>
<feGaussianBlur stdDeviation="2.5"/>
<feColorMatrix type="matrix" values="0 0 0 0 0.9875 0 0 0 0 0.752969 0 0 0 0 0.949975 0 0 0 0.25 0"/>
<feBlend mode="normal" in2="effect2_dropShadow" result="effect3_dropShadow"/>
<feBlend mode="normal" in="SourceGraphic" in2="effect3_dropShadow" result="shape"/>
</filter>
<filter id="filter2_ddd" x="43.8865" y="0.531982" width="213.279" height="71.788" filterUnits="userSpaceOnUse" color-interpolation-filters="sRGB">
<feFlood flood-opacity="0" result="BackgroundImageFix"/>
<feColorMatrix in="SourceAlpha" type="matrix" values="0 0 0 0 0 0 0 0 0 0 0 0 0 0 0 0 0 0 127 0"/>
<feOffset/>
<feGaussianBlur stdDeviation="10"/>
<feColorMatrix type="matrix" values="0 0 0 0 0.941667 0 0 0 0 0.051007 0 0 0 0 0.8526 0 0 0 0.25 0"/>
<feBlend mode="normal" in2="BackgroundImageFix" result="effect1_dropShadow"/>
<feColorMatrix in="SourceAlpha" type="matrix" values="0 0 0 0 0 0 0 0 0 0 0 0 0 0 0 0 0 0 127 0"/>
<feOffset/>
<feGaussianBlur stdDeviation="5"/>
<feColorMatrix type="matrix" values="0 0 0 0 0.975 0 0 0 0 0.345313 0 0 0 0 0.798688 0 0 0 0.5 0"/>
<feBlend mode="normal" in2="effect1_dropShadow" result="effect2_dropShadow"/>
<feColorMatrix in="SourceAlpha" type="matrix" values="0 0 0 0 0 0 0 0 0 0 0 0 0 0 0 0 0 0 127 0"/>
<feOffset dy="4"/>
<feGaussianBlur stdDeviation="2.5"/>
<feColorMatrix type="matrix" values="0 0 0 0 0.9875 0 0 0 0 0.752969 0 0 0 0 0.949975 0 0 0 0.25 0"/>
<feBlend mode="normal" in2="effect2_dropShadow" result="effect3_dropShadow"/>
<feBlend mode="normal" in="SourceGraphic" in2="effect3_dropShadow" result="shape"/>
</filter>
</defs>
</svg>
