<svg width="123" height="109" viewBox="0 0 123 109" fill="none" xmlns="http://www.w3.org/2000/svg">
<g filter="url(#filter0_d)">
<rect x="2" y="2" width="105" height="89" rx="5" fill="#4C705C"/>
<rect x="1" y="1" width="107" height="91" rx="6" stroke="#D8E7FF" stroke-width="2"/>
</g>
<g clip-path="url(#clip0)" filter="url(#filter1_f)">
<path fill-rule="evenodd" clip-rule="evenodd" d="M79.0231 46.399C79.0105 47.6631 77.9117 48.8135 76.5856 48.8388C75.1775 48.8451 73.763 48.8451 72.3548 48.8388C70.9782 48.8135 69.7405 47.6189 69.69 46.203V46.1398V24.9714H70.9845C70.9845 32.0381 70.9087 39.1111 70.9845 46.1777C71.0098 46.892 71.6412 47.5304 72.3674 47.543C73.7693 47.5493 75.1775 47.5683 76.5793 47.543C77.1792 47.5241 77.716 47.0184 77.7223 46.361V31.2796H79.0168C79.0231 36.3173 79.0863 41.3613 79.0231 46.399Z" fill="#FDF7F7"/>
<path fill-rule="evenodd" clip-rule="evenodd" d="M91.5136 17.5634C92.6186 17.5824 93.5974 18.5242 93.6227 19.6746V46.854H92.3282C92.3282 37.79 92.6818 28.726 92.3282 19.6683C92.3092 19.2384 91.9367 18.8718 91.5136 18.8592C89.7644 18.8276 88.0152 18.8023 86.2724 18.8592C85.8493 18.8782 85.483 19.2384 85.4578 19.6746C85.4578 19.6809 85.4578 19.6872 85.4578 19.6935V28.549H84.1633C84.1633 25.5845 84.1064 22.6201 84.1633 19.6556C84.1633 19.5166 84.1696 19.5039 84.1759 19.4407C84.3022 18.4357 85.2241 17.595 86.2534 17.5634C88.0026 17.5318 89.7581 17.5508 91.5136 17.5634Z" fill="#FDF7F7"/>
<path fill-rule="evenodd" clip-rule="evenodd" d="M54.4842 27.0825C54.9389 29.8321 57.6542 31.8927 60.4137 32.3604L60.4579 32.3667C60.4579 31.4376 60.4579 30.5084 60.4579 29.5792C60.4579 28.8081 60.78 27.7083 59.9085 27.5503C58.1278 27.2595 56.3407 27.0889 54.5221 27.0699C54.5221 27.0762 54.4779 27.0572 54.4842 27.0825ZM54.1495 25.7741C56.145 25.7804 58.1404 25.9385 60.1043 26.2735C61.0073 26.4252 61.7398 27.2595 61.7524 28.1887C61.7587 29.7878 61.7587 31.3744 61.7524 32.9672C61.7524 33.4349 61.3483 33.7763 60.7294 33.7131C60.4832 33.6878 60.2116 33.6498 59.9654 33.6056C56.6186 32.9672 53.3665 30.4262 53.1265 26.6527C53.095 26.1471 53.436 25.7678 54.1495 25.7741Z" fill="#FDF7F7"/>
<path fill-rule="evenodd" clip-rule="evenodd" d="M38.0976 40.3436C39.1269 40.3625 40.0488 41.2411 40.0804 42.303V46.9046C40.0551 47.9033 39.1963 48.8198 38.1418 48.8451L21.7552 48.8387V47.543C27.2047 47.543 32.6606 47.543 38.1102 47.5493C38.4512 47.5493 38.7669 47.2712 38.7796 46.8982C38.8238 45.3749 38.8175 43.8516 38.7796 42.3346C38.7606 41.9554 38.4323 41.652 38.066 41.652H24.4768V40.3562C29.0171 40.3436 33.5573 40.312 38.0976 40.3436Z" fill="#FDF7F7"/>
<path fill-rule="evenodd" clip-rule="evenodd" d="M49.5146 27.4554C47.8412 27.7335 46.1867 28.1507 44.5765 28.7132C44.7154 33.9153 47.2981 39.0098 51.3648 42.3725C54.9326 45.3243 59.4665 47.0183 64.0889 47.4987C64.3225 47.524 64.5688 47.5808 64.7708 47.4797C65.2381 47.2332 65.0487 46.4241 65.0424 45.7541C65.0424 45.0462 65.0613 44.3383 65.0361 43.6367C65.0108 43.2701 64.4172 43.2701 63.9184 43.1879C57.7489 42.1702 52.0341 37.8658 50.1839 31.7852C49.7545 30.3819 49.5903 28.9092 49.584 27.4428C49.5651 27.4428 49.5398 27.4491 49.5146 27.4554ZM49.8682 26.0964C51.1185 26.1344 50.7522 28.4351 51.169 30.3819C52.4446 36.3235 58.0015 40.963 64.3225 41.93C64.714 41.9933 65.1245 42.0059 65.4718 42.1955C66.8294 42.9224 66.4316 45.2927 66.3495 47.1131C66.2927 48.1308 65.295 48.9082 64.2467 48.8134C57.5721 48.175 51.0048 45.0778 47.0202 39.6482C44.6712 36.4499 43.3451 32.5373 43.2756 28.5426C43.2693 28.1191 43.2883 27.7841 43.9387 27.5502C45.7447 26.9055 47.6012 26.4314 49.4956 26.1344C49.6219 26.1217 49.6787 26.0964 49.8682 26.0964Z" fill="#FDF7F7"/>
<path d="M100.139 53.7311H9.08157V55.0268H100.139V53.7311Z" fill="#FDF7F7"/>
<path d="M100.139 56.3289H9.08157V57.6246H100.139V56.3289Z" fill="#FDF7F7"/>
<path fill-rule="evenodd" clip-rule="evenodd" d="M36.9357 62.0998C37.5861 62.1757 37.8071 63.364 36.8852 63.3956H27.1479C26.8196 63.383 26.7943 63.3071 26.6996 63.2123C26.3333 62.8583 26.5796 62.1188 27.1479 62.0935H36.8852C36.9041 62.0998 36.9231 62.0998 36.9357 62.0998Z" fill="#FDF7F7"/>
<path fill-rule="evenodd" clip-rule="evenodd" d="M32.0797 62.2262C32.5975 62.3021 32.6606 62.9405 32.6606 63.522C32.648 66.5876 32.648 69.6595 32.667 72.7187C32.667 72.921 32.6733 72.9526 32.6859 73.0664C32.749 73.5594 32.9511 74.0398 33.3047 74.3874C33.7531 74.8173 34.3909 75.0069 35.0034 75.0195C35.0034 75.0195 35.3381 75.0701 35.4959 75.2597C35.8306 75.6706 35.5023 76.3532 34.7887 76.3153C32.9701 76.2142 31.3914 74.6908 31.3661 72.744C31.3472 69.59 31.3409 66.4422 31.3598 63.2881L31.3661 62.8204C31.4166 62.4601 31.7134 62.2073 32.0797 62.2262Z" fill="#FDF7F7"/>
<path fill-rule="evenodd" clip-rule="evenodd" d="M66.4758 62.0303C66.9936 62.1061 67.0568 62.7508 67.0568 63.326C67.0378 66.4611 67.0441 69.6152 67.0631 72.7124C67.0757 73.3824 67.303 74.0714 67.8461 74.4949C68.2692 74.8299 68.8122 74.9879 69.349 75.0069C69.349 75.0069 69.8289 75.0321 69.9931 75.3924C70.1952 75.8349 69.7973 76.3342 69.1974 76.3026C67.3851 76.2015 65.8128 74.6908 65.7749 72.7314C65.7559 69.4509 65.7433 66.1577 65.7749 62.8646C65.7622 62.8646 65.8064 61.9923 66.4758 62.0303Z" fill="#FDF7F7"/>
<path fill-rule="evenodd" clip-rule="evenodd" d="M48.7 62.0492C49.0283 62.0934 49.2746 62.3652 49.2935 62.6939V73.9892C49.2746 75.1838 48.2516 76.271 47.0076 76.3152C46.1488 76.3342 45.2837 76.3152 44.4186 76.3089C44.1344 76.3026 44.0839 76.2963 43.9324 76.2836C41.577 76.0624 39.5815 74.065 39.5626 71.4735C39.5626 68.6355 39.531 65.7911 39.5626 62.9468V62.6876C39.5879 62.2704 39.771 62.1819 39.9415 62.1061C40.3393 61.9291 40.8382 62.163 40.8571 62.7066C40.8192 65.6457 40.8319 68.6228 40.8571 71.5367C40.8571 71.5873 40.8571 71.6315 40.8634 71.6821C40.9139 72.6997 41.3307 73.6984 42.1643 74.3116C43.4525 75.2534 45.2143 75.0574 46.976 75.0195C47.5065 75.0005 47.9738 74.5707 47.999 73.9892V62.6939C47.9927 62.6939 48.1632 62.0239 48.7 62.0492Z" fill="#FDF7F7"/>
<path fill-rule="evenodd" clip-rule="evenodd" d="M56.1702 62.0239C57.5026 62.0365 58.8224 62.5422 59.8201 63.4587C62.8196 66.2146 62.6365 71.1511 62.6239 74.242C62.6239 75.3165 61.6766 76.3089 60.5463 76.3152H58.0394C57.49 76.2899 57.4395 76.0118 57.4016 75.778C57.3321 75.3987 57.5721 75.0384 58.0394 75.0131C58.8856 75.0131 59.7254 75.0384 60.5716 75.0131C61.7145 74.9626 61.3293 72.567 61.3041 71.2396C61.222 68.0855 60.5211 64.3879 57.2879 63.4714C56.9091 63.3639 56.5112 63.3133 56.1134 63.3133H54.1622V75.6579C54.1622 75.6579 54.118 75.9992 53.9285 76.1572C53.5623 76.4669 52.8929 76.2899 52.8613 75.6579V62.6686C52.874 62.3147 53.1518 62.0365 53.5117 62.0176C54.4084 62.0239 55.2862 62.0176 56.1702 62.0239Z" fill="#FDF7F7"/>
<path fill-rule="evenodd" clip-rule="evenodd" d="M73.8324 63.3133C73.5546 63.3196 73.3146 63.5472 73.302 63.8253C73.2641 67.3839 73.2641 70.9362 73.302 74.4948C73.3146 74.7666 73.542 75.0005 73.8135 75.0068C75.7458 75.0321 77.6718 75.0321 79.6041 75.0068C79.8756 74.9942 80.1029 74.7666 80.1156 74.4948C80.1535 70.9362 80.1535 67.3839 80.1156 63.8253C80.1029 63.5535 79.8693 63.3196 79.6041 63.3133C77.6844 63.288 75.7584 63.3133 73.8324 63.3133ZM79.5978 62.0176C80.5576 62.0302 81.4038 62.8772 81.4164 63.8379C81.4353 67.3966 81.4543 70.9615 81.4164 74.5201C81.3911 75.4556 80.6018 76.2962 79.5978 76.3089C77.6592 76.3215 75.7269 76.3342 73.7882 76.3089C72.8537 76.2836 72.0138 75.4872 72.0012 74.4885C71.9822 70.9236 71.9633 67.365 72.0012 63.8C72.0264 62.8645 72.8158 62.0239 73.8198 62.0112C75.7458 62.0049 77.6718 62.0049 79.5978 62.0176Z" fill="#FDF7F7"/>
<path fill-rule="evenodd" clip-rule="evenodd" d="M10.294 80.8094H98.9207V12.1907H10.294V80.8094ZM99.0028 10.895C99.4133 10.9076 99.8932 11.2995 99.8932 11.2995C99.9563 11.369 99.8995 11.2679 100.026 11.4765C100.026 11.4765 100.209 11.7672 100.222 12.1338V80.8726C100.209 81.2328 100.013 81.5552 100.013 81.5552C99.849 81.7828 99.7985 81.808 99.7164 81.8713C99.5143 82.0229 99.2617 82.1051 99.0028 82.1178C69.4185 82.5033 39.8278 82.1178 10.2435 82.1178C9.68778 82.1114 9.16998 81.7132 9.03737 81.1696C9.03737 81.1696 9.0058 81.0243 8.99948 80.8915V12.1212C9.0058 11.8557 8.97422 11.9632 9.08157 11.6914C9.25838 11.2363 9.71304 10.9139 10.2119 10.895C39.8089 10.5347 69.4058 10.522 99.0028 10.895Z" fill="#FDF7F7"/>
<path fill-rule="evenodd" clip-rule="evenodd" d="M10.0171 9.44072C8.70993 9.44704 7.52908 10.6037 7.51014 11.9122C7.22597 34.9704 7.22597 58.0287 7.51014 81.087C7.52908 82.3701 8.63415 83.5332 9.97918 83.5584C39.7277 83.7417 69.4825 83.7417 99.231 83.5584C100.519 83.5332 101.65 82.4397 101.7 81.1123V11.9058C101.669 10.6227 100.57 9.45968 99.231 9.4344C69.4952 9.2511 39.7593 9.44072 10.0171 9.44072ZM99.25 8.13864C101.17 8.17656 102.9 9.80101 102.995 11.7478C102.995 11.7984 103.001 11.8426 103.001 11.8932V81.0996C102.95 83.0654 101.271 84.8163 99.25 84.8542C69.4888 85.0375 39.7277 85.0375 9.96655 84.8542C8.00268 84.8163 6.24088 83.0717 6.21562 81.0996C5.93146 58.035 5.93146 34.9578 6.21562 11.8932C6.24088 9.95271 7.92059 8.17656 9.96655 8.13864C39.7277 7.95533 69.4888 7.94901 99.25 8.13864Z" fill="#FDF7F7"/>
<path d="M39.5563 43.9275H23.4033V45.2233H39.5563V43.9275Z" fill="#FDF7F7"/>
<path d="M74.988 27.6135H73.6935V48.2446H74.988V27.6135Z" fill="#FDF7F7"/>
<path d="M89.5939 18.2839H88.2994V34.1871H89.5939V18.2839Z" fill="#FDF7F7"/>
<path fill-rule="evenodd" clip-rule="evenodd" d="M54.6547 18.0944C58.2225 18.1133 61.784 18.5748 65.2318 19.4913L66.0148 19.7062L65.6739 20.9577L64.8908 20.7428C58.1089 18.935 50.9101 18.9287 44.1092 20.7301L43.3261 20.9387L42.9915 19.6872L43.7745 19.4786C47.336 18.5368 50.948 18.0817 54.6547 18.0944Z" fill="#FDF7F7"/>
<path fill-rule="evenodd" clip-rule="evenodd" d="M71.174 21.6088C81.5553 26.3114 89.9286 36.1087 90.017 48.0107V48.7945H88.7225V48.0171C88.6846 42.8783 86.9607 37.79 83.9928 33.5677C80.6649 28.8334 75.9037 25.18 70.6435 22.7971L69.9236 22.4747L70.4541 21.2927C70.694 21.3939 70.934 21.5013 71.174 21.6088Z" fill="#FDF7F7"/>
<path fill-rule="evenodd" clip-rule="evenodd" d="M47.7338 27.7463C47.8096 32.6638 50.1271 37.4613 54.1243 40.6407C57.3321 43.1943 61.3609 44.6544 65.4718 44.8377L66.2295 44.8693L66.179 46.1651L65.4149 46.1335C58.5193 45.8301 51.7058 42.0249 48.4347 35.8179C47.1402 33.3591 46.4582 30.5906 46.433 27.8221V26.9814H47.7275V27.7463H47.7338Z" fill="#FDF7F7"/>
<path fill-rule="evenodd" clip-rule="evenodd" d="M37.3588 18.8465C30.7536 18.8465 24.1547 18.638 17.5559 18.8465C17.1391 18.8655 16.7666 19.2321 16.7602 19.6556C16.716 21.2864 16.7097 22.9108 16.7602 24.5416C16.7792 24.8513 17.057 25.1105 17.3665 25.1168H26.9143V26.4125C23.7253 26.4125 20.5301 26.4315 17.3412 26.4125C16.3814 26.3936 15.5099 25.5845 15.4657 24.6048C15.4657 24.5795 15.4657 24.5605 15.4657 24.5353V19.6493C15.4973 18.5368 16.4698 17.5571 17.5938 17.5508H37.3714V18.8465H37.3588Z" fill="#FDF7F7"/>
<path d="M32.1681 21.2675H15.5289V22.5632H32.1681V21.2675Z" fill="#FDF7F7"/>
<path fill-rule="evenodd" clip-rule="evenodd" d="M39.2784 22.3672L38.5522 22.6833C30.2737 26.3746 23.0876 33.3212 20.9027 42.4674C20.467 44.2815 20.2523 46.1461 20.2333 48.0171V48.7945L18.9388 48.7882V48.0044C19.0462 36.8798 26.7501 26.7918 37.2388 21.8553C37.504 21.7288 37.7629 21.6087 38.0281 21.495L38.7543 21.1726C38.9311 21.5771 39.1016 21.9753 39.2784 22.3672Z" fill="#FDF7F7"/>
<path fill-rule="evenodd" clip-rule="evenodd" d="M24.6536 62.0555C25.1019 62.1124 25.1019 62.2515 25.184 62.4285C25.3735 62.8267 25.1209 63.326 24.5968 63.3513C22.9802 63.3513 21.3636 63.3387 19.7471 63.3513C18.4589 63.3766 17.3096 64.5143 17.2844 65.8164C17.278 66.6065 17.2528 67.3903 17.2844 68.1804C17.297 68.3511 17.4422 68.4964 17.6127 68.5091C19.6903 68.5849 21.7678 68.5091 23.8453 68.5091C24.6283 68.5217 25.3419 69.1664 25.3987 69.9565C25.3987 69.9755 25.3987 70.0134 25.405 70.0324C25.4303 71.897 25.6955 73.907 24.6094 75.1712C23.9906 75.8855 23.0623 76.3089 22.1151 76.3153H16.7855C16.4634 76.3026 16.4192 76.2205 16.3245 76.1256C15.9583 75.759 16.1793 75.0448 16.7855 75.0195C18.5726 75.0195 20.3533 75.0321 22.1404 75.0195C23.1633 75.0005 24.0916 74.1409 24.1169 73.0411C24.1232 72.0487 24.1547 71.05 24.1169 70.0577C24.1105 69.9249 23.9906 69.8112 23.858 69.8048C21.7867 69.7796 19.7092 69.8048 17.638 69.8048C16.7918 69.7922 16.034 69.1096 15.9962 68.1994C15.9772 66.537 15.832 64.7798 16.7665 63.5536C17.4675 62.6244 18.6041 62.0619 19.785 62.0555H24.6031C24.6157 62.0555 24.6347 62.0555 24.6536 62.0555Z" fill="#FDF7F7"/>
<path fill-rule="evenodd" clip-rule="evenodd" d="M93.1933 62.0555C93.4459 62.0871 93.528 62.1567 93.6353 62.2831C93.9447 62.6497 93.7679 63.3197 93.1365 63.3513C91.5199 63.3513 89.9033 63.3387 88.2868 63.3513C86.9986 63.3766 85.8493 64.5143 85.824 65.8164C85.8177 66.6065 85.7925 67.3903 85.824 68.1804C85.8367 68.3574 85.9882 68.5028 86.1587 68.5091C88.2299 68.5344 90.3075 68.5091 92.385 68.5091C93.168 68.5217 93.8816 69.1664 93.9384 69.9565C93.9384 69.9755 93.9384 70.0134 93.9447 70.0324C93.97 72.0993 94.21 74.3242 92.7702 75.5441C92.1829 76.0372 91.4189 76.3153 90.6485 76.3216H85.3189C84.9526 76.3026 84.921 76.2078 84.82 76.0877C84.5043 75.7085 84.7316 75.0448 85.3189 75.0195C87.1059 75.0195 88.8867 75.0321 90.6737 75.0195C91.703 75.0005 92.6376 74.0967 92.6502 73.0474C92.6628 72.0551 92.6944 71.0564 92.6502 70.064C92.6439 69.9313 92.5302 69.8175 92.3913 69.8112C90.3201 69.7859 88.2426 69.8112 86.1713 69.8112C85.3189 69.7985 84.5674 69.0906 84.5295 68.2057C84.5043 66.2399 84.4159 64.1477 85.9188 62.9152C86.5881 62.3653 87.4469 62.0619 88.3183 62.0555H93.1365C93.1554 62.0555 93.1743 62.0555 93.1933 62.0555Z" fill="#FDF7F7"/>
<path fill-rule="evenodd" clip-rule="evenodd" d="M54.4968 28.4226C56.827 28.4352 59.1571 28.7134 61.4114 29.2696L61.102 30.5274C61.001 30.5022 60.8999 30.4769 60.7989 30.4579C58.6961 29.9649 56.5428 29.7247 54.3832 29.7247V28.4289C54.4211 28.4226 54.459 28.4226 54.4968 28.4226Z" fill="#FDF7F7"/>
<path fill-rule="evenodd" clip-rule="evenodd" d="M37.3146 17.5444C38.426 17.5634 39.411 18.5242 39.43 19.6809L38.1355 19.6998C38.1355 19.6745 38.1355 19.6493 38.1355 19.624C38.1039 19.2005 37.725 18.8465 37.3019 18.8402L37.2956 17.5444C37.2956 17.5444 37.3019 17.5444 37.3146 17.5444Z" fill="#FDF7F7"/>
<path fill-rule="evenodd" clip-rule="evenodd" d="M54.3579 16.5204C51.2574 16.5394 48.1569 16.8618 45.1195 17.5254C44.5765 17.6455 44.0776 18.0248 44.065 18.5431C44.0397 19.8389 44.065 21.1346 44.065 22.4367V22.6959C50.6386 20.7238 57.7489 20.6858 64.3099 22.5062C64.4614 22.5505 64.6193 22.5947 64.7708 22.639C64.9287 22.6832 65.055 22.601 65.055 22.601C65.055 21.1599 65.0866 19.7124 65.055 18.2839C65.055 17.5823 63.8047 17.5002 62.7691 17.2979C59.9969 16.7606 57.1869 16.5141 54.3579 16.5204ZM54.6863 15.2183C58.1152 15.2373 61.5504 15.6292 64.8845 16.413C65.7054 16.6152 66.3306 17.3927 66.3495 18.2397C66.3748 19.6998 66.3621 21.1599 66.3495 22.6137C66.3306 23.4733 65.4149 24.1686 64.5688 23.9284C58.0078 21.9626 50.8091 21.9626 44.1534 24.0169C43.4651 24.2318 42.7957 24.1244 42.7641 23.5302C42.7389 21.8678 42.7515 20.2055 42.7641 18.5368C42.7831 17.4117 43.6924 16.5078 44.8417 16.255C48.0685 15.5534 51.3458 15.212 54.6863 15.2183ZM38.0597 19.7314C27.5394 24.1054 18.5283 32.8913 16.8802 45.141C16.855 45.3306 16.8297 45.5266 16.8108 45.7225C16.7918 45.8679 16.7792 46.0133 16.7665 46.1587C16.7476 46.3293 16.735 46.5 16.7223 46.6707C16.6908 47.0878 16.8865 47.5429 17.3349 47.5492L22.5634 47.5366C23.0686 38.4915 28.9286 30.2492 37.043 25.673C37.5482 25.3885 38.1292 25.1989 38.1355 24.5542V19.7061C38.1039 19.7061 38.0786 19.7188 38.0597 19.7314ZM87.7563 47.5303C88.4446 47.5303 89.1392 47.5303 89.8276 47.5366C90.5095 47.5366 91.1978 47.5682 91.8798 47.5366C92.3155 47.5113 92.3155 46.7781 92.2903 46.4937C92.2776 46.3546 92.265 46.2156 92.2524 46.0828C91.1284 34.876 82.5657 24.8702 71.9822 20.1549C71.7549 20.0538 71.5276 19.8894 71.3066 19.8894C71.1297 19.8957 70.9908 20.0474 70.9845 20.2307V25.1167C71.0792 25.1673 71.1676 25.2115 71.2624 25.2621C79.0926 29.4465 85.3567 36.8734 86.3671 46.2156C86.5123 46.9045 87.0301 47.5113 87.7563 47.5303ZM85.0663 46.3167H85.06C84.037 37.6825 77.9244 29.9648 69.69 25.9131C69.69 24.0043 69.6774 22.1017 69.69 20.1928C69.7089 19.3395 70.4793 18.5873 71.3318 18.5937C72.0327 18.6063 72.6832 19.0361 73.3588 19.3585C83.8096 24.3013 92.2966 34.0164 93.528 45.811C93.5595 46.1018 93.5848 46.3862 93.6037 46.677C93.6858 47.7452 92.9596 48.8197 91.8735 48.8387C90.4527 48.845 89.0319 48.8387 87.6111 48.8324L87.6174 48.8197C86.3608 48.7249 85.2873 47.6946 85.0663 46.3167ZM38.3186 18.227L38.4954 18.404C38.5649 18.6632 38.4575 18.8086 38.9943 19.4154C39.1269 19.6556 39.2784 19.5987 39.43 19.6556V24.5542C39.4174 26.0838 37.5608 26.7981 36.0137 27.8031C28.916 32.4172 23.8453 40.2171 23.8264 48.8197C21.6604 48.8261 19.4882 48.845 17.3222 48.8387C16.2045 48.8197 15.3394 47.7389 15.4278 46.5569C16.4319 34.0354 26.0681 23.0182 38.3186 18.227Z" fill="#FDF7F7"/>
</g>
<g filter="url(#filter2_d)">
<path fill-rule="evenodd" clip-rule="evenodd" d="M79.0206 46.4002C79.008 47.6643 77.9092 48.8147 76.5831 48.84C75.175 48.8463 73.7605 48.8463 72.3523 48.84C70.9757 48.8147 69.738 47.6201 69.6875 46.2042V46.141V24.9727H70.982C70.982 32.0393 70.9062 39.1123 70.982 46.1789C71.0073 46.8932 71.6387 47.5316 72.3649 47.5442C73.7668 47.5506 75.175 47.5695 76.5768 47.5442C77.1767 47.5253 77.7135 47.0196 77.7198 46.3622V31.2808H79.0143C79.0206 36.3185 79.0838 41.3625 79.0206 46.4002Z" fill="#B8CFF2"/>
<path fill-rule="evenodd" clip-rule="evenodd" d="M91.5111 17.5647C92.6161 17.5836 93.5949 18.5254 93.6202 19.6758V46.8553H92.3257C92.3257 37.7912 92.6793 28.7272 92.3257 19.6695C92.3067 19.2397 91.9341 18.8731 91.5111 18.8604C89.7619 18.8288 88.0127 18.8035 86.2699 18.8604C85.8468 18.8794 85.4805 19.2397 85.4553 19.6758C85.4553 19.6821 85.4553 19.6884 85.4553 19.6948V28.5502H84.1608C84.1608 25.5858 84.1039 22.6213 84.1608 19.6568C84.1608 19.5178 84.1671 19.5051 84.1734 19.4419C84.2997 18.4369 85.2216 17.5963 86.2509 17.5647C88.0001 17.5331 89.7556 17.552 91.5111 17.5647Z" fill="#B8CFF2"/>
<path fill-rule="evenodd" clip-rule="evenodd" d="M54.4817 27.0838C54.9364 29.8333 57.6517 31.8939 60.4112 32.3616L60.4554 32.3679C60.4554 31.4388 60.4554 30.5096 60.4554 29.5805C60.4554 28.8093 60.7775 27.7095 59.906 27.5515C58.1253 27.2607 56.3382 27.0901 54.5196 27.0711C54.5196 27.0774 54.4754 27.0585 54.4817 27.0838ZM54.147 25.7753C56.1425 25.7817 58.1379 25.9397 60.1018 26.2747C61.0048 26.4264 61.7373 27.2607 61.7499 28.1899C61.7562 29.7891 61.7562 31.3756 61.7499 32.9684C61.7499 33.4362 61.3458 33.7775 60.7269 33.7143C60.4807 33.689 60.2091 33.6511 59.9629 33.6068C56.6161 32.9684 53.364 30.4275 53.124 26.6539C53.0925 26.1483 53.4335 25.769 54.147 25.7753Z" fill="#B8CFF2"/>
<path fill-rule="evenodd" clip-rule="evenodd" d="M38.0951 40.3448C39.1244 40.3638 40.0463 41.2424 40.0779 42.3042V46.9058C40.0526 47.9045 39.1938 48.821 38.1393 48.8463L21.7527 48.84V47.5442C27.2022 47.5442 32.6581 47.5442 38.1077 47.5505C38.4487 47.5505 38.7644 47.2724 38.7771 46.8995C38.8213 45.3762 38.815 43.8528 38.7771 42.3358C38.7581 41.9566 38.4298 41.6532 38.0635 41.6532H24.4743V40.3574C29.0146 40.3448 33.5548 40.3132 38.0951 40.3448Z" fill="#B8CFF2"/>
<path fill-rule="evenodd" clip-rule="evenodd" d="M49.5121 27.4566C47.8387 27.7347 46.1842 28.1519 44.574 28.7145C44.7129 33.9165 47.2956 39.0111 51.3623 42.3737C54.9301 45.3255 59.464 47.0195 64.0864 47.4999C64.32 47.5252 64.5663 47.5821 64.7683 47.4809C65.2356 47.2344 65.0462 46.4254 65.0399 45.7554C65.0399 45.0474 65.0588 44.3395 65.0336 43.6379C65.0083 43.2713 64.4147 43.2713 63.9159 43.1891C57.7464 42.1715 52.0316 37.867 50.1814 31.7864C49.752 30.3832 49.5878 28.9104 49.5815 27.444C49.5626 27.444 49.5373 27.4503 49.5121 27.4566ZM49.8657 26.0977C51.116 26.1356 50.7497 28.4364 51.1665 30.3832C52.4421 36.3247 57.999 40.9642 64.32 41.9313C64.7115 41.9945 65.122 42.0071 65.4693 42.1967C66.8269 42.9236 66.4291 45.2939 66.347 47.1143C66.2902 48.132 65.2925 48.9094 64.2442 48.8146C57.5696 48.1762 51.0023 45.079 47.0177 39.6495C44.6687 36.4511 43.3426 32.5386 43.2731 28.5438C43.2668 28.1203 43.2858 27.7853 43.9362 27.5514C45.7422 26.9067 47.5987 26.4327 49.4931 26.1356C49.6194 26.1229 49.6762 26.0977 49.8657 26.0977Z" fill="#B8CFF2"/>
<path d="M100.137 53.7323H9.07907V55.0281H100.137V53.7323Z" fill="#B8CFF2"/>
<path d="M100.137 56.3301H9.07907V57.6258H100.137V56.3301Z" fill="#B8CFF2"/>
<path fill-rule="evenodd" clip-rule="evenodd" d="M36.9332 62.101C37.5836 62.1769 37.8046 63.3652 36.8827 63.3968H27.1454C26.817 63.3842 26.7918 63.3083 26.6971 63.2135C26.3308 62.8595 26.5771 62.12 27.1454 62.0947H36.8827C36.9016 62.101 36.9206 62.101 36.9332 62.101Z" fill="#B8CFF2"/>
<path fill-rule="evenodd" clip-rule="evenodd" d="M32.0772 62.2274C32.595 62.3033 32.6581 62.9417 32.6581 63.5232C32.6455 66.5888 32.6455 69.6607 32.6645 72.72C32.6645 72.9222 32.6708 72.9538 32.6834 73.0676C32.7465 73.5606 32.9486 74.041 33.3022 74.3887C33.7506 74.8185 34.3884 75.0081 35.0009 75.0207C35.0009 75.0207 35.3356 75.0713 35.4934 75.2609C35.8281 75.6718 35.4997 76.3544 34.7862 76.3165C32.9676 76.2154 31.3889 74.6921 31.3636 72.7453C31.3447 69.5912 31.3384 66.4434 31.3573 63.2893L31.3636 62.8216C31.4141 62.4613 31.7109 62.2085 32.0772 62.2274Z" fill="#B8CFF2"/>
<path fill-rule="evenodd" clip-rule="evenodd" d="M66.4733 62.0315C66.9911 62.1073 67.0543 62.752 67.0543 63.3272C67.0353 66.4624 67.0416 69.6164 67.0606 72.7136C67.0732 73.3836 67.3005 74.0726 67.8436 74.4961C68.2667 74.8311 68.8097 74.9891 69.3465 75.0081C69.3465 75.0081 69.8264 75.0334 69.9906 75.3936C70.1927 75.8361 69.7948 76.3354 69.1949 76.3038C67.3826 76.2027 65.8103 74.692 65.7724 72.7326C65.7534 69.4521 65.7408 66.159 65.7724 62.8658C65.7597 62.8658 65.8039 61.9936 66.4733 62.0315Z" fill="#B8CFF2"/>
<path fill-rule="evenodd" clip-rule="evenodd" d="M48.6975 62.0504C49.0258 62.0947 49.2721 62.3665 49.291 62.6951V73.9904C49.2721 75.185 48.2491 76.2722 47.0051 76.3165C46.1463 76.3354 45.2812 76.3165 44.4161 76.3101C44.1319 76.3038 44.0814 76.2975 43.9299 76.2849C41.5745 76.0636 39.579 74.0663 39.5601 71.4747C39.5601 68.6367 39.5285 65.7923 39.5601 62.948V62.6888C39.5854 62.2716 39.7685 62.1832 39.939 62.1073C40.3368 61.9303 40.8357 62.1642 40.8546 62.7078C40.8167 65.647 40.8294 68.624 40.8546 71.5379C40.8546 71.5885 40.8546 71.6328 40.8609 71.6833C40.9114 72.701 41.3282 73.6997 42.1618 74.3128C43.4499 75.2546 45.2117 75.0586 46.9735 75.0207C47.504 75.0017 47.9713 74.5719 47.9965 73.9904V62.6951C47.9902 62.6951 48.1607 62.0251 48.6975 62.0504Z" fill="#B8CFF2"/>
<path fill-rule="evenodd" clip-rule="evenodd" d="M56.1677 62.0251C57.5001 62.0378 58.8199 62.5434 59.8176 63.4599C62.8171 66.2158 62.634 71.1524 62.6213 74.2432C62.6213 75.3178 61.6741 76.3101 60.5438 76.3165H58.0369C57.4875 76.2912 57.437 76.0131 57.3991 75.7792C57.3296 75.3999 57.5696 75.0396 58.0369 75.0144C58.8831 75.0144 59.7229 75.0396 60.5691 75.0144C61.712 74.9638 61.3268 72.5682 61.3016 71.2408C61.2195 68.0868 60.5186 64.3891 57.2854 63.4726C56.9065 63.3651 56.5087 63.3146 56.1109 63.3146H54.1597V75.6591C54.1597 75.6591 54.1155 76.0004 53.926 76.1584C53.5598 76.4682 52.8904 76.2912 52.8588 75.6591V62.6698C52.8715 62.3159 53.1493 62.0378 53.5092 62.0188C54.4059 62.0251 55.2837 62.0188 56.1677 62.0251Z" fill="#B8CFF2"/>
<path fill-rule="evenodd" clip-rule="evenodd" d="M73.8299 63.3145C73.5521 63.3209 73.3121 63.5484 73.2995 63.8265C73.2616 67.3851 73.2616 70.9374 73.2995 74.496C73.3121 74.7678 73.5395 75.0017 73.811 75.008C75.7433 75.0333 77.6693 75.0333 79.6016 75.008C79.8731 74.9954 80.1004 74.7678 80.1131 74.496C80.151 70.9374 80.151 67.3851 80.1131 63.8265C80.1004 63.5547 79.8668 63.3209 79.6016 63.3145C77.6819 63.2893 75.7559 63.3145 73.8299 63.3145ZM79.5953 62.0188C80.5551 62.0314 81.4013 62.8784 81.4139 63.8392C81.4328 67.3978 81.4518 70.9627 81.4139 74.5213C81.3886 75.4568 80.5993 76.2975 79.5953 76.3101C77.6567 76.3227 75.7244 76.3354 73.7857 76.3101C72.8512 76.2848 72.0113 75.4884 71.9987 74.4897C71.9797 70.9248 71.9608 67.3662 71.9987 63.8012C72.0239 62.8658 72.8133 62.0251 73.8173 62.0125C75.7433 62.0061 77.6693 62.0061 79.5953 62.0188Z" fill="#B8CFF2"/>
<path fill-rule="evenodd" clip-rule="evenodd" d="M10.2915 80.8106H98.9182V12.192H10.2915V80.8106ZM99.0003 10.8962C99.4108 10.9088 99.8907 11.3007 99.8907 11.3007C99.9538 11.3703 99.897 11.2691 100.023 11.4777C100.023 11.4777 100.206 11.7685 100.219 12.1351V80.8738C100.206 81.2341 100.011 81.5564 100.011 81.5564C99.8465 81.784 99.796 81.8093 99.7139 81.8725C99.5118 82.0242 99.2592 82.1063 99.0003 82.119C69.416 82.5046 39.8253 82.119 10.241 82.119C9.68528 82.1127 9.16748 81.7145 9.03487 81.1709C9.03487 81.1709 9.00329 81.0255 8.99698 80.8927V12.1224C9.00329 11.857 8.97172 11.9644 9.07907 11.6926C9.25588 11.2375 9.71054 10.9152 10.2094 10.8962C39.8064 10.5359 69.4033 10.5233 99.0003 10.8962Z" fill="#B8CFF2"/>
<path fill-rule="evenodd" clip-rule="evenodd" d="M10.0146 9.44194C8.70742 9.44826 7.52658 10.605 7.50763 11.9134C7.22347 34.9717 7.22347 58.0299 7.50763 81.0882C7.52658 82.3713 8.63165 83.5344 9.97668 83.5597C39.7252 83.743 69.48 83.743 99.2285 83.5597C100.517 83.5344 101.647 82.4409 101.698 81.1135V11.9071C101.666 10.6239 100.567 9.46091 99.2285 9.43562C69.4927 9.25232 39.7568 9.44194 10.0146 9.44194ZM99.2475 8.13986C101.167 8.17778 102.897 9.80223 102.992 11.749C102.992 11.7996 102.998 11.8438 102.998 11.8944V81.1009C102.948 83.0666 101.268 84.8175 99.2475 84.8554C69.4863 85.0387 39.7252 85.0387 9.96405 84.8554C8.00018 84.8175 6.23838 83.073 6.21312 81.1009C5.92896 58.0363 5.92896 34.959 6.21312 11.8944C6.23838 9.95393 7.91809 8.17778 9.96405 8.13986C39.7252 7.95655 69.4863 7.95023 99.2475 8.13986Z" fill="#B8CFF2"/>
<path d="M39.5538 43.9287H23.4008V45.2245H39.5538V43.9287Z" fill="#B8CFF2"/>
<path d="M74.9855 27.6147H73.691V48.2458H74.9855V27.6147Z" fill="#B8CFF2"/>
<path d="M89.5914 18.2852H88.2969V34.1883H89.5914V18.2852Z" fill="#B8CFF2"/>
<path fill-rule="evenodd" clip-rule="evenodd" d="M54.6522 18.0956C58.22 18.1146 61.7815 18.576 65.2293 19.4925L66.0123 19.7074L65.6714 20.9589L64.8883 20.744C58.1063 18.9363 50.9076 18.9299 44.1067 20.7314L43.3236 20.94L42.989 19.6884L43.772 19.4798C47.3335 18.538 50.9455 18.083 54.6522 18.0956Z" fill="#B8CFF2"/>
<path fill-rule="evenodd" clip-rule="evenodd" d="M71.1714 21.61C81.5528 26.3127 89.9261 36.1099 90.0145 48.012V48.7958H88.72V48.0183C88.6821 42.8795 86.9582 37.7912 83.9903 33.5689C80.6624 28.8347 75.9012 25.1812 70.641 22.7983L69.9211 22.4759L70.4516 21.2939C70.6915 21.3951 70.9315 21.5025 71.1714 21.61Z" fill="#B8CFF2"/>
<path fill-rule="evenodd" clip-rule="evenodd" d="M47.7313 27.7475C47.8071 32.6651 50.1246 37.4626 54.1218 40.6419C57.3296 43.1955 61.3584 44.6556 65.4693 44.8389L66.227 44.8705L66.1765 46.1663L65.4124 46.1347C58.5168 45.8313 51.7032 42.0262 48.4322 35.8191C47.1377 33.3604 46.4557 30.5918 46.4305 27.8233V26.9827H47.725V27.7475H47.7313Z" fill="#B8CFF2"/>
<path fill-rule="evenodd" clip-rule="evenodd" d="M37.3563 18.8478C30.7511 18.8478 24.1522 18.6392 17.5534 18.8478C17.1366 18.8667 16.7641 19.2333 16.7577 19.6568C16.7135 21.2876 16.7072 22.912 16.7577 24.5428C16.7767 24.8525 17.0545 25.1117 17.3639 25.118H26.9118V26.4138C23.7228 26.4138 20.5276 26.4327 17.3387 26.4138C16.3789 26.3948 15.5074 25.5857 15.4632 24.606C15.4632 24.5807 15.4632 24.5618 15.4632 24.5365V19.6505C15.4948 18.538 16.4673 17.5583 17.5913 17.552H37.3689V18.8478H37.3563Z" fill="#B8CFF2"/>
<path d="M32.1656 21.2687H15.5264V22.5644H32.1656V21.2687Z" fill="#B8CFF2"/>
<path fill-rule="evenodd" clip-rule="evenodd" d="M39.2759 22.3685L38.5497 22.6845C30.2712 26.3758 23.0851 33.3224 20.9002 42.4686C20.4645 44.2827 20.2498 46.1473 20.2308 48.0183V48.7957L18.9363 48.7894V48.0056C19.0437 36.881 26.7476 26.793 37.2363 21.8565C37.5015 21.7301 37.7604 21.61 38.0256 21.4962L38.7518 21.1738C38.9286 21.5784 39.0991 21.9766 39.2759 22.3685Z" fill="#B8CFF2"/>
<path fill-rule="evenodd" clip-rule="evenodd" d="M24.6511 62.0568C25.0994 62.1136 25.0994 62.2527 25.1815 62.4297C25.371 62.8279 25.1184 63.3272 24.5943 63.3525C22.9777 63.3525 21.3611 63.3399 19.7446 63.3525C18.4564 63.3778 17.3071 64.5156 17.2819 65.8176C17.2755 66.6077 17.2503 67.3915 17.2819 68.1816C17.2945 68.3523 17.4397 68.4977 17.6102 68.5103C19.6877 68.5862 21.7653 68.5103 23.8428 68.5103C24.6258 68.5229 25.3394 69.1677 25.3962 69.9578C25.3962 69.9767 25.3962 70.0147 25.4025 70.0336C25.4278 71.8982 25.693 73.9083 24.6069 75.1724C23.9881 75.8867 23.0598 76.3102 22.1126 76.3165H16.783C16.4609 76.3038 16.4167 76.2217 16.322 76.1269C15.9558 75.7603 16.1768 75.046 16.783 75.0207C18.57 75.0207 20.3508 75.0334 22.1379 75.0207C23.1608 75.0018 24.0891 74.1421 24.1144 73.0423C24.1207 72.0499 24.1522 71.0513 24.1144 70.0589C24.108 69.9262 23.9881 69.8124 23.8554 69.8061C21.7842 69.7808 19.7067 69.8061 17.6355 69.8061C16.7893 69.7934 16.0315 69.1108 15.9937 68.2006C15.9747 66.5382 15.8295 64.781 16.764 63.5548C17.465 62.6256 18.6016 62.0631 19.7825 62.0568H24.6006C24.6132 62.0568 24.6322 62.0568 24.6511 62.0568Z" fill="#B8CFF2"/>
<path fill-rule="evenodd" clip-rule="evenodd" d="M93.1908 62.0568C93.4434 62.0884 93.5255 62.1579 93.6328 62.2843C93.9422 62.6509 93.7654 63.3209 93.134 63.3525C91.5174 63.3525 89.9008 63.3399 88.2843 63.3525C86.9961 63.3778 85.8468 64.5156 85.8215 65.8176C85.8152 66.6077 85.79 67.3915 85.8215 68.1816C85.8342 68.3586 85.9857 68.504 86.1562 68.5103C88.2274 68.5356 90.305 68.5103 92.3825 68.5103C93.1655 68.5229 93.8791 69.1677 93.9359 69.9578C93.9359 69.9767 93.9359 70.0147 93.9422 70.0336C93.9675 72.1005 94.2074 74.3254 92.7677 75.5454C92.1804 76.0384 91.4164 76.3165 90.646 76.3228H85.3164C84.9501 76.3038 84.9185 76.209 84.8175 76.0889C84.5018 75.7097 84.7291 75.046 85.3164 75.0207C87.1034 75.0207 88.8842 75.0334 90.6712 75.0207C91.7005 75.0018 92.6351 74.0979 92.6477 73.0486C92.6603 72.0563 92.6919 71.0576 92.6477 70.0652C92.6414 69.9325 92.5277 69.8187 92.3888 69.8124C90.3176 69.7871 88.2401 69.8124 86.1688 69.8124C85.3164 69.7997 84.5649 69.0918 84.527 68.2069C84.5018 66.2411 84.4134 64.1489 85.9162 62.9164C86.5856 62.3665 87.4444 62.0631 88.3158 62.0568H93.134C93.1529 62.0568 93.1718 62.0568 93.1908 62.0568Z" fill="#B8CFF2"/>
<path fill-rule="evenodd" clip-rule="evenodd" d="M54.4943 28.4238C56.8245 28.4365 59.1546 28.7146 61.4089 29.2708L61.0995 30.5287C60.9985 30.5034 60.8974 30.4781 60.7964 30.4591C58.6936 29.9661 56.5403 29.7259 54.3807 29.7259V28.4301C54.4186 28.4238 54.4565 28.4238 54.4943 28.4238Z" fill="#B8CFF2"/>
<path fill-rule="evenodd" clip-rule="evenodd" d="M37.3121 17.5457C38.4234 17.5646 39.4085 18.5254 39.4275 19.6821L38.133 19.701C38.133 19.6758 38.133 19.6505 38.133 19.6252C38.1014 19.2017 37.7225 18.8477 37.2994 18.8414L37.2931 17.5457C37.2931 17.5457 37.2994 17.5457 37.3121 17.5457Z" fill="#B8CFF2"/>
<path fill-rule="evenodd" clip-rule="evenodd" d="M54.3554 16.5217C51.2549 16.5406 48.1544 16.863 45.117 17.5267C44.574 17.6468 44.0751 18.026 44.0625 18.5443C44.0372 19.8401 44.0625 21.1358 44.0625 22.4379V22.6971C50.6361 20.725 57.7464 20.6871 64.3074 22.5075C64.4589 22.5517 64.6168 22.5959 64.7683 22.6402C64.9262 22.6844 65.0525 22.6023 65.0525 22.6023C65.0525 21.1611 65.0841 19.7137 65.0525 18.2852C65.0525 17.5835 63.8022 17.5014 62.7666 17.2991C59.9944 16.7618 57.1844 16.5153 54.3554 16.5217ZM54.6838 15.2196C58.1127 15.2385 61.5479 15.6304 64.882 16.4142C65.7029 16.6165 66.3281 17.3939 66.347 18.2409C66.3723 19.701 66.3596 21.1611 66.347 22.6149C66.3281 23.4745 65.4124 24.1698 64.5663 23.9296C58.0053 21.9639 50.8066 21.9639 44.1509 24.0181C43.4626 24.233 42.7932 24.1256 42.7616 23.5314C42.7364 21.8691 42.749 20.2067 42.7616 18.538C42.7806 17.4129 43.6899 16.509 44.8392 16.2562C48.066 15.5546 51.3433 15.2132 54.6838 15.2196ZM38.0572 19.7326C27.5369 24.1066 18.5258 32.8925 16.8777 45.1422C16.8525 45.3319 16.8272 45.5278 16.8083 45.7238C16.7893 45.8691 16.7767 46.0145 16.764 46.1599C16.7451 46.3306 16.7325 46.5012 16.7198 46.6719C16.6883 47.0891 16.884 47.5441 17.3324 47.5505L22.5609 47.5378C23.0661 38.4928 28.9261 30.2504 37.0405 25.6742C37.5457 25.3897 38.1267 25.2001 38.133 24.5554V19.7073C38.1014 19.7073 38.0761 19.72 38.0572 19.7326ZM87.7538 47.5315C88.4421 47.5315 89.1367 47.5315 89.8251 47.5378C90.507 47.5378 91.1953 47.5694 91.8773 47.5378C92.313 47.5125 92.313 46.7793 92.2878 46.4949C92.2751 46.3558 92.2625 46.2168 92.2499 46.084C91.1259 34.8773 82.5631 24.8714 71.9797 20.1561C71.7524 20.055 71.5251 19.8906 71.3041 19.8906C71.1272 19.897 70.9883 20.0487 70.982 20.232V25.1179C71.0767 25.1685 71.1651 25.2128 71.2598 25.2633C79.0901 29.4477 85.3542 36.8746 86.3646 46.2168C86.5098 46.9057 87.0276 47.5125 87.7538 47.5315ZM85.0638 46.3179H85.0574C84.0345 37.6837 77.9219 29.966 69.6875 25.9144C69.6875 24.0055 69.6749 22.1029 69.6875 20.194C69.7064 19.3407 70.4768 18.5886 71.3293 18.5949C72.0302 18.6075 72.6807 19.0373 73.3563 19.3597C83.8071 24.3026 92.2941 34.0176 93.5255 45.8123C93.557 46.103 93.5823 46.3874 93.6012 46.6782C93.6833 47.7464 92.9571 48.821 91.871 48.8399C90.4502 48.8462 89.0294 48.8399 87.6086 48.8336L87.6149 48.821C86.3583 48.7261 85.2848 47.6958 85.0638 46.3179ZM38.3161 18.2283L38.4929 18.4053C38.5624 18.6644 38.455 18.8098 38.9918 19.4166C39.1244 19.6568 39.2759 19.5999 39.4275 19.6568V24.5554C39.4149 26.085 37.5583 26.7993 36.0112 27.8043C28.9135 32.4185 23.8428 40.2183 23.8239 48.821C21.6579 48.8273 19.4857 48.8462 17.3197 48.8399C16.202 48.821 15.3369 47.7401 15.4253 46.5581C16.4294 34.0366 26.0656 23.0194 38.3161 18.2283Z" fill="#B8CFF2"/>
</g>
<g filter="url(#filter3_dd)">
<path fill-rule="evenodd" clip-rule="evenodd" d="M79.0206 46.4002C79.008 47.6643 77.9092 48.8147 76.5831 48.84C75.175 48.8463 73.7605 48.8463 72.3523 48.84C70.9757 48.8147 69.738 47.6201 69.6875 46.2042V46.141V24.9727H70.982C70.982 32.0393 70.9062 39.1123 70.982 46.1789C71.0073 46.8932 71.6387 47.5316 72.3649 47.5442C73.7668 47.5506 75.175 47.5695 76.5768 47.5442C77.1767 47.5253 77.7135 47.0196 77.7198 46.3622V31.2808H79.0143C79.0206 36.3185 79.0838 41.3625 79.0206 46.4002Z" fill="#D8E7FF"/>
<path fill-rule="evenodd" clip-rule="evenodd" d="M91.5111 17.5647C92.6161 17.5836 93.5949 18.5254 93.6202 19.6758V46.8553H92.3257C92.3257 37.7912 92.6793 28.7272 92.3257 19.6695C92.3067 19.2397 91.9341 18.8731 91.5111 18.8604C89.7619 18.8288 88.0127 18.8035 86.2699 18.8604C85.8468 18.8794 85.4805 19.2397 85.4553 19.6758C85.4553 19.6821 85.4553 19.6884 85.4553 19.6948V28.5502H84.1608C84.1608 25.5858 84.1039 22.6213 84.1608 19.6568C84.1608 19.5178 84.1671 19.5051 84.1734 19.4419C84.2997 18.4369 85.2216 17.5963 86.2509 17.5647C88.0001 17.5331 89.7556 17.552 91.5111 17.5647Z" fill="#D8E7FF"/>
<path fill-rule="evenodd" clip-rule="evenodd" d="M54.4817 27.0838C54.9364 29.8333 57.6517 31.8939 60.4112 32.3616L60.4554 32.3679C60.4554 31.4388 60.4554 30.5096 60.4554 29.5805C60.4554 28.8093 60.7775 27.7095 59.906 27.5515C58.1253 27.2607 56.3382 27.0901 54.5196 27.0711C54.5196 27.0774 54.4754 27.0585 54.4817 27.0838ZM54.147 25.7753C56.1425 25.7817 58.1379 25.9397 60.1018 26.2747C61.0048 26.4264 61.7373 27.2607 61.7499 28.1899C61.7562 29.7891 61.7562 31.3756 61.7499 32.9684C61.7499 33.4362 61.3458 33.7775 60.7269 33.7143C60.4807 33.689 60.2091 33.6511 59.9629 33.6068C56.6161 32.9684 53.364 30.4275 53.124 26.6539C53.0925 26.1483 53.4335 25.769 54.147 25.7753Z" fill="#D8E7FF"/>
<path fill-rule="evenodd" clip-rule="evenodd" d="M38.0951 40.3448C39.1244 40.3638 40.0463 41.2424 40.0779 42.3042V46.9058C40.0526 47.9045 39.1938 48.821 38.1393 48.8463L21.7527 48.84V47.5442C27.2022 47.5442 32.6581 47.5442 38.1077 47.5505C38.4487 47.5505 38.7644 47.2724 38.7771 46.8995C38.8213 45.3762 38.815 43.8528 38.7771 42.3358C38.7581 41.9566 38.4298 41.6532 38.0635 41.6532H24.4743V40.3574C29.0146 40.3448 33.5548 40.3132 38.0951 40.3448Z" fill="#D8E7FF"/>
<path fill-rule="evenodd" clip-rule="evenodd" d="M49.5121 27.4566C47.8387 27.7347 46.1842 28.1519 44.574 28.7145C44.7129 33.9165 47.2956 39.0111 51.3623 42.3737C54.9301 45.3255 59.464 47.0195 64.0864 47.4999C64.32 47.5252 64.5663 47.5821 64.7683 47.4809C65.2356 47.2344 65.0462 46.4254 65.0399 45.7554C65.0399 45.0474 65.0588 44.3395 65.0336 43.6379C65.0083 43.2713 64.4147 43.2713 63.9159 43.1891C57.7464 42.1715 52.0316 37.867 50.1814 31.7864C49.752 30.3832 49.5878 28.9104 49.5815 27.444C49.5626 27.444 49.5373 27.4503 49.5121 27.4566ZM49.8657 26.0977C51.116 26.1356 50.7497 28.4364 51.1665 30.3832C52.4421 36.3247 57.999 40.9642 64.32 41.9313C64.7115 41.9945 65.122 42.0071 65.4693 42.1967C66.8269 42.9236 66.4291 45.2939 66.347 47.1143C66.2902 48.132 65.2925 48.9094 64.2442 48.8146C57.5696 48.1762 51.0023 45.079 47.0177 39.6495C44.6687 36.4511 43.3426 32.5386 43.2731 28.5438C43.2668 28.1203 43.2858 27.7853 43.9362 27.5514C45.7422 26.9067 47.5987 26.4327 49.4931 26.1356C49.6194 26.1229 49.6762 26.0977 49.8657 26.0977Z" fill="#D8E7FF"/>
<path d="M100.137 53.7323H9.07907V55.0281H100.137V53.7323Z" fill="#D8E7FF"/>
<path d="M100.137 56.3301H9.07907V57.6258H100.137V56.3301Z" fill="#D8E7FF"/>
<path fill-rule="evenodd" clip-rule="evenodd" d="M36.9332 62.101C37.5836 62.1769 37.8046 63.3652 36.8827 63.3968H27.1454C26.817 63.3842 26.7918 63.3083 26.6971 63.2135C26.3308 62.8595 26.5771 62.12 27.1454 62.0947H36.8827C36.9016 62.101 36.9206 62.101 36.9332 62.101Z" fill="#D8E7FF"/>
<path fill-rule="evenodd" clip-rule="evenodd" d="M32.0772 62.2274C32.595 62.3033 32.6581 62.9417 32.6581 63.5232C32.6455 66.5888 32.6455 69.6607 32.6645 72.72C32.6645 72.9222 32.6708 72.9538 32.6834 73.0676C32.7465 73.5606 32.9486 74.041 33.3022 74.3887C33.7506 74.8185 34.3884 75.0081 35.0009 75.0207C35.0009 75.0207 35.3356 75.0713 35.4934 75.2609C35.8281 75.6718 35.4997 76.3544 34.7862 76.3165C32.9676 76.2154 31.3889 74.6921 31.3636 72.7453C31.3447 69.5912 31.3384 66.4434 31.3573 63.2893L31.3636 62.8216C31.4141 62.4613 31.7109 62.2085 32.0772 62.2274Z" fill="#D8E7FF"/>
<path fill-rule="evenodd" clip-rule="evenodd" d="M66.4733 62.0315C66.9911 62.1073 67.0543 62.752 67.0543 63.3272C67.0353 66.4624 67.0416 69.6164 67.0606 72.7136C67.0732 73.3836 67.3005 74.0726 67.8436 74.4961C68.2667 74.8311 68.8097 74.9891 69.3465 75.0081C69.3465 75.0081 69.8264 75.0334 69.9906 75.3936C70.1927 75.8361 69.7948 76.3354 69.1949 76.3038C67.3826 76.2027 65.8103 74.692 65.7724 72.7326C65.7534 69.4521 65.7408 66.159 65.7724 62.8658C65.7597 62.8658 65.8039 61.9936 66.4733 62.0315Z" fill="#D8E7FF"/>
<path fill-rule="evenodd" clip-rule="evenodd" d="M48.6975 62.0504C49.0258 62.0947 49.2721 62.3665 49.291 62.6951V73.9904C49.2721 75.185 48.2491 76.2722 47.0051 76.3165C46.1463 76.3354 45.2812 76.3165 44.4161 76.3101C44.1319 76.3038 44.0814 76.2975 43.9299 76.2849C41.5745 76.0636 39.579 74.0663 39.5601 71.4747C39.5601 68.6367 39.5285 65.7923 39.5601 62.948V62.6888C39.5854 62.2716 39.7685 62.1832 39.939 62.1073C40.3368 61.9303 40.8357 62.1642 40.8546 62.7078C40.8167 65.647 40.8294 68.624 40.8546 71.5379C40.8546 71.5885 40.8546 71.6328 40.8609 71.6833C40.9114 72.701 41.3282 73.6997 42.1618 74.3128C43.4499 75.2546 45.2117 75.0586 46.9735 75.0207C47.504 75.0017 47.9713 74.5719 47.9965 73.9904V62.6951C47.9902 62.6951 48.1607 62.0251 48.6975 62.0504Z" fill="#D8E7FF"/>
<path fill-rule="evenodd" clip-rule="evenodd" d="M56.1677 62.0251C57.5001 62.0378 58.8199 62.5434 59.8176 63.4599C62.8171 66.2158 62.634 71.1524 62.6213 74.2432C62.6213 75.3178 61.6741 76.3101 60.5438 76.3165H58.0369C57.4875 76.2912 57.437 76.0131 57.3991 75.7792C57.3296 75.3999 57.5696 75.0396 58.0369 75.0144C58.8831 75.0144 59.7229 75.0396 60.5691 75.0144C61.712 74.9638 61.3268 72.5682 61.3016 71.2408C61.2195 68.0868 60.5186 64.3891 57.2854 63.4726C56.9065 63.3651 56.5087 63.3146 56.1109 63.3146H54.1597V75.6591C54.1597 75.6591 54.1155 76.0004 53.926 76.1584C53.5598 76.4682 52.8904 76.2912 52.8588 75.6591V62.6698C52.8715 62.3159 53.1493 62.0378 53.5092 62.0188C54.4059 62.0251 55.2837 62.0188 56.1677 62.0251Z" fill="#D8E7FF"/>
<path fill-rule="evenodd" clip-rule="evenodd" d="M73.8299 63.3145C73.5521 63.3209 73.3121 63.5484 73.2995 63.8265C73.2616 67.3851 73.2616 70.9374 73.2995 74.496C73.3121 74.7678 73.5395 75.0017 73.811 75.008C75.7433 75.0333 77.6693 75.0333 79.6016 75.008C79.8731 74.9954 80.1004 74.7678 80.1131 74.496C80.151 70.9374 80.151 67.3851 80.1131 63.8265C80.1004 63.5547 79.8668 63.3209 79.6016 63.3145C77.6819 63.2893 75.7559 63.3145 73.8299 63.3145ZM79.5953 62.0188C80.5551 62.0314 81.4013 62.8784 81.4139 63.8392C81.4328 67.3978 81.4518 70.9627 81.4139 74.5213C81.3886 75.4568 80.5993 76.2975 79.5953 76.3101C77.6567 76.3227 75.7244 76.3354 73.7857 76.3101C72.8512 76.2848 72.0113 75.4884 71.9987 74.4897C71.9797 70.9248 71.9608 67.3662 71.9987 63.8012C72.0239 62.8658 72.8133 62.0251 73.8173 62.0125C75.7433 62.0061 77.6693 62.0061 79.5953 62.0188Z" fill="#D8E7FF"/>
<path fill-rule="evenodd" clip-rule="evenodd" d="M10.2915 80.8106H98.9182V12.192H10.2915V80.8106ZM99.0003 10.8962C99.4108 10.9088 99.8907 11.3007 99.8907 11.3007C99.9538 11.3703 99.897 11.2691 100.023 11.4777C100.023 11.4777 100.206 11.7685 100.219 12.1351V80.8738C100.206 81.2341 100.011 81.5564 100.011 81.5564C99.8465 81.784 99.796 81.8093 99.7139 81.8725C99.5118 82.0242 99.2592 82.1063 99.0003 82.119C69.416 82.5046 39.8253 82.119 10.241 82.119C9.68528 82.1127 9.16748 81.7145 9.03487 81.1709C9.03487 81.1709 9.00329 81.0255 8.99698 80.8927V12.1224C9.00329 11.857 8.97172 11.9644 9.07907 11.6926C9.25588 11.2375 9.71054 10.9152 10.2094 10.8962C39.8064 10.5359 69.4033 10.5233 99.0003 10.8962Z" fill="#D8E7FF"/>
<path fill-rule="evenodd" clip-rule="evenodd" d="M10.0146 9.44194C8.70742 9.44826 7.52658 10.605 7.50763 11.9134C7.22347 34.9717 7.22347 58.0299 7.50763 81.0882C7.52658 82.3713 8.63165 83.5344 9.97668 83.5597C39.7252 83.743 69.48 83.743 99.2285 83.5597C100.517 83.5344 101.647 82.4409 101.698 81.1135V11.9071C101.666 10.6239 100.567 9.46091 99.2285 9.43562C69.4927 9.25232 39.7568 9.44194 10.0146 9.44194ZM99.2475 8.13986C101.167 8.17778 102.897 9.80223 102.992 11.749C102.992 11.7996 102.998 11.8438 102.998 11.8944V81.1009C102.948 83.0666 101.268 84.8175 99.2475 84.8554C69.4863 85.0387 39.7252 85.0387 9.96405 84.8554C8.00018 84.8175 6.23838 83.073 6.21312 81.1009C5.92896 58.0363 5.92896 34.959 6.21312 11.8944C6.23838 9.95393 7.91809 8.17778 9.96405 8.13986C39.7252 7.95655 69.4863 7.95023 99.2475 8.13986Z" fill="#D8E7FF"/>
<path d="M39.5538 43.9287H23.4008V45.2245H39.5538V43.9287Z" fill="#D8E7FF"/>
<path d="M74.9855 27.6147H73.691V48.2458H74.9855V27.6147Z" fill="#D8E7FF"/>
<path d="M89.5914 18.2852H88.2969V34.1883H89.5914V18.2852Z" fill="#D8E7FF"/>
<path fill-rule="evenodd" clip-rule="evenodd" d="M54.6522 18.0956C58.22 18.1146 61.7815 18.576 65.2293 19.4925L66.0123 19.7074L65.6714 20.9589L64.8883 20.744C58.1063 18.9363 50.9076 18.9299 44.1067 20.7314L43.3236 20.94L42.989 19.6884L43.772 19.4798C47.3335 18.538 50.9455 18.083 54.6522 18.0956Z" fill="#D8E7FF"/>
<path fill-rule="evenodd" clip-rule="evenodd" d="M71.1714 21.61C81.5528 26.3127 89.9261 36.1099 90.0145 48.012V48.7958H88.72V48.0183C88.6821 42.8795 86.9582 37.7912 83.9903 33.5689C80.6624 28.8347 75.9012 25.1812 70.641 22.7983L69.9211 22.4759L70.4516 21.2939C70.6915 21.3951 70.9315 21.5025 71.1714 21.61Z" fill="#D8E7FF"/>
<path fill-rule="evenodd" clip-rule="evenodd" d="M47.7313 27.7475C47.8071 32.6651 50.1246 37.4626 54.1218 40.6419C57.3296 43.1955 61.3584 44.6556 65.4693 44.8389L66.227 44.8705L66.1765 46.1663L65.4124 46.1347C58.5168 45.8313 51.7032 42.0262 48.4322 35.8191C47.1377 33.3604 46.4557 30.5918 46.4305 27.8233V26.9827H47.725V27.7475H47.7313Z" fill="#D8E7FF"/>
<path fill-rule="evenodd" clip-rule="evenodd" d="M37.3563 18.8478C30.7511 18.8478 24.1522 18.6392 17.5534 18.8478C17.1366 18.8667 16.7641 19.2333 16.7577 19.6568C16.7135 21.2876 16.7072 22.912 16.7577 24.5428C16.7767 24.8525 17.0545 25.1117 17.3639 25.118H26.9118V26.4138C23.7228 26.4138 20.5276 26.4327 17.3387 26.4138C16.3789 26.3948 15.5074 25.5857 15.4632 24.606C15.4632 24.5807 15.4632 24.5618 15.4632 24.5365V19.6505C15.4948 18.538 16.4673 17.5583 17.5913 17.552H37.3689V18.8478H37.3563Z" fill="#D8E7FF"/>
<path d="M32.1656 21.2687H15.5264V22.5644H32.1656V21.2687Z" fill="#D8E7FF"/>
<path fill-rule="evenodd" clip-rule="evenodd" d="M39.2759 22.3685L38.5497 22.6845C30.2712 26.3758 23.0851 33.3224 20.9002 42.4686C20.4645 44.2827 20.2498 46.1473 20.2308 48.0183V48.7957L18.9363 48.7894V48.0056C19.0437 36.881 26.7476 26.793 37.2363 21.8565C37.5015 21.7301 37.7604 21.61 38.0256 21.4962L38.7518 21.1738C38.9286 21.5784 39.0991 21.9766 39.2759 22.3685Z" fill="#D8E7FF"/>
<path fill-rule="evenodd" clip-rule="evenodd" d="M24.6511 62.0568C25.0994 62.1136 25.0994 62.2527 25.1815 62.4297C25.371 62.8279 25.1184 63.3272 24.5943 63.3525C22.9777 63.3525 21.3611 63.3399 19.7446 63.3525C18.4564 63.3778 17.3071 64.5156 17.2819 65.8176C17.2755 66.6077 17.2503 67.3915 17.2819 68.1816C17.2945 68.3523 17.4397 68.4977 17.6102 68.5103C19.6877 68.5862 21.7653 68.5103 23.8428 68.5103C24.6258 68.5229 25.3394 69.1677 25.3962 69.9578C25.3962 69.9767 25.3962 70.0147 25.4025 70.0336C25.4278 71.8982 25.693 73.9083 24.6069 75.1724C23.9881 75.8867 23.0598 76.3102 22.1126 76.3165H16.783C16.4609 76.3038 16.4167 76.2217 16.322 76.1269C15.9558 75.7603 16.1768 75.046 16.783 75.0207C18.57 75.0207 20.3508 75.0334 22.1379 75.0207C23.1608 75.0018 24.0891 74.1421 24.1144 73.0423C24.1207 72.0499 24.1522 71.0513 24.1144 70.0589C24.108 69.9262 23.9881 69.8124 23.8554 69.8061C21.7842 69.7808 19.7067 69.8061 17.6355 69.8061C16.7893 69.7934 16.0315 69.1108 15.9937 68.2006C15.9747 66.5382 15.8295 64.781 16.764 63.5548C17.465 62.6256 18.6016 62.0631 19.7825 62.0568H24.6006C24.6132 62.0568 24.6322 62.0568 24.6511 62.0568Z" fill="#D8E7FF"/>
<path fill-rule="evenodd" clip-rule="evenodd" d="M93.1908 62.0568C93.4434 62.0884 93.5255 62.1579 93.6328 62.2843C93.9422 62.6509 93.7654 63.3209 93.134 63.3525C91.5174 63.3525 89.9008 63.3399 88.2843 63.3525C86.9961 63.3778 85.8468 64.5156 85.8215 65.8176C85.8152 66.6077 85.79 67.3915 85.8215 68.1816C85.8342 68.3586 85.9857 68.504 86.1562 68.5103C88.2274 68.5356 90.305 68.5103 92.3825 68.5103C93.1655 68.5229 93.8791 69.1677 93.9359 69.9578C93.9359 69.9767 93.9359 70.0147 93.9422 70.0336C93.9675 72.1005 94.2074 74.3254 92.7677 75.5454C92.1804 76.0384 91.4164 76.3165 90.646 76.3228H85.3164C84.9501 76.3038 84.9185 76.209 84.8175 76.0889C84.5018 75.7097 84.7291 75.046 85.3164 75.0207C87.1034 75.0207 88.8842 75.0334 90.6712 75.0207C91.7005 75.0018 92.6351 74.0979 92.6477 73.0486C92.6603 72.0563 92.6919 71.0576 92.6477 70.0652C92.6414 69.9325 92.5277 69.8187 92.3888 69.8124C90.3176 69.7871 88.2401 69.8124 86.1688 69.8124C85.3164 69.7997 84.5649 69.0918 84.527 68.2069C84.5018 66.2411 84.4134 64.1489 85.9162 62.9164C86.5856 62.3665 87.4444 62.0631 88.3158 62.0568H93.134C93.1529 62.0568 93.1718 62.0568 93.1908 62.0568Z" fill="#D8E7FF"/>
<path fill-rule="evenodd" clip-rule="evenodd" d="M54.4943 28.4238C56.8245 28.4365 59.1546 28.7146 61.4089 29.2708L61.0995 30.5287C60.9985 30.5034 60.8974 30.4781 60.7964 30.4591C58.6936 29.9661 56.5403 29.7259 54.3807 29.7259V28.4301C54.4186 28.4238 54.4565 28.4238 54.4943 28.4238Z" fill="#D8E7FF"/>
<path fill-rule="evenodd" clip-rule="evenodd" d="M37.3121 17.5457C38.4234 17.5646 39.4085 18.5254 39.4275 19.6821L38.133 19.701C38.133 19.6758 38.133 19.6505 38.133 19.6252C38.1014 19.2017 37.7225 18.8477 37.2994 18.8414L37.2931 17.5457C37.2931 17.5457 37.2994 17.5457 37.3121 17.5457Z" fill="#D8E7FF"/>
<path fill-rule="evenodd" clip-rule="evenodd" d="M54.3554 16.5217C51.2549 16.5406 48.1544 16.863 45.117 17.5267C44.574 17.6468 44.0751 18.026 44.0625 18.5443C44.0372 19.8401 44.0625 21.1358 44.0625 22.4379V22.6971C50.6361 20.725 57.7464 20.6871 64.3074 22.5075C64.4589 22.5517 64.6168 22.5959 64.7683 22.6402C64.9262 22.6844 65.0525 22.6023 65.0525 22.6023C65.0525 21.1611 65.0841 19.7137 65.0525 18.2852C65.0525 17.5835 63.8022 17.5014 62.7666 17.2991C59.9944 16.7618 57.1844 16.5153 54.3554 16.5217ZM54.6838 15.2196C58.1127 15.2385 61.5479 15.6304 64.882 16.4142C65.7029 16.6165 66.3281 17.3939 66.347 18.2409C66.3723 19.701 66.3596 21.1611 66.347 22.6149C66.3281 23.4745 65.4124 24.1698 64.5663 23.9296C58.0053 21.9639 50.8066 21.9639 44.1509 24.0181C43.4626 24.233 42.7932 24.1256 42.7616 23.5314C42.7364 21.8691 42.749 20.2067 42.7616 18.538C42.7806 17.4129 43.6899 16.509 44.8392 16.2562C48.066 15.5546 51.3433 15.2132 54.6838 15.2196ZM38.0572 19.7326C27.5369 24.1066 18.5258 32.8925 16.8777 45.1422C16.8525 45.3319 16.8272 45.5278 16.8083 45.7238C16.7893 45.8691 16.7767 46.0145 16.764 46.1599C16.7451 46.3306 16.7325 46.5012 16.7198 46.6719C16.6883 47.0891 16.884 47.5441 17.3324 47.5505L22.5609 47.5378C23.0661 38.4928 28.9261 30.2504 37.0405 25.6742C37.5457 25.3897 38.1267 25.2001 38.133 24.5554V19.7073C38.1014 19.7073 38.0761 19.72 38.0572 19.7326ZM87.7538 47.5315C88.4421 47.5315 89.1367 47.5315 89.8251 47.5378C90.507 47.5378 91.1953 47.5694 91.8773 47.5378C92.313 47.5125 92.313 46.7793 92.2878 46.4949C92.2751 46.3558 92.2625 46.2168 92.2499 46.084C91.1259 34.8773 82.5631 24.8714 71.9797 20.1561C71.7524 20.055 71.5251 19.8906 71.3041 19.8906C71.1272 19.897 70.9883 20.0487 70.982 20.232V25.1179C71.0767 25.1685 71.1651 25.2128 71.2598 25.2633C79.0901 29.4477 85.3542 36.8746 86.3646 46.2168C86.5098 46.9057 87.0276 47.5125 87.7538 47.5315ZM85.0638 46.3179H85.0574C84.0345 37.6837 77.9219 29.966 69.6875 25.9144C69.6875 24.0055 69.6749 22.1029 69.6875 20.194C69.7064 19.3407 70.4768 18.5886 71.3293 18.5949C72.0302 18.6075 72.6807 19.0373 73.3563 19.3597C83.8071 24.3026 92.2941 34.0176 93.5255 45.8123C93.557 46.103 93.5823 46.3874 93.6012 46.6782C93.6833 47.7464 92.9571 48.821 91.871 48.8399C90.4502 48.8462 89.0294 48.8399 87.6086 48.8336L87.6149 48.821C86.3583 48.7261 85.2848 47.6958 85.0638 46.3179ZM38.3161 18.2283L38.4929 18.4053C38.5624 18.6644 38.455 18.8098 38.9918 19.4166C39.1244 19.6568 39.2759 19.5999 39.4275 19.6568V24.5554C39.4149 26.085 37.5583 26.7993 36.0112 27.8043C28.9135 32.4185 23.8428 40.2183 23.8239 48.821C21.6579 48.8273 19.4857 48.8462 17.3197 48.8399C16.202 48.821 15.3369 47.7401 15.4253 46.5581C16.4294 34.0366 26.0656 23.0194 38.3161 18.2283Z" fill="#D8E7FF"/>
</g>
<defs>
<filter id="filter0_d" x="0" y="0" width="123" height="109" filterUnits="userSpaceOnUse" color-interpolation-filters="sRGB">
<feFlood flood-opacity="0" result="BackgroundImageFix"/>
<feColorMatrix in="SourceAlpha" type="matrix" values="0 0 0 0 0 0 0 0 0 0 0 0 0 0 0 0 0 0 127 0"/>
<feOffset dx="8" dy="10"/>
<feGaussianBlur stdDeviation="3"/>
<feColorMatrix type="matrix" values="0 0 0 0 0 0 0 0 0 0 0 0 0 0 0 0 0 0 0.25 0"/>
<feBlend mode="normal" in2="BackgroundImageFix" result="effect1_dropShadow"/>
<feBlend mode="normal" in="SourceGraphic" in2="effect1_dropShadow" result="shape"/>
</filter>
<filter id="filter1_f" x="5" y="7" width="99" height="79" filterUnits="userSpaceOnUse" color-interpolation-filters="sRGB">
<feFlood flood-opacity="0" result="BackgroundImageFix"/>
<feBlend mode="normal" in="SourceGraphic" in2="BackgroundImageFix" result="shape"/>
<feGaussianBlur stdDeviation="0.5" result="effect1_foregroundBlur"/>
</filter>
<filter id="filter2_d" x="2" y="8" width="105" height="85" filterUnits="userSpaceOnUse" color-interpolation-filters="sRGB">
<feFlood flood-opacity="0" result="BackgroundImageFix"/>
<feColorMatrix in="SourceAlpha" type="matrix" values="0 0 0 0 0 0 0 0 0 0 0 0 0 0 0 0 0 0 127 0"/>
<feOffset dy="4"/>
<feGaussianBlur stdDeviation="2"/>
<feColorMatrix type="matrix" values="0 0 0 0 0 0 0 0 0 0 0 0 0 0 0 0 0 0 0.33 0"/>
<feBlend mode="normal" in2="BackgroundImageFix" result="effect1_dropShadow"/>
<feBlend mode="normal" in="SourceGraphic" in2="effect1_dropShadow" result="shape"/>
</filter>
<filter id="filter3_dd" x="2" y="8" width="105" height="85" filterUnits="userSpaceOnUse" color-interpolation-filters="sRGB">
<feFlood flood-opacity="0" result="BackgroundImageFix"/>
<feColorMatrix in="SourceAlpha" type="matrix" values="0 0 0 0 0 0 0 0 0 0 0 0 0 0 0 0 0 0 127 0"/>
<feOffset dy="4"/>
<feGaussianBlur stdDeviation="2"/>
<feColorMatrix type="matrix" values="0 0 0 0 0 0 0 0 0 0 0 0 0 0 0 0 0 0 0.25 0"/>
<feBlend mode="normal" in2="BackgroundImageFix" result="effect1_dropShadow"/>
<feColorMatrix in="SourceAlpha" type="matrix" values="0 0 0 0 0 0 0 0 0 0 0 0 0 0 0 0 0 0 127 0"/>
<feOffset dy="4"/>
<feGaussianBlur stdDeviation="2"/>
<feColorMatrix type="matrix" values="0 0 0 0 0 0 0 0 0 0 0 0 0 0 0 0 0 0 0.25 0"/>
<feBlend mode="normal" in2="effect1_dropShadow" result="effect2_dropShadow"/>
<feBlend mode="normal" in="SourceGraphic" in2="effect2_dropShadow" result="shape"/>
</filter>
<clipPath id="clip0">
<rect width="97" height="77" fill="white" transform="translate(6 8)"/>
</clipPath>
</defs>
</svg>
